<?xml version="1.0" encoding="utf-8"?>
<!-- Generator: Adobe Illustrator 17.0.0, SVG Export Plug-In . SVG Version: 6.00 Build 0)  -->
<!DOCTYPE svg PUBLIC "-//W3C//DTD SVG 1.1//EN" "http://www.w3.org/Graphics/SVG/1.1/DTD/svg11.dtd">
<svg version="1.1" id="Слой_1" xmlns="http://www.w3.org/2000/svg" xmlns:xlink="http://www.w3.org/1999/xlink" x="0px" y="0px"
	 width="19.879px" height="15.38px" viewBox="0 0 19.879 15.38" enable-background="new 0 0 19.879 15.38" xml:space="preserve">
<g>
	<g>
		<path fill="#ffffff" d="M19.496,0.811l-3.155,0.917c-0.513-0.668-1.795-2.002-3.759-1.678c-1.347,0.218-2.407,0.854-3.063,1.839
			c-0.604,0.905-0.828,2.06-0.661,3.374C7.583,4.989,4.196,2.369,2.085,0c0,0-0.703,2.404,0.554,3.96c0,0-0.532-0.269-1.109-0.73
			c-0.002,0.027-0.004,0.053-0.007,0.08C1.515,3.807,1.526,6.685,2.985,7.859c0,0-0.409-0.087-0.933-0.282
			c0.592,1.542,1.607,3.004,2.957,3.961c-0.998,0.661-1.451,0.879-4.182,1.39c0.273,0.15,0.627,0.301,1.12,0.443
			c0,0-0.968,0.376-1.947,0.397l0.585,0.241c0.136,0.056,3.37,1.372,7.036,1.372c4.225,0,9.406-1.762,10.144-10.146l2.115-2.669
			L17.088,3.28L19.496,0.811z"/>
	</g>
</g>
</svg>
