<?xml version="1.0" standalone="no"?>
<!DOCTYPE svg PUBLIC "-//W3C//DTD SVG 20010904//EN"
 "http://www.w3.org/TR/2001/REC-SVG-20010904/DTD/svg10.dtd">
<svg version="1.0" xmlns="http://www.w3.org/2000/svg"
 width="700.000000pt" height="700.000000pt" viewBox="0 0 700.000000 700.000000"
 preserveAspectRatio="xMidYMid meet">
<metadata>
Created by potrace 1.14, written by Peter Selinger 2001-2017
</metadata>
<g transform="translate(0.000000,700.000000) scale(0.100000,-0.100000)"
fill="#000000" stroke="none">
<path d="M5745 6095 c-209 -46 -353 -158 -448 -347 -72 -144 -91 -225 -90
-398 0 -131 2 -153 27 -229 67 -202 211 -357 375 -401 50 -13 78 -9 109 18 43
38 53 97 24 152 -15 27 -31 38 -80 56 -99 36 -158 90 -207 192 -20 41 -27 63
-42 132 -6 27 -5 154 1 190 39 215 165 360 354 404 69 16 233 15 304 -3 378
-91 620 -422 620 -848 0 -296 -105 -524 -314 -680 -75 -56 -218 -114 -318
-129 -55 -8 -182 -7 -230 1 -118 20 -157 28 -227 49 -146 44 -399 146 -658
266 -73 34 -580 283 -895 440 -578 288 -1042 469 -1420 555 -149 34 -242 49
-430 71 -128 15 -515 8 -623 -11 -15 -3 -55 -10 -90 -15 -34 -6 -102 -22 -152
-36 -417 -116 -725 -338 -964 -696 -28 -42 -51 -79 -51 -81 0 -3 -15 -32 -34
-65 -58 -103 -122 -281 -151 -420 -25 -117 -30 -177 -30 -332 0 -168 7 -246
36 -373 87 -396 297 -703 577 -846 49 -25 152 -58 222 -71 53 -10 284 -15 325
-6 11 2 47 7 80 10 135 16 222 34 355 73 134 39 141 41 284 107 54 25 101 46
105 46 3 0 6 -387 6 -859 -1 -969 5 -900 -75 -895 -22 1 -41 -1 -41 -4 -7 -40
-3 -185 6 -190 18 -12 624 -9 628 2 2 6 3 49 2 96 l0 85 -49 7 c-27 4 -54 12
-60 18 -8 8 -11 401 -10 1408 l0 1397 130 0 c295 -1 492 -41 647 -133 38 -22
105 -81 174 -151 l112 -114 3 149 c2 82 1 219 -2 304 l-5 156 -1263 0 c-694 0
-1262 -2 -1263 -5 -5 -27 -4 -531 1 -531 4 0 16 8 28 18 139 117 204 159 322
205 84 33 216 67 266 69 21 0 44 3 49 7 19 11 137 21 290 25 l110 3 -1 -391
c-1 -215 -2 -397 -3 -404 -2 -19 -118 -100 -202 -142 -106 -52 -247 -100 -339
-115 -19 -3 -42 -8 -50 -10 -95 -27 -419 -27 -535 -1 -216 49 -372 172 -493
386 -64 114 -131 311 -146 430 -3 25 -8 56 -11 70 -8 36 -7 276 0 335 31 237
148 519 285 689 203 252 424 405 715 495 205 63 352 84 590 85 207 0 305 -8
510 -45 188 -33 513 -121 634 -172 14 -5 28 -11 31 -12 19 -5 60 -19 85 -30
17 -7 55 -22 85 -34 74 -30 82 -33 235 -100 166 -72 401 -186 1120 -543 315
-156 678 -313 887 -382 348 -115 641 -106 887 26 276 149 450 405 506 743 18
113 13 350 -9 455 -90 417 -339 698 -716 807 -104 31 -317 39 -415 18z"/>
<path d="M4150 4026 c0 -102 2 -106 60 -106 64 0 60 65 61 -993 0 -529 0
-1155 1 -1390 0 -236 -4 -433 -8 -437 -5 -5 -31 -10 -59 -12 l-50 -3 0 -97 -1
-98 898 0 898 0 0 260 c0 143 -3 260 -6 260 -3 0 -23 -13 -43 -29 -70 -55
-138 -99 -217 -141 -98 -52 -101 -55 -83 -77 12 -16 12 -16 -8 0 -21 18 -23
18 -85 -6 -72 -28 -89 -34 -138 -43 -19 -3 -46 -9 -60 -11 -45 -10 -624 -13
-630 -4 -3 5 -5 634 -5 1399 0 1509 -3 1425 54 1422 69 -5 66 -9 65 92 -1 51
-2 96 -3 101 -1 4 -145 7 -321 7 l-320 0 0 -94z"/>
</g>
</svg>
