<?xml version="1.0" encoding="utf-8"?>
<!-- Generator: Adobe Illustrator 17.0.0, SVG Export Plug-In . SVG Version: 6.00 Build 0)  -->
<!DOCTYPE svg PUBLIC "-//W3C//DTD SVG 1.1//EN" "http://www.w3.org/Graphics/SVG/1.1/DTD/svg11.dtd">
<svg version="1.1" id="Слой_1" xmlns="http://www.w3.org/2000/svg" xmlns:xlink="http://www.w3.org/1999/xlink" x="0px" y="0px"
	 width="19.965px" height="19.965px" viewBox="0 0 19.965 19.965" enable-background="new 0 0 19.965 19.965" xml:space="preserve">
<g>
	<g>
		<path fill="#720034" d="M16.934,0H3.031C1.364,0,0,1.364,0,3.031v13.904c0,1.667,1.364,3.03,3.031,3.03h13.904
			c1.667,0,3.031-1.364,3.031-3.03V3.031C19.965,1.364,18.601,0,16.934,0z M9.982,15.576c-3.085,0-5.594-2.509-5.594-5.594
			s2.509-5.594,5.594-5.594s5.594,2.509,5.594,5.594S13.067,15.576,9.982,15.576z M16.264,5.147c-0.799,0-1.446-0.648-1.446-1.446
			c0-0.799,0.648-1.446,1.446-1.446c0.799,0,1.446,0.647,1.446,1.446C17.71,4.5,17.063,5.147,16.264,5.147z"/>
		<path fill="#720034" d="M9.982,5.904c-2.249,0-4.078,1.83-4.078,4.078s1.83,4.078,4.078,4.078s4.078-1.83,4.078-4.078
			S12.231,5.904,9.982,5.904z"/>
	</g>
</g>
</svg>
