<?xml version="1.0" encoding="utf-8"?>
<!-- Generator: Adobe Illustrator 17.0.0, SVG Export Plug-In . SVG Version: 6.00 Build 0)  -->
<!DOCTYPE svg PUBLIC "-//W3C//DTD SVG 1.1//EN" "http://www.w3.org/Graphics/SVG/1.1/DTD/svg11.dtd">
<svg version="1.1" id="Слой_1" xmlns="http://www.w3.org/2000/svg" xmlns:xlink="http://www.w3.org/1999/xlink" x="0px" y="0px"
	 width="1920px" height="877.175px" viewBox="0 0 1920 877.175" enable-background="new 0 0 1920 877.175" xml:space="preserve">
<g>
	<defs>
		<rect id="SVGID_1_" x="0" y="0" width="1920" height="835.943"/>
	</defs>
	<clipPath id="SVGID_2_">
		<use xlink:href="#SVGID_1_"  overflow="visible"/>
	</clipPath>
	<g opacity="0.02" clip-path="url(#SVGID_2_)">
		<path d="M1108.435,274.811c-35.687,5.544-97.602,5.182-88.148-6.251l-7.74-6.053
			C1043.149,261.381,1170.671,252.422,1108.435,274.811z"/>
		<path d="M1120.481,321.9c-31.312-1.471-7.767-6.063-2.658-10.442l42.767-2.115C1173.945,313.595,1138.285,319.143,1120.481,321.9z
			"/>
		<path d="M1109.648,424.268l12.798,1.643c-12.798-1.643-31.313-1.483-43.373-0.508c-1.418-5.24,21.491-12.422,46.382-11.746
			C1120.423,418.054,1096.217,419.999,1109.648,424.268z"/>
		<path d="M480.935,358.749c-141.94-23.268-263.154,34.573-426.588,23.697c-24.896-1.519-67.805,0.161-94.965,5.005
			c-0.398,6.765-0.789,13.529-1.149,20.293c36.539,2.189,107.56-8.292,156.337-7.446c-40.549,14.277-97.23,16.531-156.876,18.136
			c-1.145,24.106-1.728,48.202-0.62,72.269c72.936-8.324,146.035-16.516,218.256-21.857l39.71,10.142
			c116.748-2.721,87.154-21.702,140.012-32.646c12.798,1.643,8.398,8.677,15.426,12.11c59.234-10.101-20.538-7.69,2.351-14.872
			c60.571-4.877,137.66-17.774,177.397-7.622l17.467-28.121C515.186,396.059,472.847,375.432,480.935,358.749z"/>
		<path d="M65.748,378.859c128.203-6.324,59.583-32.842,192.817-43.576c-88.648-11.374-196.849,15.283-297.401,20.989
			c-0.156,2.947-0.315,5.895-0.481,8.843c4.85-0.867,9.62-1.851,14.268-2.989C17.72,360.028,80.924,365.623,65.748,378.859z"/>
		<path d="M378.665,393.7c-66.341,6.679-43.056-23.236-107.974-11.333c26.578-16.818,36.292-2.917,96.863-7.805l-34.342,10.801
			L378.665,393.7z"/>
		<path d="M-43.439,453.083c28.987-2.38,49.983-4.37,70.453-8.337c-26.024-3.344-49.784,1.987-70.424,6.549
			C-43.42,451.891-43.43,452.487-43.439,453.083z"/>
		<path d="M1548.171,230.027c25.543,3.279,54.834-3.073,71.978-8.466l-13.51-4.263L1548.171,230.027z"/>
		<path d="M1182.1,248.85c-25.893,19.44,20.516,7.681,72.341,16.873c67.604-1.445,136.921-20.398,203.921-24.454l40.033-12.573
			C1417.968,228.51,1276.993,233.184,1182.1,248.85z"/>
		<path d="M1137.305,339.258c50.428,3.951,114.087-13.209,150.379-16.126c-61.231,2.243-140.295,7.286-183.009,9.401
			C1099.59,336.951,1124.505,337.598,1137.305,339.258z"/>
		<path d="M1960.428,200.524c-0.512-3.305-1.107-6.591-1.751-9.866c-20.31,3.427-40.022,7.847-58.603,13.68
			c28.249,0.335,38.695,2.661,61.143,3.85C1960.98,205.632,1960.724,203.077,1960.428,200.524z"/>
		<path d="M1962.22,221.754c-35.477,1.803-73.682-7.14-114.32-3.859c49.827,1.31-14.411,15.841-56.525,20.578
			c-80.376-0.194-207.235,11.354-316.27,20.143c-46.376,11.751-201.497,9.565-177.615,30.326
			c-66.34,6.696-76.74-9.827-126.509-11.165c-145.017,37.058-267.061-29.226-422.9,14.054c8.773-14.066-69.581-6.426-100.234-5.279
			c-66.919,4.06-225.044,14.123-188.417,36.552c46.766,13.591,136.902-20.374,207.893-8.752
			c122.116,18.204-124.783,19.406-125.159,42.133c15.798-4.942,26.446,10.853,69.16,4.887
			c-88.628,16.628,58.427,20.087,3.465,37.352c130.856,4.141,118.77,5.112,186.704,29.008
			c77.722-10.265,54.524-28.427,76.074-40.853c82.063-17.289,149.266,4.01,220.718-7.1c-51.843,38.896,122.11,18.205,206.865,11.384
			c109.661-6.168,34.693-33.508,150.755-38.858c58.856,12.603-115.754,30.687-38.413,43.147l52.811-10.924
			c33.026-16.019,58.924-35.465,98.984-48.035c24.226-1.958,60.57-4.889,61.887,0.346c-47.146,9.147-31.662,21.248,18.872,25.184
			c22.863-7.167,28.552-8.975,39.328-15.182c-100.543-30.616,102.656-9.58,169.875-36.385
			c49.556-11.322,81.122-14.708,103.643-13.889C1962.915,271.624,1963.635,246.603,1962.22,221.754z"/>
	</g>
	<g opacity="0.03" clip-path="url(#SVGID_2_)">
		<path d="M664.34,530.252c52.859-4.063,99.448-16.765,146.546-29.106c-99.624,11.767-201.675,18.778-277.828,33.335
			C576.639,532.691,620.365,531.205,664.34,530.252z"/>
		<path d="M1044.901,451.503c-65.167-4.897-119.24,4.719-170.925,17.303c52.363-4.198,104.394-8.176,156.161-11.939
			C1035.022,455.092,1040.186,453.419,1044.901,451.503z"/>
		<path d="M971.874,474.19c-59.78,1.128-110.664,13.803-160.988,26.956C867.236,494.517,922.428,486.211,971.874,474.19z"/>
		<path d="M-37.113,609.476c1.984-0.052,4.012-0.095,6.018-0.156c5.8-0.901,11.774-1.757,17.553-2.683
			C-21.568,607.595-29.2,608.544-37.113,609.476z"/>
		<path d="M447.068,694.664c-34.544,2.091-69.177,5.261-103.243,9.247c70.151-5.105,140.895-10.148,199.673-21.476
			c-8.702,0.189-17.407-3.014-26.131-2.825C499.723,686.749,473.376,694.093,447.068,694.664z"/>
		<path d="M-37.113,609.476c-5.218,0.145-10.459,0.265-15.687,0.4c0.015,0.494,0.026,0.989,0.041,1.483
			C-47.562,610.731-42.354,610.104-37.113,609.476z"/>
		<path d="M1968.438,445.559c-8.974,3.607-16.728,6.986-21.661,7.093c-35.16,7.51-78.809,8.456-122.585,12.786
			c-35.116,7.518-78.699,1.705-122.457,6.027c-8.747,0.19-17.645,7.148-17.732,10.541c-60.965-5.453-96.449,15.579-157.573,13.546
			l26.089,6.191c-35.074,4.134-61.443,11.479-105.241,15.784c-34.987,0.759-61.49,14.845-87.708,15.414
			c-87.552,8.671-174.98,10.565-245.32,28.969c8.942-6.943,26.414-7.322,35.27-10.903c52.976-24.793,149.041-23.5,228.064-38.734
			c26.264-3.934,52.701-11.281,78.982-15.207c122.65-16.181,245.341-32.361,376.653-41.954
			c42.302-3.635,90.323-9.602,134.929-15.919c-0.572-12.414-1.185-24.827-1.866-37.237c-14.06,0.77-28.128,1.523-42.222,2.246
			c0.937,0.714,1.356,1.454,1.207,2.218c-34.702,1.469-69.532,2.897-104.948,4.179c-34.965,0.758-61.443,11.488-96.43,12.246
			c-235.838,5.11-462.591,17.269-693.754,34.021c-18.156,6.543-37.64,12.271-58.262,17.323c13.875-0.283,28.274,0.054,43.269,1.181
			c-141.228,57.113-385.705,55.637-526.219,85.742C329.38,592.187,152.338,604.105-31.095,609.32
			c-7.189,1.116-14.403,2.221-21.628,3.321c0.218,7.596,0.426,15.191,0.619,22.788c27.731-3.489,56.061-6.93,85.202-10.376
			c-28.087,4.435-56.487,8.741-85.141,12.905c0.072,2.902,0.138,5.803,0.207,8.705c79.781,0.333,161.003,0.295,238.43-10.564
			c51.668-11.072,119.99-16.037,180.568-27.041c1.318-1.251,2.553-2.577,3.679-3.994c4.593,0.229,9.126,0.35,13.683,0.421
			c7.8-2.437,16.169-5.825,21.371-7.937c63.247-8.7,126.626-19.074,193.07-24.985c5.676-1.109,11.437-2.196,17.263-3.233
			c17.603-3.757,43.711-0.947,61.205-1.327c-26.785,0.581-52.836,2.275-78.468,4.56c-74.734,14.609-132.472,34.613-214.441,32.922
			c-5.32,1.659-10.298,2.889-13.77,2.964c-1.184,0.219-2.385,0.389-3.592,0.61c-21.64,20.199-78.7,21.435-128.022,22.505
			c8.595,6.585-17.599,3.779-17.771,10.524c-52.766,14.689-105.481,29.337-149.498,40.447
			c-41.584,8.886-82.999,10.674-122.667,15.139c0.625,36.478,1.021,72.959,1.261,109.443c20.281-2.515,40.616-4.973,60.976-7.39
			c51.412-6.1,103.294-11.964,155.411-17.682c-13.966,3.136-27.981,6.459-41.939,9.986c-6.634,2.083-13.57,3.896-20.546,5.572
			C57.992,808.69,5.489,811.416-49.51,811.606c0.032,5.025,0.06,10.049,0.086,15.074c79.604-10.147,160.527-19.341,242.059-28.308
			c-14.01,3.138-27.937,6.477-41.957,10.003C92.7,826.306,23.258,828.481-49.418,827.872c0.032,6.143,0.058,12.285,0.083,18.428
			c171.849-18.808,333.09-38.084,495.927-57.286c22.888-8.443,45.672-15.423,68.435-18.109
			c52.569-7.888,113.774-9.215,166.297-13.736c-8.573-6.57,17.689-7.139,17.776-10.515c52.766-14.674,113.817-12.614,175.022-13.94
			c8.702-0.189,8.616,3.187,17.532,5.803c83.787-33.523,194.318-31.853,301.97-32.828c27.339-1.621,54.894-2.454,82.938-1.965
			c-27.089,1.278-54.96,1.713-82.938,1.965c-62.399,3.672-123.275,11.832-184.241,20.685
			c149.008-14.548,290.251-24.686,436.814-30.569c139.883-6.405,271.28-22.767,402.699-39.136
			c43.41-5.114,86.733-6.348,129.963-6.099C1973.493,582.38,1971.516,513.951,1968.438,445.559z M543.498,682.435
			c-99.484,23.405-212.344,31.079-321.739,39.431c-9.657,1.719-19.271,3.505-28.716,5.338c-20.594,3.086-38.38,3-55.502,1.624
			c-2.623,0.242-5.2,0.458-7.778,0.716c1.469-0.351,3.048-0.639,4.517-0.991c-25.646-2.261-50.219-7.145-80.858-8.471l-8.793,3.573
			c0.086-3.384,0.173-6.769,0.26-10.145c79.243-25.379,174.918-10.564,262.601-22.596c113.947-15.956,236.355-22.026,350.541-48.143
			c17.58-3.755,43.756-0.948,61.183-1.326C657.771,652.924,604.923,670.982,543.498,682.435z M1294.489,686.432
			c-86.918-0.934-189.188,7.819-281.693,24.206c-58.74-76.188,430.735-14.622,519.176-90.178
			C1565.9,660.279,1364.463,684.916,1294.489,686.432z"/>
		<path d="M-51.72,651.595c0.323,13.986,0.604,27.972,0.851,41.959c3.022-0.584,6.02-1.19,8.986-1.825
			c87.898-22.174,175.477-30.828,263.25-49.642C128.403,644.101,38.72,649.988-51.72,651.595z"/>
		<path d="M873.976,468.806c-34.275,2.75-68.725,5.545-103.464,8.475c-96.702,10.101-182.62,22.093-270.531,36.203
			c64.324-3.148,128.984-5.654,194.116-7.066C759.41,501.41,815.097,483.173,873.976,468.806z"/>
		<path d="M185.763,554.565c80.979-8.941,161.945-18.313,242.909-29.313c24.108-4.115,47.732-8.001,71.309-11.769
			c-95.348,4.664-190.01,10.782-284.483,17.233c-89.97,9.915-179.955,19.235-269.958,29.425c0.305,8.094,0.598,16.189,0.868,24.285
			c0.027,0.8,0.049,1.601,0.075,2.401c202-4.445,397.6-15.536,572.248-49.567c4.512-0.982,9.548-1.851,14.327-2.781
			C416.387,539.303,300.917,546.723,185.763,554.565z"/>
		<path d="M134.28,728.553c1.065,0.103,2.151,0.206,3.261,0.275c27.666-2.539,55.825-4.786,84.218-6.962
			c39.245-6.983,80.236-13.083,122.066-17.955C268.102,709.397,193.183,714.994,134.28,728.553z"/>
		<path d="M374.428,804.369c8.747-0.19,26.178-0.568,34.969-0.758c5.373-2.174,10.683-4.323,16.056-6.455
			c-8.175,0.008-16.438-0.033-24.674-0.115L374.428,804.369z"/>
		<path d="M891.654,738.517c-155.229,16.531-300.79,33.494-445.062,50.497c-7.045,2.599-14.111,5.333-21.139,8.142
			c96.533-0.026,192.706-6.428,281.743-27.033c17.54-3.763,44.063-14.469,61.512-14.847c82.815-4.999,161.856-17.451,240.676-28.902
			c-37.634,3.676-75.643,7.553-114.493,11.82C893.798,738.286,892.746,738.409,891.654,738.517z"/>
	</g>
</g>
</svg>
