<?xml version="1.0" encoding="utf-8"?>
<!-- Generator: Adobe Illustrator 17.0.0, SVG Export Plug-In . SVG Version: 6.00 Build 0)  -->
<!DOCTYPE svg PUBLIC "-//W3C//DTD SVG 1.1//EN" "http://www.w3.org/Graphics/SVG/1.1/DTD/svg11.dtd">
<svg version="1.1" id="Слой_1" xmlns="http://www.w3.org/2000/svg" xmlns:xlink="http://www.w3.org/1999/xlink" x="0px" y="0px"
	 width="522.748px" height="215.575px" viewBox="0 0 522.748 215.575" enable-background="new 0 0 522.748 215.575"
	 xml:space="preserve">
<g>
	<circle fill="#E16300" cx="139.012" cy="55.817" r="15"/>
	<g>
		<path fill="#E16300" d="M58.982,215.575c-6.796,0-12.325-5.528-12.325-12.324s5.529-12.324,12.325-12.324
			c6.795,0,12.324,5.528,12.324,12.324S65.777,215.575,58.982,215.575z M58.982,195.927c-4.039,0-7.325,3.285-7.325,7.324
			s3.286,7.324,7.325,7.324c4.039,0,7.324-3.285,7.324-7.324S63.021,195.927,58.982,195.927z"/>
	</g>
	<g>
		<path fill="#E16300" d="M267.273,58.317c-9.324,0-16.909-7.585-16.909-16.909s7.585-16.909,16.909-16.909
			s16.909,7.585,16.909,16.909S276.598,58.317,267.273,58.317z M267.273,29.498c-6.566,0-11.909,5.343-11.909,11.909
			s5.343,11.909,11.909,11.909s11.909-5.343,11.909-11.909S273.84,29.498,267.273,29.498z"/>
	</g>
	<g>
		<path fill="#E16300" d="M29.502,104.499C13.235,104.499,0,91.265,0,74.997s13.235-29.503,29.502-29.503
			S59.005,58.73,59.005,74.997S45.77,104.499,29.502,104.499z M29.502,56.494C19.3,56.494,11,64.795,11,74.997
			s8.3,18.502,18.502,18.502s18.502-8.3,18.502-18.502S39.705,56.494,29.502,56.494z"/>
	</g>
	<linearGradient id="SVGID_1_" gradientUnits="userSpaceOnUse" x1="70.0411" y1="112.0792" x2="117.0007" y2="171.0651">
		<stop  offset="0" style="stop-color:#FFFFFF;stop-opacity:0.25"/>
		<stop  offset="1" style="stop-color:#FFFFFF;stop-opacity:0.06"/>
	</linearGradient>
	<circle fill="url(#SVGID_1_)" cx="93.911" cy="142.062" r="37.101"/>
	<linearGradient id="SVGID_2_" gradientUnits="userSpaceOnUse" x1="94.5948" y1="2.7166" x2="112.517" y2="25.2287">
		<stop  offset="0" style="stop-color:#FFFFFF;stop-opacity:0.25"/>
		<stop  offset="1" style="stop-color:#FFFFFF;stop-opacity:0.06"/>
	</linearGradient>
	<circle fill="url(#SVGID_2_)" cx="103.705" cy="14.16" r="14.16"/>
	<linearGradient id="SVGID_3_" gradientUnits="userSpaceOnUse" x1="489.6187" y1="39.2671" x2="515.1349" y2="71.3179">
		<stop  offset="0" style="stop-color:#FFFFFF;stop-opacity:0.25"/>
		<stop  offset="1" style="stop-color:#FFFFFF;stop-opacity:0.06"/>
	</linearGradient>
	<circle fill="url(#SVGID_3_)" cx="502.589" cy="55.559" r="20.159"/>
</g>
</svg>
