<?xml version="1.0" encoding="utf-8"?>
<!-- Generator: Adobe Illustrator 17.0.0, SVG Export Plug-In . SVG Version: 6.00 Build 0)  -->
<!DOCTYPE svg PUBLIC "-//W3C//DTD SVG 1.1//EN" "http://www.w3.org/Graphics/SVG/1.1/DTD/svg11.dtd">
<svg version="1.1" id="Слой_1" xmlns="http://www.w3.org/2000/svg" xmlns:xlink="http://www.w3.org/1999/xlink" x="0px" y="0px"
	 width="1920px" height="207.818px" viewBox="0 0 1920 207.818" enable-background="new 0 0 1920 207.818" xml:space="preserve">
<g>
	<polyline fill="#FFFFFF" points="0,207.818 0,184.853 1920,35.529 1920,207.818 	"/>
	<g>
		<path fill="#FFFFFF" d="M1586.261,31.161c53.6-5.151,106.784-10.315,159.007-15.602c-48.365,3.042-94.656,6.375-132.553,12.117
			C1603.88,28.872,1595.1,30.032,1586.261,31.161z"/>
		<path fill="#FFFFFF" d="M1629.608,29.406c-8.795,1.193-17.632,2.354-26.443,3.48c33.053-3.174,65.953-6.364,98.546-9.574
			c20.226-1.992,40.422-3.998,60.476-6.028c-43.013,2.708-84.349,5.643-119.643,10.299
			C1638.146,28.165,1633.777,28.768,1629.608,29.406z"/>
		<path fill="#FFFFFF" d="M1800.396,14.917c8.598-1.59,18.875-3.13,29.656-4.648c-22.434,2.37-45.062,4.71-67.865,7.016
			C1774.822,16.49,1787.623,15.709,1800.396,14.917z"/>
		<path fill="#FFFFFF" d="M1841.856,25.332c8.24-0.328,16.493-0.699,24.713-1.097c-7.771,1.037-15.374,2.074-22.362,3.134
			c-16.638,1.783-38.944,2.799-50.013,4.77c-38.68,6.31-83.292,8.34-127.626,13.874c-27.735,3.761-60.913,8.497-94.122,13.242
			c55.402-6.926,110.973-12.095,166.359-19.604c55.431-6.924,127.847-10.954,172.14-17.666c0.8-0.128,1.63-0.24,2.43-0.363
			c2.209-0.138,4.417-0.288,6.625-0.429v-4.177C1881.684,21.066,1838.786,25.228,1841.856,25.332z"/>
		<path fill="#FFFFFF" d="M1153.789,71.099c38.972-2.801,77.944-5.012,111.153-9.754c-0.042-0.584,16.681-1.786,11.027-2.556
			c33.347-2.985,72.319-5.786,105.598-9.352c14.431-1.419,28.752-3.577,43.097-5.992c-91.465,8.989-183.754,18.025-282.217,27.393
			C1148.206,70.912,1148.248,71.497,1153.789,71.099z"/>
		<path fill="#FFFFFF" d="M1819.726,41.442c20.716-2.167,41.18-4.346,61.332-6.573c-24.388,2.357-48.56,4.774-72.551,7.218
			C1812.217,41.87,1815.972,41.655,1819.726,41.442z"/>
		<path fill="#FFFFFF" d="M14.336,170.043c-2.646-0.36-7.706-0.096-14.336,0.505v3.48C11.084,172.333,18.073,170.928,14.336,170.043
			z"/>
		<path fill="#FFFFFF" d="M950.925,89.176C933.1,90.396,915.348,91.642,898.119,93C916.008,91.906,933.547,90.604,950.925,89.176z"
			/>
		<path fill="#FFFFFF" d="M1469.508,72.409c2.906-0.179,5.799-0.349,8.733-0.503c0.677-0.291,1.426-0.571,2.23-0.842
			c-0.763,0.089-1.523,0.168-2.272,0.256C1475.989,71.48,1472.851,71.9,1469.508,72.409z"/>
		<path fill="#FFFFFF" d="M1920,31.168v-0.702c-12.946,1.49-25.909,2.961-38.943,4.402C1893.99,33.619,1906.977,32.386,1920,31.168z
			"/>
		<path fill="#FFFFFF" d="M1817.313,42.245l33.417-2.401c-10.421,0.489-20.74,1.033-31.004,1.598
			c-6.095,0.642-12.194,1.283-18.401,1.923C1806.713,42.995,1811.994,42.627,1817.313,42.245z"/>
		<path fill="#FFFFFF" d="M1161.477,116.495c37.114-4.946,72.083-10.424,113.568-14.031c41.473-2.98,82.613-6.129,123.521-9.374
			c14.919-1.639,29.864-3.3,45.112-5.022c51.288-5.295,102.624-10.311,153.98-15.252c-73.171,6.189-146.554,12.319-220.778,18.052
			c-48.119,5.705-112.962,11.2-176.121,17.412c-31.697,4.378-63.764,8.697-101.834,11.404c-12.999,1.736-25.252,3.54-36.636,5.429
			C1095.174,122.289,1128.223,119.417,1161.477,116.495z"/>
		<path fill="#FFFFFF" d="M1692.934,54.273c37.928-3.732,73.69-7.316,108.391-10.908c-5.334,0.367-10.655,0.728-16.048,1.087
			C1754.012,47.682,1723.186,50.965,1692.934,54.273z"/>
		<path fill="#FFFFFF" d="M1322.867,88.368c3.684-0.423,7.324-0.852,10.91-1.282c-16.272,1.47-32.827,2.857-49.882,4.083
			C1295.033,90.368,1311.755,89.754,1322.867,88.368z"/>
		<path fill="#FFFFFF" d="M1734.301,54.281c1.277-0.095,2.568-0.188,3.831-0.28c61.564-6.082,118.154-11.839,173.168-17.923
			C1850.907,41.912,1791.666,48.052,1734.301,54.281z"/>
		<path fill="#FFFFFF" d="M1572.446,59.255c0.084,1.168-16.692,1.786-11.024,2.558c-31.406,2.257-67.739,4.868-80.95,9.252
			c38.294-4.439,81.698-8.165,114.311-12.241c61.594-6.434,127.497-10.183,190.495-14.372c7.691-0.796,15.452-1.573,23.229-2.365
			C1729.192,46.723,1652.851,53.477,1572.446,59.255z"/>
		<path fill="#FFFFFF" d="M1456.115,74.673c3.255-0.582,8.491-1.517,13.393-2.264c-52.294,3.154-88.518,9.022-135.731,14.677
			C1375.956,83.277,1416.054,78.828,1456.115,74.673z"/>
		<path fill="#FFFFFF" d="M1142.448,70.837c-0.693,0.064-1.36,0.13-2.053,0.191c-24.639,2.367-48.754,4.631-72.635,6.845
			c-38.603,4.085-77.168,8.048-116.834,11.302C1019.511,84.484,1090.009,80.126,1142.448,70.837z"/>
		<path fill="#FFFFFF" d="M1628.314,40.359c-1.636,0.153-3.272,0.298-4.937,0.45c0.709-0.035,1.405-0.063,2.086-0.09
			C1626.39,40.597,1627.388,40.481,1628.314,40.359z"/>
		<path fill="#FFFFFF" d="M1588.048,43.421c-5.967,0.712-12.043,1.424-18.149,2.125c18.035-1.568,35.917-3.138,53.478-4.737
			C1612.424,41.292,1601.086,42.025,1588.048,43.421z"/>
		<path fill="#FFFFFF" d="M1569.899,45.547c-69.485,6.035-141.198,12.098-203.933,20.306c37.138-4.419,82.083-8.26,126.648-12.087
			C1519.135,51.17,1545.086,48.397,1569.899,45.547z"/>
		<path fill="#FFFFFF" d="M794.667,132.208c-27.792,2.582-44.387,4.953-66.623,7.139l16.807-0.031
			c-39.017,2.219-61.029,7.329-100.043,8.953c0.042,0.587-5.429,2.158-10.998,2.559c-27.766,2.583-55.712,3.415-77.877,6.184
			c-27.777,2.585-55.571,4.582-77.765,7.352c-5.584,0.401-16.554,2.956-27.665,4.345c-13.551,1.21-27.14,2.336-40.697,3.474
			c0.623,0.114,1.189,0.23,1.701,0.348c11.055-0.771,22.275-1.637,33.454-2.836c33.333-3.573,72.181-7.544,105.514-10.527
			c83.419-7.169,161.153-15.11,238.861-23.048c16.638-1.78,33.277-4.155,49.904-5.936c49.929-5.942,111.196-9.757,144.247-16.249
			c5.542-0.988,16.666-1.788,22.166-3.358c-44.303,6.122-99.973,10.123-155.527,15.294
			C833.431,127.07,816.945,130.607,794.667,132.208z"/>
		<path fill="#FFFFFF" d="M328.14,178.088c0.263-0.047,0.537-0.092,0.828-0.136c-0.298-0.045-0.621-0.083-0.93-0.125
			C328.07,177.916,328.134,178.001,328.14,178.088z"/>
		<path fill="#FFFFFF" d="M1516.148,54.475c55.541-5.755,116.947-7.228,166.724-14.924c-0.042-0.584-0.084-1.17-0.126-1.756
			l-5.502,0.984c-19.566,1.059-35.37,1.252-51.781,1.941c-37.153,4.808-84.743,8.92-132.849,13.046
			c-21.598,2.117-43.581,4.119-65.538,5.93c-16.751,1.204-33.333,3.575-44.373,5.544c-5.555,0.399-11.196,0.214-16.737,0.612
			c-38.821,4.552-71.985,9.88-110.817,14.437c11.096-0.797,27.861-1.415,38.958-2.8C1366.135,68.198,1443.98,62.009,1516.148,54.475
			z"/>
		<path fill="#FFFFFF" d="M38.044,188.343c40.817-2.391,90.869-7.426,137.435-11.581c-38.28,1.737-88.477,6.694-137.024,11.099
			C38.191,188.042,38.034,188.209,38.044,188.343z"/>
		<path fill="#FFFFFF" d="M1066.037,80.725c-58.489,6.707-123.421,12.511-178.847,16.004
			c-44.556,3.202-172.238,15.906-149.466,21.331C791.92,101.344,1105.67,91.363,1066.037,80.725z"/>
		<path fill="#FFFFFF" d="M60.041,183.233c-5.387,0.387-10.682,1.318-14.77,2.317c5.691-0.653,11.573-1.364,17.439-2.098
			C61.785,183.388,60.899,183.319,60.041,183.233z"/>
		<path fill="#FFFFFF" d="M1293.325,97.113c-33.574,2.921-62.903,7.064-92.567,11.167c63.159-6.211,128.002-11.707,176.121-17.412
			C1349.153,93.007,1321.326,95.101,1293.325,97.113z"/>
		<path fill="#FFFFFF" d="M1053.032,126.655c41.676-1.896,75.865-5.823,108.445-10.161c-33.254,2.923-66.303,5.794-99.189,8.617
			C1059.225,125.623,1055.982,126.127,1053.032,126.655z"/>
		<path fill="#FFFFFF" d="M1098.924,119.683c38.07-2.707,70.137-7.026,101.834-11.404
			C1165.033,111.788,1130.094,115.537,1098.924,119.683z"/>
		<path fill="#FFFFFF" d="M1848.711,11.747c24.907-3.49,40.035-5.324,48.646-6.135c3.761-1.091,8.744-2.46,15.5-4.208
			c-1.459,0.105-3.012,0.216-4.458,0.32c-25.758,2.913-51.898,5.749-78.348,8.544c-10.781,1.518-21.058,3.058-29.656,4.648
			C1816.518,13.914,1832.709,12.881,1848.711,11.747z"/>
		<path fill="#FFFFFF" d="M1897.356,5.612C1865.261,14.952,1930.997,2.453,1897.356,5.612L1897.356,5.612z"/>
		<path fill="#FFFFFF" d="M1723.19,55.481c5.088-0.502,9.925-0.986,14.942-1.479c-1.263,0.092-2.554,0.185-3.831,0.28
			C1730.63,54.68,1726.847,55.079,1723.19,55.481z"/>
		<path fill="#FFFFFF" d="M1427.076,59.696c21.957-1.812,43.94-3.813,65.538-5.93c-44.565,3.827-89.51,7.667-126.648,12.087
			c5.541-0.398,11.181-0.213,16.737-0.612C1393.743,63.271,1410.325,60.9,1427.076,59.696z"/>
		<path fill="#FFFFFF" d="M1881.057,34.868c-20.151,2.228-40.615,4.406-61.332,6.573c10.264-0.564,20.583-1.109,31.004-1.598
			l-33.417,2.401c-5.319,0.382-10.6,0.75-15.988,1.119c-34.701,3.592-70.463,7.177-108.391,10.908
			c30.253-3.308,61.079-6.591,92.344-9.821c-62.999,4.189-128.902,7.938-190.495,14.372c-32.613,4.076-76.017,7.802-114.311,12.241
			c-0.804,0.271-1.553,0.551-2.23,0.842c-2.934,0.154-5.827,0.323-8.733,0.503c-4.901,0.747-10.138,1.682-13.393,2.264
			c-40.062,4.155-80.159,8.604-122.339,12.413c-3.586,0.429-7.226,0.859-10.91,1.282c-11.111,1.386-27.833,2-38.972,2.801
			c17.055-1.226,33.611-2.612,49.882-4.083c47.213-5.654,83.438-11.522,135.731-14.677c3.343-0.509,6.481-0.93,8.691-1.089
			c0.749-0.087,1.509-0.167,2.272-0.256c13.212-4.385,49.544-6.995,80.95-9.252c-5.668-0.772,11.108-1.39,11.024-2.558
			c33.208-4.745,66.386-9.48,94.122-13.242c44.334-5.534,88.946-7.563,127.626-13.874c11.069-1.972,33.375-2.987,50.013-4.77
			c6.989-1.06,14.591-2.097,22.362-3.134c-8.22,0.398-16.474,0.77-24.713,1.097c-3.07-0.104,39.828-4.266,78.144-8.316v-2.648
			c-42.372,3.728-100.808,8.833-148.564,12.346c-16.806-0.559,13.852-9.675,24.992-11.06c1.212-0.249,2.632-0.496,3.967-0.737
			c-12.772,0.793-25.574,1.573-38.208,2.368c-20.054,2.03-40.25,4.035-60.476,6.028c-32.593,3.21-65.493,6.4-98.546,9.574
			c8.811-1.126,17.648-2.287,26.443-3.48c4.169-0.637,8.537-1.241,12.936-1.822c35.294-4.656,76.63-7.591,119.643-10.299
			c22.802-2.307,45.43-4.646,67.865-7.016c0.606-0.082,1.132-0.164,1.712-0.246c-28.669,2.037-57.933,3.736-86.496,5.537
			c-52.223,5.286-105.408,10.45-159.007,15.602c8.84-1.129,17.62-2.289,26.454-3.484c37.897-5.743,84.188-9.075,132.553-12.117
			c49.731-5.036,98.685-10.183,146.17-15.559c-32.362,2.329-69.25,5.001-101.182,7.859
			c-128.511,12.22-246.368,23.866-365.591,35.585c-14.345,2.414-28.666,4.573-43.097,5.992
			c-33.279,3.566-72.251,6.367-105.598,9.352c5.654,0.77-11.069,1.972-11.027,2.556c-33.209,4.742-72.181,6.954-111.153,9.754
			c-5.541,0.398-5.583-0.186-11.341-0.261c-52.439,9.289-122.936,13.647-191.522,18.339c-17.378,1.428-34.917,2.729-52.806,3.824
			c17.229-1.358,34.981-2.604,52.806-3.824c39.666-3.254,78.232-7.217,116.834-11.302c-94.555,8.766-184.288,16.446-277.533,23.618
			c-88.974,6.981-172.251,15.319-255.543,23.658c-33.979,3.339-68.042,5.655-102.055,7.723c2.861-0.567,5.653-1.145,8.321-1.74
			c-42.285,2.579-83.012,5.632-126.113,9.462c-3.898,0.348-7.782,0.688-11.707,1.049c-88.875,8.15-165.197,14.219-255.797,20.73
			c-15.792,1.135-31.556,2.563-47.331,3.87v4.304c6.629-0.601,11.689-0.865,14.336-0.505c3.737,0.885-3.251,2.29-14.336,3.985
			v30.563c18.068-0.269,35.877-0.348,55.929-0.47c11.181-0.213,11.349,2.128,28.047,0.928c44.471-3.196,89.083-5.814,133.557-9.598
			c94.794-8.745,184.893-16.381,276.506-23.707c-0.618-0.083-0.906-0.193-0.833-0.331c22.076-1.711,44.235-3.421,66.771-5.13
			c22.264-1.6,38.832-4.559,61.11-6.16c150.169-10.791,294.346-22.413,441.201-35.011c11.384-1.889,23.637-3.693,36.636-5.429
			c-8.835,0.632-18.022,1.179-27.612,1.615c88.371-15.761,244.237-25.782,332.93-36.867
			c100.795-12.051,213.294-21.543,330.059-30.149c57.365-6.23,116.606-12.369,176.999-18.203
			c-55.014,6.084-111.604,11.841-173.168,17.923c59.86-4.402,120.815-8.58,181.868-12.752V31.168
			C1906.977,32.386,1893.99,33.619,1881.057,34.868z M60.041,183.233c0.858,0.085,1.744,0.155,2.669,0.219
			c-5.866,0.734-11.747,1.445-17.439,2.098C49.36,184.552,54.654,183.621,60.041,183.233z M38.044,188.343
			c-0.01-0.134,0.147-0.301,0.411-0.482c48.547-4.405,98.744-9.362,137.024-11.099C128.912,180.917,78.861,185.952,38.044,188.343z
			 M328.14,178.088c-0.006-0.088-0.07-0.173-0.102-0.261c0.309,0.042,0.632,0.081,0.93,0.125
			C328.677,177.997,328.402,178.042,328.14,178.088z M983.486,113.934c-33.052,6.492-94.319,10.307-144.247,16.249
			c-16.627,1.781-33.265,4.156-49.904,5.936c-77.708,7.938-155.442,15.879-238.861,23.048
			c-33.332,2.983-72.181,6.954-105.514,10.527c-11.179,1.198-22.399,2.065-33.454,2.836c-0.512-0.117-1.078-0.234-1.701-0.348
			c13.557-1.137,27.145-2.263,40.697-3.474c11.111-1.389,22.081-3.944,27.665-4.345c22.194-2.77,49.988-4.767,77.765-7.352
			c22.166-2.769,50.111-3.601,77.877-6.184c5.57-0.4,11.041-1.971,10.998-2.559c39.014-1.624,61.026-6.734,100.043-8.953
			l-16.807,0.031c22.236-2.185,38.832-4.557,66.623-7.139c22.278-1.601,38.764-5.138,55.459-6.338
			c55.554-5.172,111.224-9.172,155.527-15.294C1000.153,112.146,989.028,112.945,983.486,113.934z M737.724,118.06
			c-22.771-5.425,104.91-18.129,149.466-21.331c55.426-3.492,120.358-9.297,178.847-16.004
			C1105.67,91.363,791.92,101.344,737.724,118.06z M1529.44,36.611c-23.242,2.594-45.722,5.044-72.21,6.947
			C1481.3,41.228,1505.354,38.919,1529.44,36.611z M1365.966,65.853c62.735-8.208,134.448-14.271,203.933-20.306
			c6.105-0.702,12.182-1.413,18.149-2.125c13.038-1.396,24.376-2.129,35.329-2.612c1.665-0.152,3.301-0.297,4.937-0.45
			c-0.926,0.122-1.924,0.238-2.851,0.36c16.411-0.689,32.214-0.882,51.781-1.941l5.502-0.984c0.042,0.586,0.084,1.172,0.126,1.756
			c-49.777,7.697-111.184,9.169-166.724,14.924c-72.167,7.534-150.013,13.723-222.04,23.015c-11.097,1.385-27.862,2.002-38.958,2.8
			C1293.981,75.732,1327.146,70.405,1365.966,65.853z"/>
		<path fill="#FFFFFF" d="M1457.23,43.558c26.488-1.903,48.968-4.353,72.21-6.947C1505.354,38.919,1481.3,41.228,1457.23,43.558z"/>
		<path fill="#FFFFFF" d="M1910.945,21.985c-44.292,6.712-116.709,10.742-172.14,17.666
			c-55.386,7.509-110.957,12.679-166.359,19.604c80.405-5.778,156.746-12.532,236.061-17.169c23.99-2.444,48.163-4.861,72.551-7.218
			c13.034-1.442,25.997-2.913,38.943-4.402v-9.273c-2.208,0.141-4.417,0.291-6.625,0.429
			C1912.574,21.744,1911.745,21.857,1910.945,21.985z"/>
		<path fill="#FFFFFF" d="M1161.477,116.495c21.767-1.914,43.644-3.843,65.701-5.806c61.344-5.802,115.761-11.476,171.387-17.599
			c-40.908,3.245-82.048,6.394-123.521,9.374C1233.56,106.071,1198.591,111.548,1161.477,116.495z"/>
		<path fill="#FFFFFF" d="M1443.677,88.068c-15.247,1.721-30.193,3.383-45.112,5.022c60.638-4.81,120.797-9.841,180.826-14.921
			c98.607-9.482,197.292-18.658,295.852-28.839c11.199-1.122,22.319-2.181,33.375-3.193c-183.884,12.55-367.2,25.057-522.687,43.651
			c-2.848,0.359-6.033,0.72-9.052,1.081c74.224-5.733,147.608-11.863,220.778-18.052
			C1546.301,77.757,1494.965,82.773,1443.677,88.068z"/>
		<path fill="#FFFFFF" d="M1785.277,44.452c5.392-0.36,10.713-0.72,16.048-1.087c6.207-0.64,12.305-1.281,18.401-1.923
			c-3.753,0.214-7.509,0.428-11.219,0.645C1800.729,42.879,1792.968,43.655,1785.277,44.452z"/>
		<path fill="#FFFFFF" d="M1625.464,40.719c-0.681,0.027-1.377,0.055-2.086,0.09c-17.561,1.6-35.443,3.169-53.478,4.737
			c-24.813,2.851-50.764,5.623-77.285,8.219C1540.721,49.639,1588.311,45.528,1625.464,40.719z"/>
		<path fill="#FFFFFF" d="M1470.218,37.77c-5.57,0.4-16.669,1.198-22.267,1.6c-3.362,0.6-6.685,1.193-10.048,1.785
			c5.21-0.345,10.478-0.685,15.729-1.017L1470.218,37.77z"/>
		<path fill="#FFFFFF" d="M1142.448,70.837c98.463-9.368,190.752-18.404,282.217-27.393c4.416-0.743,8.841-1.51,13.24-2.289
			c-61.527,4.062-122.641,9.205-178.798,16.492c-11.071,1.385-27.668,4.341-38.779,5.14c-52.64,4.341-102.661,9.805-152.568,15.087
			c23.881-2.214,47.995-4.479,72.635-6.845C1141.087,70.967,1141.755,70.902,1142.448,70.837z"/>
	</g>
</g>
</svg>
