<?xml version="1.0" encoding="utf-8"?>
<!-- Generator: Adobe Illustrator 17.0.0, SVG Export Plug-In . SVG Version: 6.00 Build 0)  -->
<!DOCTYPE svg PUBLIC "-//W3C//DTD SVG 1.1//EN" "http://www.w3.org/Graphics/SVG/1.1/DTD/svg11.dtd">
<svg version="1.1" id="Слой_1" xmlns="http://www.w3.org/2000/svg" xmlns:xlink="http://www.w3.org/1999/xlink" x="0px" y="0px"
	 width="1920px" height="153.626px" viewBox="0 0 1920 153.626" enable-background="new 0 0 1920 153.626" xml:space="preserve">
<g>
	<g>
		<path fill="none" d="M914.889,92.847c-38.972-2.801-77.86-6.184-111.406-6.239c-0.042,0.584-16.765-0.617-11.279,0.953
			c-33.431-1.813-72.403-4.614-105.85-5.842c-14.486-0.659-28.968-0.571-43.512-0.232c91.811,4.181,184.443,8.434,283.234,13.241
			C920.388,93.83,920.43,93.245,914.889,92.847z"/>
		<path fill="none" d="M926.076,94.728c0.695,0.035,1.365,0.066,2.06,0.104c24.724,1.18,48.915,2.387,72.867,3.61
			c38.79,1.476,77.526,3.069,117.25,5.519C1049.7,98.799,979.304,93.032,926.076,94.728z"/>
		<path fill="none" d="M616.18,46.082c-3.305,0.111-8.621,0.287-13.579,0.325c52.207,4.355,88.899,3.727,136.435,4.881
			C696.746,49.028,656.424,47.698,616.18,46.082z"/>
		<path fill="none" d="M1118.253,103.961c17.816,1.342,35.564,2.647,52.81,3.766
			C1153.202,106.252,1135.657,105.033,1118.253,103.961z"/>
		<path fill="none" d="M481.134,58.148c6.008,0.148,12.123,0.313,18.266,0.491c-18.073-1.027-35.997-2.03-53.606-2.958
			C456.704,56.77,468.031,57.666,481.134,58.148z"/>
		<path fill="none" d="M378.878,32.411c-38.072-1.73-73.979-3.295-108.837-4.702c5.332,0.399,10.65,0.804,16.038,1.219
			C317.484,30.201,348.463,31.36,378.878,32.411z"/>
		<path fill="none" d="M454.469,70.204c8.915,0.08,17.771,0.187,26.681,0.334c-53.786-2.565-107.162-5.059-159.604-7.294
			C369.848,67.149,416.14,70.47,454.469,70.204z"/>
		<path fill="none" d="M437.997,66.078c8.875,0.077,17.788,0.191,26.669,0.336c-33.167-1.584-66.185-3.132-98.902-4.615
			c-20.303-0.92-40.578-1.823-60.716-2.682c42.959,3.47,84.289,6.475,119.886,6.914C429.37,66.085,433.78,66.112,437.997,66.078z"/>
		<path fill="none" d="M510.117,43.753c31.406,2.257,67.739,4.868,81.442,2.417c-38.536-1.082-82.026-3.6-114.887-4.229
			c-61.88-2.439-127.643-8.152-190.593-13.013c-7.726-0.312-15.518-0.653-23.329-0.98C341.913,34.7,418.435,38.93,498.84,44.708
			C498.924,43.54,515.616,45.327,510.117,43.753z"/>
		<path fill="none" d="M602.601,46.407c-2.902-0.238-5.789-0.484-8.715-0.751c-0.711,0.191-1.493,0.361-2.327,0.514
			c0.768,0.021,1.532,0.051,2.285,0.072C596.054,46.401,599.219,46.433,602.601,46.407z"/>
		<path fill="none" d="M189.913,24.718C127.357,21.763,63.71,18.315,0,14.27v1.498c46.152,3.002,91.433,5.705,133.466,7.247
			C152.235,23.515,171.013,24.089,189.913,24.718z"/>
		<path fill="none" d="M266.893,55.998c-8.737,0.344-19.128,0.399-30.016,0.36c22.543,0.862,45.273,1.782,68.171,2.759
			C292.429,58.098,279.647,57.04,266.893,55.998z"/>
		<path fill="none" d="M440.844,55.422c1.641,0.083,3.281,0.173,4.951,0.26c-0.707-0.067-1.4-0.139-2.078-0.209
			C442.782,55.461,441.778,55.433,440.844,55.422z"/>
		<path fill="none" d="M750.017,51.58c-3.706-0.108-7.371-0.204-10.981-0.291c16.315,0.871,32.898,1.866,49.954,3.092
			C777.851,53.58,761.213,51.797,750.017,51.58z"/>
		<path fill="none" d="M1630.531,96.615c-33.501-1.23-72.518-2.854-105.935-4.668c-83.587-4.832-161.657-8.088-239.702-11.342
			c-16.722-0.617-33.529-0.646-50.24-1.26c-50.266-1.258-111.448-6.242-145.089-4.543c-5.626,0.186-16.751-0.614-22.419,0.154
			c44.724,0.275,100.393,4.276,156.116,7.1c16.694,1.2,33.517,0.056,55.795,1.657c27.875,1.419,44.64,1.444,66.96,2.461
			l-16.639-2.372c38.933,3.382,61.449,1.472,100.295,5.443c0.042-0.587,5.682-1.36,11.251-0.96
			c27.85,1.414,55.627,4.586,77.961,5.015c27.861,1.413,55.655,3.411,78.017,3.843c5.584,0.401,16.807-0.559,28.002-0.345
			c13.585,0.74,27.195,1.568,40.775,2.381c-0.6-0.202-1.144-0.398-1.633-0.587C1652.996,97.774,1641.767,97.028,1630.531,96.615z"/>
		<path fill="none" d="M337.937,26.488c-1.277-0.089-2.569-0.182-3.832-0.271c-61.801-2.783-118.633-5.177-173.951-7.021
			C220.76,22.058,280.271,24.452,337.937,26.488z"/>
		<path fill="none" d="M254.057,26.531L220.64,24.13c10.384,1.006,20.675,1.943,30.914,2.852c6.125,0.236,12.252,0.474,18.487,0.728
			C264.654,27.305,259.376,26.914,254.057,26.531z"/>
		<path fill="none" d="M1013.173,52.472c-32.952-1.908-66.072-3.792-99.402-5.654c-37.44-0.411-72.833,0.01-114.407-2.351
			c-41.473-2.98-82.641-5.746-123.592-8.384c-15-0.511-30.029-1.004-45.366-1.48c-51.518-2.092-103.044-4.469-154.579-6.921
			c73.304,4.337,146.81,8.763,221.091,13.701c48.44,1.234,113.403,5.067,176.801,7.949c31.997,0.199,64.352,0.51,102.418,3.274
			C989.25,52.747,1001.635,52.714,1013.173,52.472z"/>
		<path fill="none" d="M1920,130.047v-0.742c-7.3-0.38-14.567-0.762-21.745-1.153C1905.131,128.828,1912.41,129.456,1920,130.047z"
			/>
		<path fill="none" d="M0,8.76v0.669c3.854,0.057,7.67,0.099,11.396,0.105C7.458,9.251,3.671,8.995,0,8.76z"/>
		<path fill="none" d="M499.4,58.64c69.634,3.963,141.477,8.215,204.741,9.062c-37.388-0.936-82.42-3.561-127.075-6.146
			C550.447,60.333,524.366,59.366,499.4,58.64z"/>
		<path fill="none" d="M1746.513,105.026c0.288,0.087,0.602,0.171,0.902,0.257c-0.019-0.093-0.07-0.186-0.063-0.273
			C1747.085,105.019,1746.808,105.024,1746.513,105.026z"/>
		<path fill="none" d="M553.876,57.489c-55.793-2.245-116.779-9.568-167.145-9.068c-0.042,0.584-0.084,1.17-0.126,1.756l5.586-0.188
			c19.517,1.749,35.185,3.818,51.526,5.483c37.458,0.553,85.147,3.288,133.35,6.083c21.678,0.992,43.722,2.155,65.713,3.502
			c16.751,1.204,33.501,1.228,44.71,0.857c5.555,0.399,11.111,1.389,16.652,1.787c39.073,1.046,72.658,0.514,111.742,1.556
			c-11.096-0.797-27.777-2.583-38.958-2.8C704.31,65.356,626.379,60.351,553.876,57.489z"/>
		<path fill="none" d="M251.554,26.982c-20.813-0.817-41.378-1.587-61.641-2.263c24.475,1.154,48.744,2.218,72.837,3.229
			C259.047,27.632,255.299,27.307,251.554,26.982z"/>
		<path fill="none" d="M1333.393,105.859c-56.029,8.795-367.982-26.188-330.278-9.992c58.847,1.725,123.942,5.265,179.298,9.733
			C1226.969,108.801,1355.155,114.484,1333.393,105.859z"/>
		<path fill="#FFFFFF" d="M780.506,47.149c33.647,1.91,63.267,2.003,93.213,2.184c-63.398-2.883-128.361-6.716-176.801-7.949
			C724.665,43.23,752.505,45.137,780.506,47.149z"/>
		<path fill="#FFFFFF" d="M1022.554,52.268c-41.519-4.082-75.918-5.084-108.783-5.45c33.33,1.862,66.45,3.746,99.402,5.654
			C1016.277,52.404,1019.559,52.368,1022.554,52.268z"/>
		<path fill="#FFFFFF" d="M976.136,52.607c-38.066-2.765-70.421-3.075-102.418-3.274C909.578,50.968,944.694,52.253,976.136,52.607z
			"/>
		<path fill="#FFFFFF" d="M266.893,55.998c-16.1-1.313-32.273-2.606-48.272-3.771c-25.15-0.107-40.385-0.455-49.023-0.884
			c-3.879,0.542-9.006,1.184-15.943,1.949c1.459,0.105,3.012,0.217,4.457,0.32c25.91,0.8,52.187,1.731,78.765,2.747
			C247.765,56.398,258.156,56.342,266.893,55.998z"/>
		<path fill="#FFFFFF" d="M169.598,51.343C202.698,46.688,135.852,49.66,169.598,51.343L169.598,51.343z"/>
		<path fill="#FFFFFF" d="M349.104,26.89c-5.107-0.23-9.964-0.443-15-0.672c1.263,0.089,2.554,0.182,3.832,0.271
			C341.627,26.618,345.428,26.765,349.104,26.89z"/>
		<path fill="#FFFFFF" d="M642.779,65.057c-21.99-1.347-44.034-2.509-65.713-3.502c44.655,2.585,89.687,5.21,127.075,6.146
			c-5.541-0.398-11.097-1.388-16.652-1.787C676.28,66.285,659.53,66.261,642.779,65.057z"/>
		<path fill="#FFFFFF" d="M1898.255,128.151c7.178,0.391,14.445,0.774,21.745,1.153v-21.536c-20.224-1.506-40.457-2.94-60.696-4.127
			c-95.07-4.899-185.335-10.224-277.055-16.072c0.6,0.171,0.869,0.321,0.777,0.447c-22.094-1.463-44.269-2.939-66.818-4.47
			c-22.264-1.6-39.085-1.04-61.363-2.641c-150.169-10.791-294.526-19.903-441.673-28.433c-11.537,0.242-23.923,0.275-37.036,0.135
			c8.835,0.638,18.006,1.41,27.56,2.349c-89.717,2.964-245.414-9.404-334.781-11.115c-101.483-2.484-214.182-9.176-330.978-17.353
			c-57.666-2.036-117.177-4.43-177.783-7.292c55.318,1.844,112.15,4.238,173.951,7.021c-62.12-4.36-125.371-9.127-188.688-13.9
			C96.236,9.766,48.581,6.503,0,3.352V8.76c3.671,0.235,7.458,0.491,11.396,0.774C7.67,9.528,3.854,9.486,0,9.429v4.841
			c63.71,4.045,127.357,7.493,189.913,10.448c20.263,0.677,40.828,1.446,61.641,2.263c-10.239-0.909-20.531-1.845-30.914-2.852
			l33.417,2.401c5.319,0.382,10.598,0.774,15.984,1.178c34.858,1.406,70.766,2.972,108.837,4.702
			c-30.415-1.052-61.394-2.21-92.799-3.483c62.95,4.861,128.713,10.574,190.593,13.013c32.861,0.629,76.351,3.147,114.887,4.229
			c0.834-0.153,1.616-0.323,2.327-0.514c2.926,0.267,5.813,0.513,8.715,0.751c4.958-0.039,10.274-0.215,13.579-0.325
			c40.244,1.616,80.566,2.946,122.857,5.207c3.611,0.088,7.275,0.183,10.981,0.291c11.195,0.217,27.833,2,38.972,2.801
			c-17.056-1.226-33.639-2.221-49.954-3.092c-47.537-1.154-84.228-0.526-136.435-4.881c-3.381,0.026-6.547-0.006-8.757-0.165
			c-0.753-0.021-1.518-0.05-2.285-0.072c-13.703,2.45-50.036-0.161-81.442-2.417c5.499,1.574-11.193-0.213-11.277,0.955
			c-33.546-0.052-67.06-0.109-95.048-0.352c-44.67-0.862-89.114-5.232-128.299-4.517c-11.237,0.369-33.459-1.816-50.181-2.43
			c-7.069,0.05-14.741-0.011-22.581-0.095c8.193,0.781,16.414,1.594,24.616,2.448c5.502,0.986-141.515-6.491-136.153-3.751
			c-0.042,0.586,120.38,6.443,206.047,12.453c16.554,2.956-15.093,7.595-26.317,7.373c-1.235,0.073-2.676,0.115-4.032,0.163
			c12.754,1.041,25.536,2.099,38.155,3.119c20.138,0.858,40.414,1.761,60.716,2.682c32.717,1.483,65.735,3.03,98.902,4.615
			c-8.882-0.145-17.794-0.26-26.669-0.336c-4.217,0.035-8.627,0.007-13.063-0.046c-35.597-0.439-76.928-3.444-119.886-6.914
			c-22.898-0.977-45.628-1.897-68.171-2.759c-0.611-0.006-1.144,0-1.73-0.001c28.665,2.083,57.872,4.586,86.398,6.887
			c52.443,2.235,105.819,4.729,159.604,7.294c-8.91-0.147-17.766-0.254-26.681-0.334c-38.329,0.265-84.621-3.056-132.924-6.96
			c-49.94-2.126-99.127-4.032-146.893-5.501c32.362,2.323,69.254,4.952,101.266,6.689c128.938,6.28,247.249,11.605,366.923,17.054
			c14.543-0.339,29.026-0.427,43.512,0.232c33.447,1.228,72.419,4.029,105.85,5.842c-5.485-1.571,11.237-0.369,11.279-0.953
			c33.546,0.055,72.433,3.438,111.406,6.239c5.541,0.398,5.499,0.983,11.187,1.88c53.228-1.695,123.624,4.071,192.177,9.234
			c17.404,1.072,34.949,2.291,52.81,3.766c-17.246-1.119-34.994-2.424-52.81-3.766c-39.724-2.451-78.46-4.043-117.25-5.519
			c94.837,4.844,184.746,10.073,278.059,16.307c89.057,5.812,172.672,9.468,256.301,13.123c34.107,1.554,68.152,4.132,102.111,6.949
			c-2.913,0.152-5.759,0.325-8.484,0.533c42.219,3.493,82.964,6.295,126.171,8.667c3.907,0.213,7.8,0.431,11.737,0.636
			c53.689,2.796,102.764,5.688,153.104,8.969v-23.58C1912.41,129.456,1905.131,128.828,1898.255,128.151z M538.166,73.268
			c23.374,0.756,45.973,1.546,72.461,3.449C586.471,75.583,562.334,74.428,538.166,73.268z M704.141,67.701
			c-63.264-0.847-135.107-5.099-204.741-9.062c-6.143-0.178-12.258-0.343-18.266-0.491c-13.103-0.482-24.43-1.378-35.339-2.466
			c-1.669-0.088-3.31-0.178-4.951-0.26c0.934,0.011,1.939,0.04,2.873,0.051c-16.341-1.665-32.009-3.734-51.526-5.483l-5.586,0.188
			c0.042-0.586,0.084-1.172,0.126-1.756c50.366-0.5,111.352,6.823,167.145,9.068c72.503,2.862,150.434,7.867,223.049,8.969
			c11.181,0.216,27.862,2.002,38.958,2.8C776.799,68.216,743.214,68.747,704.141,67.701z M1182.412,105.599
			c-55.356-4.468-120.451-8.008-179.298-9.733c-37.704-16.196,274.249,18.787,330.278,9.992
			C1355.155,114.484,1226.969,108.801,1182.412,105.599z M1624.906,96.799c-11.195-0.214-22.418,0.746-28.002,0.345
			c-22.362-0.432-50.156-2.429-78.017-3.843c-22.334-0.429-50.111-3.601-77.961-5.015c-5.569-0.4-11.209,0.372-11.251,0.96
			c-38.845-3.971-61.361-2.061-100.295-5.443l16.639,2.372c-22.32-1.016-39.084-1.042-66.96-2.461
			c-22.278-1.601-39.101-0.457-55.795-1.657c-55.723-2.825-111.392-6.825-156.116-7.1c5.668-0.768,16.793,0.032,22.419-0.154
			c33.64-1.699,94.823,3.285,145.089,4.543c16.711,0.615,33.518,0.643,50.24,1.26c78.045,3.254,156.115,6.51,239.702,11.342
			c33.417,1.814,72.433,3.438,105.935,4.668c11.236,0.412,22.464,1.159,33.516,1.977c0.49,0.189,1.033,0.386,1.633,0.587
			C1652.101,98.367,1638.491,97.538,1624.906,96.799z M1746.513,105.026c0.295-0.002,0.572-0.007,0.839-0.016
			c-0.006,0.088,0.044,0.181,0.063,0.273C1747.115,105.198,1746.801,105.113,1746.513,105.026z"/>
		<path fill="#FFFFFF" d="M610.627,76.718c-26.488-1.904-49.087-2.693-72.461-3.449C562.334,74.428,586.471,75.583,610.627,76.718z"
			/>
		<path fill="#FFFFFF" d="M189.913,24.718c-18.9-0.63-37.678-1.204-56.447-1.703C91.433,21.473,46.152,18.77,0,15.768v6.702
			c52.038,3.314,104.078,6.514,156.033,10.738c0.81-0.007,1.647,0.001,2.457-0.011c44.797-0.31,117.046,6.055,172.897,7.128
			c55.891,0.487,111.63,3.317,167.453,4.384C418.435,38.93,341.913,34.7,262.75,27.948
			C238.657,26.936,214.387,25.872,189.913,24.718z"/>
		<path fill="#FFFFFF" d="M913.77,46.818c-21.817-1.218-43.745-2.437-65.856-3.647c-61.544-3.029-116.213-5.194-172.142-7.088
			c40.951,2.637,82.119,5.403,123.592,8.384C840.938,46.829,876.33,46.407,913.77,46.818z"/>
		<path fill="#FFFFFF" d="M630.406,34.603c15.337,0.476,30.366,0.969,45.366,1.48c-60.703-3.91-120.963-7.532-181.102-11.087
			c-98.949-4.714-197.933-9.743-296.935-13.759c-11.244-0.491-22.402-1.033-33.488-1.612
			C348.036,23.496,531.256,37.33,687.804,41.158c2.87,0.052,6.074,0.15,9.113,0.225c-74.281-4.938-147.787-9.364-221.091-13.701
			C527.362,30.134,578.888,32.511,630.406,34.603z"/>
		<path fill="#FFFFFF" d="M286.079,28.928c-5.388-0.415-10.706-0.819-16.038-1.219c-6.235-0.254-12.362-0.492-18.487-0.728
			c3.745,0.325,7.493,0.65,11.196,0.966C270.56,28.276,278.353,28.617,286.079,28.928z"/>
		<path fill="#FFFFFF" d="M443.717,55.473c0.678,0.071,1.371,0.142,2.078,0.209c17.609,0.927,35.532,1.931,53.606,2.958
			c24.966,0.726,51.046,1.693,77.666,2.916C528.864,58.761,481.175,56.026,443.717,55.473z"/>
		<path fill="#FFFFFF" d="M596.945,80.59c5.57,0.4,16.669,1.198,22.267,1.6c3.413-0.113,6.787-0.224,10.2-0.33
			c-5.206-0.404-10.469-0.82-15.713-1.242L596.945,80.59z"/>
		<path fill="#FFFFFF" d="M926.076,94.728c-98.791-4.807-191.423-9.059-283.234-13.241c-4.476,0.104-8.966,0.231-13.431,0.373
			c61.475,4.777,122.697,8.425,179.318,9.242c11.156,0.213,28.004-0.341,39.115,0.458c52.72,3.23,103.008,4.975,153.158,6.882
			c-23.952-1.223-48.143-2.43-72.867-3.61C927.441,94.793,926.771,94.763,926.076,94.728z"/>
	</g>
	<polygon fill="#FFFFFF" points="0,9.429 0,0 1920,0 1920,129.304 	"/>
</g>
</svg>
