<?xml version="1.0" encoding="utf-8"?>
<!-- Generator: Adobe Illustrator 17.0.0, SVG Export Plug-In . SVG Version: 6.00 Build 0)  -->
<!DOCTYPE svg PUBLIC "-//W3C//DTD SVG 1.1//EN" "http://www.w3.org/Graphics/SVG/1.1/DTD/svg11.dtd">
<svg version="1.1" id="Слой_1" xmlns="http://www.w3.org/2000/svg" xmlns:xlink="http://www.w3.org/1999/xlink" x="0px" y="0px"
	 width="277.238px" height="318.203px" viewBox="0 0 277.238 318.203" enable-background="new 0 0 277.238 318.203"
	 xml:space="preserve">
<g>
	<g>
		<path fill="#CF0000" d="M151.252,318.203H0v-88.76c0-28.81,11.253-53.451,33.447-73.242c4.801-4.203,10.943-8.526,18.265-12.86
			c7.407-4.38,11.879-6.945,13.672-7.842c9.575-5.223,15.922-9.053,18.822-11.36c9.708-9.449,14.63-20.453,14.63-32.708V78.075
			c0-10.474-2.073-17.582-6.161-21.127l-0.078-0.073c-3.253-3.253-9.038-4.903-17.192-4.903c-7.887,0-13.686,1.664-17.235,4.944
			c-4.109,3.84-6.196,10.96-6.196,21.159v28.657H0V78.075c0-25.549,7.652-45.543,22.745-59.426C36.023,6.277,53.742,0,75.404,0
			c21.654,0,39.374,6.276,52.666,18.655c15.086,13.883,22.738,33.877,22.738,59.419v13.356c0,13.801-2.893,27.044-8.598,39.363
			c-5.703,12.305-14.064,23.404-24.851,32.99c-5.093,4.49-9.879,8.135-14.229,10.838c-4.326,2.684-9.394,5.407-15.063,8.095
			c-3.447,1.725-7.097,3.661-10.818,5.742c-3.586,2.008-7.014,4.487-10.186,7.369c-10.012,9.154-15.091,20.465-15.091,33.615v36.787
			h99.28V318.203z M3,315.203h145.252V269.23h-99.28v-39.787c0-14.027,5.407-26.083,16.07-35.833
			c3.344-3.037,6.957-5.65,10.742-7.77c3.762-2.104,7.452-4.062,10.969-5.821c5.597-2.653,10.565-5.322,14.794-7.946
			c4.208-2.614,8.859-6.159,13.823-10.535c10.473-9.307,18.588-20.077,24.117-32.005c5.521-11.92,8.32-24.739,8.32-38.102V78.075
			c0-24.669-7.327-43.92-21.776-57.218C113.306,9.006,96.275,3,75.404,3C54.526,3,37.495,9.006,24.783,20.851
			C10.327,34.148,3,53.399,3,78.075v25.657h45.972V78.075c0-11.063,2.407-18.921,7.154-23.356
			c4.127-3.814,10.611-5.746,19.277-5.746c8.95,0,15.435,1.932,19.276,5.744c4.814,4.207,7.155,11.848,7.155,23.358v13.356
			c0,13.119-5.246,24.865-15.592,34.911l-0.107,0.095c-3.054,2.446-9.387,6.28-19.363,11.721c-1.777,0.89-6.188,3.421-13.533,7.765
			c-7.163,4.239-13.154,8.454-17.806,12.526C13.916,177.636,3,201.526,3,229.443V315.203z"/>
	</g>
	<g>
		<path fill="#CF0000" d="M277.238,318.203h-51.972V93.935l-49.862,45.411V68.954L247.11,3.562h30.128V318.203z M228.267,315.203
			h45.972V6.562h-25.966l-69.868,63.716v62.278l49.862-45.411V315.203z"/>
	</g>
</g>
</svg>
