<?xml version="1.0" encoding="utf-8"?>
<!-- Generator: Adobe Illustrator 17.0.0, SVG Export Plug-In . SVG Version: 6.00 Build 0)  -->
<!DOCTYPE svg PUBLIC "-//W3C//DTD SVG 1.1//EN" "http://www.w3.org/Graphics/SVG/1.1/DTD/svg11.dtd">
<svg version="1.1" id="Слой_1" xmlns="http://www.w3.org/2000/svg" xmlns:xlink="http://www.w3.org/1999/xlink" x="0px" y="0px"
	 width="460.615px" height="274.238px" viewBox="0 0 460.615 274.238" enable-background="new 0 0 460.615 274.238"
	 xml:space="preserve">
<g>
	<g>
		<path fill="#CF0000" d="M136.725,271.208h-44.67v-40.913H0v-25.316l0.138-0.299L92.972,3.031h43.752v182.593h10.986v44.671
			h-10.986V271.208z M95.054,268.208h38.67v-40.913h10.986v-38.671h-10.986V6.031H94.894L3,205.636v21.658h92.054V268.208z
			 M95.054,188.624H53.459L95.054,84.221V188.624z M57.884,185.624h34.17V99.857L57.884,185.624z"/>
	</g>
	<g>
		<path fill="#CF0000" d="M232.201,274.238c-18.497,0-33.626-5.361-44.967-15.935c-12.89-12.371-19.418-29.431-19.418-50.723V66.658
			c0-21.292,6.528-38.352,19.402-50.708C198.582,5.361,213.71,0,232.201,0c18.484,0,33.613,5.361,44.966,15.934
			c12.891,12.377,19.419,29.438,19.419,50.724V207.58c0,21.286-6.528,38.346-19.402,50.708
			C265.82,268.877,250.691,274.238,232.201,274.238z M232.201,3c-17.707,0-32.147,5.09-42.921,15.129
			c-12.246,11.753-18.463,28.085-18.463,48.529V207.58c0,20.443,6.217,36.776,18.479,48.544
			c10.752,10.024,25.192,15.114,42.905,15.114c17.707,0,32.148-5.09,42.921-15.129c12.246-11.759,18.464-28.091,18.464-48.529
			V66.658c0-20.437-6.218-36.77-18.48-48.544C264.343,8.09,249.902,3,232.201,3z M232.201,232.567c-7.432,0-13-1.664-16.55-4.944
			c-4.092-3.817-6.165-10.559-6.165-20.043V66.658c0-9.478,2.072-16.219,6.159-20.037c3.556-3.286,9.124-4.95,16.556-4.95
			c7.672,0,13.241,1.665,16.554,4.947c4.145,3.625,6.16,10.181,6.16,20.04V207.58c0,9.865-2.015,16.421-6.16,20.04
			C245.442,230.903,239.873,232.567,232.201,232.567z M232.201,44.671c-6.652,0-11.536,1.396-14.514,4.147
			c-3.449,3.222-5.201,9.226-5.201,17.84V207.58c0,8.619,1.751,14.622,5.206,17.844c2.973,2.747,7.856,4.143,14.509,4.143
			c6.877,0,11.746-1.382,14.471-4.106l0.079-0.073c3.427-2.966,5.164-8.957,5.164-17.807V66.658c0-8.844-1.738-14.836-5.165-17.808
			l-0.078-0.073C243.947,46.052,239.078,44.671,232.201,44.671z"/>
	</g>
	<g>
		<path fill="#CF0000" d="M449.629,271.208h-44.67v-40.913h-92.054v-25.316l0.138-0.299l92.834-201.65h43.752v182.593h10.986v44.671
			h-10.986V271.208z M407.959,268.208h38.67v-40.913h10.986v-38.671h-10.986V6.031h-38.831l-91.894,199.605v21.658h92.054V268.208z
			 M407.959,188.624h-41.595l41.595-104.403V188.624z M370.789,185.624h34.17V99.857L370.789,185.624z"/>
	</g>
</g>
</svg>
