<?xml version="1.0" encoding="utf-8"?>
<!-- Generator: Adobe Illustrator 17.0.0, SVG Export Plug-In . SVG Version: 6.00 Build 0)  -->
<!DOCTYPE svg PUBLIC "-//W3C//DTD SVG 1.1//EN" "http://www.w3.org/Graphics/SVG/1.1/DTD/svg11.dtd">
<svg version="1.1" id="Слой_1" xmlns="http://www.w3.org/2000/svg" xmlns:xlink="http://www.w3.org/1999/xlink" x="0px" y="0px"
	 width="401.467px" height="92.331px" viewBox="0 0 401.467 92.331" enable-background="new 0 0 401.467 92.331"
	 xml:space="preserve">
<g>
	<g>
		<path fill="#720034" d="M261.056,12.678c-0.23,0-0.457,0.009-0.676,0.025c-1.819,0.137-3.401,0.811-4.651,1.951
			c-1.792-0.75-3.68-1.133-5.627-1.133c-0.363,0-0.733,0.014-1.109,0.042c-4.456,0.336-8.073,2.796-10.991,6.37
			c-1.915-3.011-5.1-4.876-8.45-4.876c-0.231,0-0.464,0.009-0.697,0.026c-2.976,0.225-5.945,1.809-9.422,5.307
			c-1.284-1.87-3.824-3.573-8.818-3.573c-0.393,0-0.813,0.009-1.263,0.027l-0.598,0.024c1.371-1.974,2.783-4.624,2.783-7.173
			c0-4.181-3.253-8.399-10.522-8.399c-0.515,0-0.975,0.021-1.339,0.049l-5.086,0.411l-0.441,5.08
			c-0.002,0.031-0.287,3.171-1.74,7.82l-0.866,2.773l-2.325,0.094v3.056c-1.705-1.291-3.745-2.034-5.851-2.034
			c-0.231,0-0.464,0.009-0.697,0.026c-1.977,0.149-3.951,0.899-6.072,2.41c1.884-6.532,2.347-8.304,2.347-9.821
			c0-1.486-0.494-8.901-10.243-8.901c-0.609,0-1.273,0.027-1.974,0.08l-4.845,0.366l-0.65,4.815
			c-0.125,0.928-0.616,2.745-0.879,3.721l-0.179,0.666c-0.684,2.542-1.546,5.768-2.488,9.351c-1.375-1.078-3.181-1.772-5.556-1.772
			c-0.271,0-0.552,0.01-0.843,0.032c-3.725,0.281-7.737,2.115-11.186,4.839l-2.244-1.755c-1.083-0.847-3.357-2.269-6.417-2.269
			c-0.237,0-0.478,0.009-0.72,0.027c-2.889,0.218-4.81,1.596-6.111,3.311c-0.073,0.004-0.147,0.009-0.223,0.014
			c-3.478,0.263-6.934,1.908-10.068,4.491c-1.264-1.916-3.811-3.694-8.946-3.694c-0.395,0-0.818,0.009-1.27,0.027l-3.913,0.158
			l-1.43,3.646c-0.049,0.123-0.116,0.261-0.201,0.413c-0.634-0.686-1.493-1.308-2.611-1.799c1.793-3.756,4.028-7.782,4.983-9.142
			l2.804-3.991l-3.334-3.56c-1.454-1.552-4.413-3.223-7.473-3.223c-0.213,0-0.423,0.008-0.631,0.024
			c-2.48,0.187-4.536,1.298-6.149,3.316c-0.107,0.005-0.216,0.011-0.327,0.02c-6.457,0.488-12.606,6.724-16.648,16.546
			c-1.238-0.735-3.038-1.485-5.261-1.485c-0.237,0-0.478,0.009-0.721,0.027c-2.889,0.219-4.809,1.596-6.111,3.311
			c-0.073,0.004-0.147,0.009-0.223,0.014c-2.193,0.166-4.378,0.881-6.479,2.033c0.219-1.206,0.337-2.4,0.337-3.567
			c0-5.82-3.415-12.04-13-12.04c-0.593,0-1.215,0.024-1.85,0.072c-2.54,0.192-5.792,0.638-9.235,1.11
			c-3.522,0.483-7.165,0.983-9.98,1.195c-0.177,0.013-0.336,0.024-0.479,0.033l-5.393-3.172l-2.036,7.625
			c-0.098,0.366-0.417,1.683-0.417,3.272c0,1.909,0.432,3.506,1.321,4.88c0.323,0.499,0.697,0.95,1.114,1.349
			C0,69.22,0,71.296,0,73.302c0,4.728,3.496,8.159,8.313,8.159c0.274,0,0.556-0.01,0.843-0.032c3.3-0.249,5.734-1.597,6.892-2.379
			l2.642-1.784v-3.188c0-1.003,0.24-2.564,0.889-5.603c2.929,7.642,6.292,11.196,11.562,11.196c0.238,0,0.478-0.009,0.718-0.027
			c2.889-0.218,5.85-1.778,8.45-4.41c2.433,1.75,5.434,2.702,8.755,2.702c0.467,0,0.947-0.018,1.439-0.055
			c2.175-0.164,4.058-0.71,5.695-1.512c-0.772,3.704-1.261,6.527-1.261,7.73c0,2.991,1.397,5.526,3.833,6.956
			c1.929,1.132,3.994,1.277,5.576,1.277c0.976,0,2.027-0.064,3.306-0.161l4.685-0.354l0.78-4.633
			c1.025-6.088,1.94-11.223,2.814-15.805c0.643,1.133,1.465,1.891,2.074,2.331c1.983,1.433,4.231,1.598,5.75,1.598
			c0.519,0,1.103-0.023,1.758-0.072l3.797-0.287l1.357-3.559C93,65.27,95.498,59.72,98.045,54.954
			c0.975,0.557,2.141,0.949,3.504,1.112c0.019,4.542,1.201,8.507,3.428,11.469c2.602,3.462,6.448,5.369,10.828,5.369
			c0.379,0,0.767-0.014,1.159-0.044c4.168-0.315,7.571-1.782,10.578-4.275c0.426,0.341,0.888,0.653,1.384,0.935
			c2.081,1.182,4.693,1.781,7.765,1.78c0.618,0,1.26-0.025,1.908-0.074c4.383-0.331,8.315-1.862,11.46-4.203
			c1.271,1.62,3.36,2.785,6.543,2.785c0.534,0,1.121-0.026,1.849-0.081l3.615-0.273l1.439-3.328
			c1.115-2.577,2.292-5.108,3.511-7.561c-0.001,0.092-0.001,0.184-0.001,0.273c0,2.49,0.833,4.819,2.348,6.556
			c1.685,1.935,4.141,3.044,6.737,3.043c0.234,0,0.472-0.009,0.712-0.027c1.732-0.131,4.26-0.91,6.951-3.695
			c1.675,1.665,3.936,2.576,6.498,2.576c0.276,0,0.561-0.01,0.854-0.032c2.455-0.186,4.591-1.408,6.432-3.205
			c1.952,1.331,4.178,1.509,5.741,1.509c0.569,0,1.174-0.024,1.847-0.075l3.645-0.275l1.427-3.365
			c0.97-2.285,1.971-4.504,2.995-6.644c0,0.049,0,0.097,0,0.145c0,5.473,3.905,9.6,9.084,9.6c0.234,0,0.472-0.009,0.713-0.027
			c0.52-0.039,1.024-0.127,1.516-0.253l-5.127,4.872l3.604,4.319c1.037,1.243,6.604,7.44,14.421,7.44c0.363,0,0.73-0.014,1.1-0.042
			c16.664-1.259,21.2-19.517,26.943-42.634c1.379-5.548,2.804-11.285,4.497-17.281l1.123-3.979l-3.317-2.467
			C265.94,13.55,263.311,12.678,261.056,12.678z M27.162,39.825c0.766-2.719,2.474-8.758,2.474-8.758
			c0.455-0.062,0.944-0.12,1.466-0.173C30.751,34.352,29.117,37.54,27.162,39.825z M35.047,52.805
			c-0.243,0.993-0.444,1.996-0.604,3.004c-0.325-0.641-0.649-1.301-0.972-1.992C34.004,53.499,34.528,53.156,35.047,52.805z
			 M52.101,60.722c0.042-0.442,0.094-0.889,0.158-1.34c0.279,0.024,0.561,0.041,0.843,0.052
			C52.777,59.904,52.439,60.334,52.101,60.722z M119.762,54.89c0.025-0.198,0.051-0.396,0.08-0.595
			c0.135,0.01,0.271,0.019,0.407,0.027C120.084,54.518,119.922,54.707,119.762,54.89z M152.05,37.474
			c0.304-0.023,0.603-0.035,0.891-0.035c0.229,0,0.426,0.009,0.594,0.021c-0.354,1.428-0.703,2.846-1.04,4.24
			c-0.877-0.905-1.768-1.725-2.583-2.474c-0.35-0.322-0.766-0.704-1.166-1.086C149.648,37.836,150.796,37.568,152.05,37.474z
			 M236.149,66.768c-0.971,0-3.054-1.058-4.242-1.983l-3.087-2.462c0.252-0.217,0.497-0.448,0.738-0.685
			c0.239,0.213,0.471,0.404,0.677,0.551c1.542,1.095,3.41,1.628,5.713,1.628c0.663,0,1.307-0.042,1.849-0.083l1.073-0.081
			C237.229,66.48,236.188,66.766,236.149,66.768z"/>
		<path fill="#720034" d="M398.171,2.942c-1.083-0.847-3.357-2.269-6.418-2.269c-0.237,0-0.478,0.009-0.721,0.027
			c-2.889,0.218-4.809,1.596-6.11,3.311c-0.073,0.004-0.147,0.009-0.224,0.014c-3.431,0.259-6.841,1.865-9.942,4.388
			c-0.829-0.833-1.866-1.456-3.057-1.776C371.319,4.187,369.521,0,361.69,0c-0.393,0-0.813,0.009-1.263,0.027L354.67,0.26v5.549
			c-0.086,0.505-0.37,1.505-0.691,2.562c-0.005,0-0.048,0-0.107,0c-1.467-2.043-3.73-3.572-7.253-3.572
			c-0.271,0-0.553,0.01-0.843,0.032c-5.01,0.378-10.598,3.634-14.604,8.09l-1.937-1.79c-2.087-1.931-4.806-3.038-7.458-3.038
			c-0.234,0-0.467,0.009-0.696,0.026c-1.828,0.138-3.418,0.818-4.671,1.969c-1.641-0.69-3.529-1.15-5.647-1.15
			c-0.352,0-0.708,0.013-1.069,0.041c-3.517,0.266-6.503,1.866-9.043,4.28c-0.666-0.484-1.416-0.862-2.248-1.085
			c-0.38-2.451-2.179-6.638-10.009-6.638c-0.393,0-0.813,0.009-1.263,0.027l-5.758,0.233v5.549c-0.086,0.505-0.37,1.505-0.691,2.562
			c-0.054,0-3.378-0.024-3.378-0.024l-1.802,2.66c-0.519,0.765-1.388,2.436-1.388,5.028c0,2.07,0.735,3.995,2.071,5.42
			c0.168,0.18,0.346,0.351,0.53,0.512c-3.333,11.775-5.021,18.703-5.021,22.361c0,2.777,0.625,5,1.909,6.794
			c1.003,1.4,3.342,3.75,7.748,3.749c0.317,0,0.649-0.012,0.994-0.038c2.805-0.212,5.244-1.743,7.325-3.905
			c0.447,0.491,0.893,0.875,1.267,1.14c1.542,1.095,3.41,1.628,5.713,1.628c0.663,0,1.307-0.042,1.849-0.083l2.343-0.177l1.599-1.72
			c1.292-1.389,2.593-2.915,3.872-4.509c0.249,0.615,0.557,1.186,0.923,1.716c1.559,2.253,4.104,3.545,6.981,3.545
			c0.256,0,0.521-0.01,0.793-0.03c1.471-0.111,3.585-0.271,7.133-3.989c0.395,0.306,0.818,0.589,1.271,0.846
			c2.081,1.182,4.693,1.781,7.765,1.781c0.618,0,1.261-0.025,1.909-0.074c5.379-0.406,10.098-2.601,13.489-5.913
			c0.105,0.168,0.209,0.338,0.324,0.499c1.003,1.4,3.342,3.75,7.748,3.749c0.317,0,0.649-0.012,0.994-0.038
			c3.996-0.302,7.251-3.275,9.781-6.949c0.023,0.029,0.043,0.062,0.066,0.091c2.697,3.353,6.751,5.199,11.415,5.199
			c0.468,0,0.948-0.018,1.439-0.055c11.978-0.904,15.188-13.262,16.244-17.323l1.301-5.009l-3.204-1.361
			c2.674-3.497,4.077-8.348,5.524-13.352c0.6-2.072,1.219-4.213,1.977-6.57l1.281-3.984L398.171,2.942z M343.233,23.45
			c0.901-0.302,2.051-0.57,3.304-0.665c0.305-0.023,0.604-0.035,0.893-0.035c0.636,0,0.966,0.059,1.052,0.077l1.217,0.256
			c-0.533,1.893-1.023,3.663-1.466,5.301c-1.25-1.47-2.625-2.736-3.833-3.848C344.049,24.215,343.634,23.832,343.233,23.45z
			 M379.942,35.962c0.041-0.442,0.094-0.889,0.158-1.34c0.279,0.024,0.561,0.041,0.843,0.052
			C380.618,35.143,380.28,35.573,379.942,35.962z"/>
	</g>
	<g>
		<path fill="#FFFFFF" d="M9.69,71.078c-0.711,0.48-2.135,1.229-3.985,1.368C4.139,72.565,3,72.01,3,70.302
			c0-1.494,0.783-6.037,11.031-41.825c0.783-2.763,0.854-2.84,2.775-4.124l-0.143-0.416c-1.921,0.501-1.708,0.627-3.131,0.735
			c-1.851,0.14-2.207-1.043-2.207-2.324c0-0.925,0.213-1.724,0.213-1.724s0.214,0.126,2.562-0.051
			c5.764-0.435,14.304-1.934,19.215-2.305s8.397,1.074,8.397,5.984c0,8.397-9.038,20.396-19.001,23.568
			c3.416,9.136,7.971,15.909,10.96,19.526c-1.993,2.286-3.915,3.213-5.267,3.315c-3.345,0.253-6.333-4.076-11.173-25.132
			l1.068-0.721l2.277,1.322c6.832-1.512,13.593-10.492,13.593-19.601c0-3.416-1.993-4.974-5.409-4.716
			c-2.704,0.204-5.267,0.611-6.903,1.091c-2.063,7.344-8.825,30.983-10.248,37.283C10.117,66.705,9.69,69.157,9.69,71.078z"/>
		<path fill="#FFFFFF" d="M44.773,49.285c-1.139,3.502-1.779,7.251-1.779,10.667c0,2.633,0.356,6.52,3.558,6.279
			c3.061-0.231,8.256-4.324,10.675-10.485l0.711,0.302c-1.565,6.025-4.199,12.344-10.888,12.849
			c-6.547,0.494-10.035-3.868-10.035-10.842c0-12.952,9.607-25.705,17.293-26.286c1.281-0.097,1.851,0.43,2.349,1.958l0.569-0.043
			c0.854-3.623,1.637-5.105,3.416-5.24c1.352-0.102,2.491,0.595,2.989,0.984c-4.127,12.837-4.555,20.413-12.24,20.993
			C49.256,50.583,46.766,49.917,44.773,49.285z M45.271,47.752c1.495,0.528,3.416,1.023,4.982,0.905
			c4.056-0.306,4.981-5.358,6.618-13.381c-0.142-0.132-0.569-0.384-1.21-0.336C51.747,35.236,47.69,40.951,45.271,47.752z"/>
		<path fill="#FFFFFF" d="M93.021,11.338c-1.637,2.33-6.049,10.491-7.757,15.318l-0.925-0.357c0.356-3.656,0.711-6.957,1.281-9.562
			c-0.213-0.126-0.498-0.247-0.996-0.209c-3.914,0.296-8.113,7.729-9.679,16.032c2.277-0.386,4.27-0.75,6.049-0.884
			c0.925-0.07,1.352,0.254,1.352,1.037c0,0.498-0.143,1.648-0.143,1.648c-2.063,0.298-5.124,0.956-8.042,1.604
			c-4.128,16.111-6.334,25.671-9.963,47.225c-4.057,0.306-6.263,0.33-6.263-2.089c0-2.989,5.693-26.833,10.248-43.83
			c-0.498,0.109-0.997,0.147-1.281,0.168c-1.921,0.145-2.491-1.093-2.491-2.161c0-1.139,0.356-1.664,0.356-1.664
			c0.854,0.007,1.708-0.058,2.562-0.122l1.921-0.145l0.925-2.846c3.487-11.294,9.038-16.837,13.095-17.144
			c1.281-0.097,1.85,0.43,2.348,1.958l0.356-0.027c0.854-3.196,1.993-5.132,3.772-5.267C90.958,9.928,92.523,10.806,93.021,11.338z"
			/>
		<path fill="#FFFFFF" d="M98.784,35.598c-5.48,6.178-11.387,16.659-16.724,30.655c-3.273,0.247-4.128-0.329-4.128-1.823
			c0-3.701,4.84-21.146,7.401-30.947c0.569-2.249,0.925-3.7,0.925-4.554c4.057-0.164,5.195,0.604,5.195,1.814
			c0,1.85-1.281,5.719-4.697,19.072l0.427,0.11c9.394-16.865,12.81-18.973,14.162-22.42c4.057-0.164,5.195,0.604,5.195,1.814
			c0,2.277-3.06,8.771-5.765,17.8c-2.562,0.193-3.629-0.509-3.629-2.003c0-2.135,0.997-6.196,1.921-9.326L98.784,35.598z"/>
		<path fill="#FFFFFF" d="M148.741,22.502c3.06-0.231,3.843,2.201,4.199,5.661l-0.712,0.481c-0.996-0.209-2.277-0.255-3.629-0.153
			c-4.555,0.344-10.177,2.477-10.177,5.964c0,4.626,10.177,8.483,10.177,15.031c0,6.263-5.337,12.146-13.451,12.758
			c-4.697,0.355-8.113-0.953-8.113-3.942c0-1.922,1.566-3.677,3.629-3.832c0.641,3.154,3.131,5.457,6.547,5.199
			c2.918-0.22,5.836-2.86,5.836-6.419c0-4.768-7.259-8.988-8.611-14.437c-8.327,17.282-12.81,24.453-20.923,25.065
			c-5.479,0.414-8.967-3.949-8.967-10.923c0-12.952,9.607-25.705,17.293-26.286c1.281-0.097,1.851,0.43,2.349,1.958l0.569-0.043
			c0.854-3.623,1.637-5.105,3.416-5.24c1.352-0.102,2.491,0.595,2.989,0.984c-4.127,12.837-4.555,20.413-12.24,20.993
			c-2.135,0.161-4.626-0.433-6.619-1.137c-1.139,3.715-1.779,7.678-1.779,11.45c0,3.131,0.356,5.88,3.06,5.676
			c6.121-0.462,16.511-16.548,21.421-27.878C137.211,27.999,143.759,22.878,148.741,22.502z M112.801,42.723
			c1.566,0.522,3.416,0.952,4.982,0.834c4.056-0.306,4.981-5.358,6.618-13.381c-0.142-0.132-0.569-0.384-1.21-0.336
			C119.349,30.131,115.292,35.703,112.801,42.723z"/>
		<path fill="#FFFFFF" d="M151.441,59.091c0-4.626,7.188-32.497,11.529-48.624c0.285-1.089,0.997-3.563,1.21-5.144
			c4.341-0.328,5.765,0.632,5.765,2.838c0,1.851-4.697,15.94-10.035,36.911l0.285,0.05c9.038-14.703,15.728-23.25,19.927-23.567
			c1.566-0.118,2.989,0.913,3.772,2.277c-3.345,7.298-8.255,23.753-8.255,31.652c2.775-2.914,6.12-9.999,6.12-9.999l0.712,0.302
			c0,0-4.199,13.269-9.109,13.64c-1.921,0.145-3.345-1.313-3.345-3.59c0-5.409,2.491-18.976,6.334-29.016l-0.214-0.055
			c-6.547,6.401-14.518,18.675-21.137,33.977C152.082,60.965,151.441,60.657,151.441,59.091z"/>
		<path fill="#FFFFFF" d="M196.202,43.613l0.712,0.302c0,0-4.27,13.987-9.252,14.363c-2.562,0.193-3.771-1.423-3.771-4.27
			c0-5.764,4.91-21.294,7.259-29.157c0.641-2.254,1.067-3.995,1.067-4.564c4.057-0.164,5.124,0.609,5.124,1.819
			c0,2.633-7.116,23.453-7.686,32.321C189.655,54.426,192.502,51.507,196.202,43.613z M202.536,6.697
			c0,1.85-3.701,7.183-5.765,7.338c-0.498,0.038-0.925-0.072-1.637-0.588c1.708-5.466,1.993-9.118,1.993-9.118
			C198.622,4.217,202.536,4.277,202.536,6.697z"/>
		<path fill="#FFFFFF" d="M222.32,23.279c-6.689,6.341-14.091,17.789-20.639,33.228c-3.985,0.301-4.341-0.597-4.341-1.807
			c0-3.274,5.267-20.467,8.184-30.295c0.641-2.255,1.068-3.995,1.068-4.564c4.056-0.164,5.124,0.609,5.124,1.819
			c0,1.708-1.495,5.877-5.552,19.919l0.214,0.055c9.038-14.703,15.728-23.25,19.927-23.567c1.565-0.118,2.989,0.913,3.771,2.277
			c-3.345,7.298-8.255,23.753-8.255,31.652c2.775-2.914,6.12-9.999,6.12-9.999l0.712,0.302c0,0-4.199,13.269-9.109,13.64
			c-1.922,0.145-3.345-1.313-3.345-3.59c0-5.409,2.49-18.976,6.334-29.016L222.32,23.279z"/>
		<path fill="#FFFFFF" d="M235.058,72.276c-5.337,0.403-9.679-4.322-10.461-5.259l0.569-0.541c0,0,4.483,3.575,8.469,3.274
			c9.75-0.736,13.593-24.298,18.219-39.166l-0.285-0.05c0,0-8.967,15.338-17.223,24.217c-2.348,0.177-4.555,0.202-4.555-2.716
			c0-7.045,5.195-34.624,16.653-35.489c3.985-0.301,6.761,2.194,8.185,3.794c0.569-1.11,1.067-2.216,1.565-3.392
			c0.427-0.957,0.925-1.209,1.637-1.262c1.067-0.081,2.562,0.447,3.345,1.028C252.778,46.456,250.572,71.104,235.058,72.276z
			 M235.698,48.885l0.214,0.055c7.971-8.573,13.236-17.226,17.862-26.756c-0.854-0.647-2.562-2.511-5.622-2.28
			C239.612,20.549,235.698,48.885,235.698,48.885z"/>
		<path fill="#FFFFFF" d="M288.287,15.663c1.922-0.359,3.63-0.63,4.981-0.732c0.854-0.065,1.21,0.264,1.21,1.047
			c0,0.498-0.143,1.505-0.143,1.505c-1.708,0.271-4.27,0.821-6.902,1.446c-1.922,7.191-6.832,22.863-6.832,27.275
			c0,0.712,0.213,1.123,0.569,1.38c2.917-2.498,6.832-10.123,6.832-10.123l0.711,0.302c0,0-4.768,13.241-9.82,13.623
			c-3.203,0.242-4.199-1.604-4.199-4.522c0-3.843,3.202-15.258,6.477-26.608c-0.641,0.12-1.21,0.163-1.566,0.19
			c-1.921,0.145-2.49-0.808-2.49-1.876c0-1.139,0.355-1.664,0.355-1.664c0.854,0.007,1.708-0.058,2.562-0.122l2.135-0.161
			c0.925-2.917,2.206-6.714,2.206-8.066c4.057-0.164,5.124,0.609,5.124,1.819C289.497,10.946,288.999,12.905,288.287,15.663z"/>
		<path fill="#FFFFFF" d="M318.532,11.102c1.21-0.091,2.634,0.513,3.63,1.434c-2.989,10.189-7.828,26.994-7.828,31.834
			c2.847-3.275,10.532-14.602,15.158-25.626c2.277-5.439,8.754-10.553,13.735-10.93c3.06-0.231,3.843,2.201,4.198,5.661
			l-0.711,0.481c-0.997-0.209-2.277-0.255-3.63-0.153c-4.555,0.344-10.177,2.477-10.177,5.964c0,4.626,10.177,8.483,10.177,15.031
			c0,6.263-5.338,12.146-13.45,12.758c-4.697,0.355-8.113-0.953-8.113-3.942c0-1.922,1.565-3.677,3.63-3.833
			c0.64,3.154,3.131,5.457,6.547,5.199c2.918-0.22,5.836-2.86,5.836-6.419c0-4.768-7.259-8.988-8.611-14.437
			c-4.057,7.992-13.166,24.551-17.365,24.868c-2.063,0.156-3.06-1.05-3.06-3.968c0-3.274,1.352-11.418,3.985-19.018l-0.214-0.055
			c0,0-8.967,15.338-17.223,24.217c-2.348,0.177-4.555,0.202-4.555-2.716c0-7.045,5.195-34.624,16.653-35.489
			c3.843-0.29,6.761,2.194,8.185,3.794c0.569-1.11,1.067-2.216,1.565-3.392C317.322,11.407,317.82,11.156,318.532,11.102z
			 M314.476,17.6c-0.854-0.79-2.633-2.506-5.622-2.28c-8.54,0.645-12.454,28.981-12.454,28.981l0.214,0.055
			C304.584,35.783,309.85,27.059,314.476,17.6z"/>
		<path fill="#FFFFFF" d="M361.584,10.128c1.922-0.359,3.63-0.63,4.981-0.732c0.854-0.065,1.21,0.264,1.21,1.047
			c0,0.498-0.143,1.505-0.143,1.505c-1.708,0.271-4.27,0.821-6.902,1.446c-1.922,7.191-6.832,22.863-6.832,27.275
			c0,0.712,0.213,1.123,0.569,1.38c2.917-2.498,6.832-10.123,6.832-10.123l0.711,0.302c0,0-4.768,13.241-9.82,13.623
			c-3.203,0.242-4.199-1.604-4.199-4.522c0-3.843,3.202-15.258,6.477-26.608c-0.641,0.12-1.21,0.163-1.566,0.19
			c-1.921,0.145-2.49-0.808-2.49-1.876c0-1.139,0.355-1.664,0.355-1.664c0.854,0.007,1.708-0.058,2.562-0.122l2.135-0.161
			c0.925-2.917,2.206-6.714,2.206-8.066c4.057-0.164,5.124,0.609,5.124,1.819C362.794,5.411,362.296,7.37,361.584,10.128z"/>
		<path fill="#FFFFFF" d="M372.614,24.524c-1.139,3.502-1.779,7.251-1.779,10.667c0,2.633,0.356,6.52,3.559,6.279
			c3.061-0.231,8.255-4.324,10.675-10.485l0.712,0.302c-1.565,6.025-4.199,12.344-10.889,12.849
			c-6.547,0.494-10.034-3.868-10.034-10.843c0-12.952,9.607-25.705,17.293-26.286c1.281-0.097,1.851,0.43,2.349,1.958l0.569-0.043
			c0.854-3.623,1.637-5.105,3.416-5.24c1.353-0.102,2.491,0.595,2.989,0.984c-4.128,12.837-4.555,20.413-12.241,20.993
			C377.098,25.822,374.607,25.157,372.614,24.524z M373.112,22.992c1.495,0.528,3.416,1.023,4.981,0.905
			c4.057-0.306,4.982-5.358,6.619-13.381c-0.143-0.132-0.569-0.384-1.21-0.336C379.589,10.476,375.532,16.191,373.112,22.992z"/>
	</g>
</g>
</svg>
