<?xml version="1.0" encoding="utf-8"?>
<!-- Generator: Adobe Illustrator 17.0.0, SVG Export Plug-In . SVG Version: 6.00 Build 0)  -->
<!DOCTYPE svg PUBLIC "-//W3C//DTD SVG 1.1//EN" "http://www.w3.org/Graphics/SVG/1.1/DTD/svg11.dtd">
<svg version="1.1" id="Слой_1" xmlns="http://www.w3.org/2000/svg" xmlns:xlink="http://www.w3.org/1999/xlink" x="0px" y="0px"
	 width="640.531px" height="198.83px" viewBox="0 0 640.531 198.83" enable-background="new 0 0 640.531 198.83"
	 xml:space="preserve">
<g>
	<g>
		<path fill="#CF0000" d="M63.719,196.642H30.633V35.273H0V2.188h94.351v33.085H63.719V196.642z M33.633,193.642h27.086V32.273
			h30.632V5.188H3v27.085h30.633V193.642z"/>
	</g>
	<g>
		<path fill="#CF0000" d="M198.556,196.642h-33.085v-83.146h-27.633v83.146h-33.085V2.188h33.085v78.223h27.633V2.188h33.085
			V196.642z M168.471,193.642h27.085V5.188h-27.085v78.223h-33.633V5.188h-27.085v188.454h27.085v-83.146h33.633V193.642z"/>
	</g>
	<g>
		<path fill="#CF0000" d="M320.045,196.642h-33.716l-5.47-30.359h-31.954l-5.47,30.359h-33.716L248.609,2.188h32.545
			L320.045,196.642z M288.837,193.642h27.549L278.695,5.188h-27.627l-37.69,188.454h27.549l5.47-30.359h36.97L288.837,193.642z
			 M278.702,136.197h-27.64l13.82-78.837L278.702,136.197z M254.633,133.197h20.497l-10.249-58.462L254.633,133.197z"/>
	</g>
	<g>
		<path fill="#CF0000" d="M426.928,196.642h-19.954l-43.5-91.918v91.918h-33.085V2.188h19.952l0.407,0.857l43.094,90.805V2.188
			h33.086V196.642z M408.873,193.642h15.056V5.188h-27.086v101.98L348.445,5.188h-15.056v188.454h27.085V91.371L408.873,193.642z"/>
	</g>
	<g>
		<path fill="#CF0000" d="M544.392,196.642h-35.489l-22.311-58.795l-8.796,20.138v38.657h-33.085V2.188h33.085v71.883l30.88-71.883
			h35.802l-39.214,92.333L544.392,196.642z M510.973,193.642h29.058L502.03,94.463l0.236-0.558l37.679-88.717h-29.292
			l-35.856,83.467V5.188h-27.085v188.454h27.085v-36.284l11.991-27.452L510.973,193.642z"/>
	</g>
	<g>
		<path fill="#CF0000" d="M593.628,198.83c-13.464,0-24.482-3.908-32.749-11.616c-9.396-9.018-14.153-21.437-14.153-36.927v-26.389
			h33.086v26.389c0,6.103,1.22,10.335,3.626,12.579c2.066,1.908,5.497,2.879,10.19,2.879c4.85,0,8.266-0.957,10.153-2.843
			l0.079-0.073c2.378-2.059,3.584-6.278,3.584-12.542v-12.034c0-7.908-3.242-14.897-9.636-20.775
			c-0.92-0.802-3.64-2.677-11.204-6.906c-8.601-4.571-15.043-8.684-19.12-12.209c-6.711-5.963-11.895-12.847-15.423-20.471
			c-3.54-7.635-5.336-15.945-5.336-24.698v-4.649c0-15.49,4.757-27.909,14.137-36.912C569.152,3.908,580.169,0,593.628,0
			c13.454,0,24.473,3.908,32.749,11.616c9.397,9.023,14.153,21.442,14.153,36.927v18.184h-33.086V48.543
			c0-6.26-1.206-10.479-3.585-12.542l-0.078-0.072c-1.887-1.887-5.303-2.843-10.153-2.843c-4.694,0-8.125,0.97-10.196,2.884
			c-2.4,2.243-3.62,6.475-3.62,12.574v4.649c0,8.015,3.146,14.716,9.618,20.487c1.685,1.35,5.201,3.51,10.392,6.37
			c9.664,5.206,16.201,9.389,19.973,12.78c13.758,12.272,20.736,27.556,20.736,45.423v12.034c0,15.485-4.756,27.904-14.137,36.912
			C618.107,194.921,607.088,198.83,593.628,198.83z M549.726,126.898v23.389c0,14.642,4.446,26.332,13.215,34.748
			c7.678,7.158,18.008,10.795,30.688,10.795c12.676,0,23.006-3.637,30.704-10.811c8.752-8.404,13.198-20.096,13.198-34.732v-12.034
			c0-16.975-6.641-31.506-19.737-43.188c-3.547-3.189-10.075-7.353-19.406-12.381c-5.43-2.991-8.989-5.186-10.895-6.714
			c-7.107-6.335-10.681-13.981-10.681-22.777v-4.649c0-7.062,1.498-11.894,4.578-14.771c2.649-2.448,6.766-3.686,12.238-3.686
			c5.726,0,9.729,1.206,12.237,3.684c3.081,2.702,4.579,7.536,4.579,14.773v15.184h27.086V48.543
			c0-14.637-4.446-26.328-13.215-34.748C616.63,6.637,606.299,3,593.628,3c-12.675,0-23.005,3.637-30.704,10.811
			c-8.752,8.399-13.198,20.09-13.198,34.732v4.649c0,8.314,1.702,16.199,5.058,23.438c3.355,7.249,8.294,13.801,14.679,19.476
			c3.893,3.365,10.148,7.351,18.579,11.831c6.369,3.562,10.21,5.946,11.769,7.305c7.066,6.496,10.635,14.229,10.635,23.011v12.034
			c0,7.243-1.498,12.077-4.58,14.774c-2.508,2.479-6.512,3.684-12.236,3.684c-5.473,0-9.588-1.238-12.231-3.681
			c-3.087-2.879-4.585-7.712-4.585-14.777v-23.389H549.726z"/>
	</g>
</g>
</svg>
