<?xml version="1.0" encoding="utf-8"?>
<!-- Generator: Adobe Illustrator 17.0.0, SVG Export Plug-In . SVG Version: 6.00 Build 0)  -->
<!DOCTYPE svg PUBLIC "-//W3C//DTD SVG 1.1//EN" "http://www.w3.org/Graphics/SVG/1.1/DTD/svg11.dtd">
<svg version="1.1" id="Слой_1" xmlns="http://www.w3.org/2000/svg" xmlns:xlink="http://www.w3.org/1999/xlink" x="0px" y="0px"
	 width="147.839px" height="49.402px" viewBox="0 0 147.839 49.402" enable-background="new 0 0 147.839 49.402"
	 xml:space="preserve">
<g>
	<g>
		<path fill="#FFFFFF" d="M9.675,29.874c-1.122,0-2.24-0.189-3.295-0.59c-4.346-1.65-7.129-6.698-6.202-11.254
			c0.582-2.86,2.501-5.56,5.268-7.408c2.27-1.517,5.162-2.531,8.594-3.013c8.825-1.24,17.611,1.237,26.104,3.635
			c3.497,0.987,7.112,2.007,10.675,2.752c2.311,0.483,4.775,0.874,7.125,0.466c2.542-0.44,4.619-1.834,5.556-3.729
			c1.135-2.296,0.517-5.405-1.471-7.392c-1.81-1.809-4.631-2.72-7.553-2.441c-1.507,0.145-2.684,0.583-3.499,1.303
			c-1.175,1.037-1.638,2.796-1.126,4.278c0.512,1.481,1.962,2.579,3.526,2.67c0.234,0.014,0.413,0.215,0.399,0.449
			s-0.208,0.412-0.449,0.4c-1.898-0.111-3.659-1.444-4.28-3.242c-0.621-1.798-0.059-3.934,1.368-5.193
			c0.952-0.841,2.292-1.349,3.98-1.512c3.172-0.304,6.249,0.699,8.236,2.686c2.237,2.237,2.924,5.757,1.632,8.37
			c-1.058,2.138-3.365,3.704-6.173,4.19c-2.493,0.431-5.051,0.028-7.444-0.472c-3.592-0.75-7.222-1.775-10.732-2.766
			c-8.408-2.374-17.103-4.828-25.755-3.611c-3.305,0.465-6.077,1.433-8.24,2.878c-2.581,1.725-4.37,4.229-4.907,6.871
			c-0.847,4.165,1.697,8.781,5.671,10.289c3.974,1.508,8.94-0.257,11.07-3.935c0.118-0.203,0.377-0.273,0.581-0.155
			c0.204,0.118,0.273,0.378,0.155,0.581C16.723,28.027,13.18,29.874,9.675,29.874z"/>
	</g>
	<g>
		<g>
			<path fill="#FFFFFF" d="M34.482,49.063c0-0.166,0.091-0.248,0.256-0.272c0.884-0.092,1.396-0.694,1.396-1.644v-5.024
				c0-0.173,0.091-0.264,0.264-0.264h0.074c0.174,0,0.264,0.091,0.264,0.264v5.024c0,1.33-0.727,2.148-1.983,2.256
				c-0.174,0.008-0.273-0.091-0.273-0.265V49.063z"/>
		</g>
		<g>
			<path fill="#FFFFFF" d="M46.312,44.766c0,1.686-1.379,3.058-3.074,3.058c-1.693,0-3.074-1.372-3.074-3.058
				c0-1.619,1.38-2.991,3.074-2.991C44.933,41.775,46.312,43.147,46.312,44.766z M45.684,44.766c0-1.297-1.082-2.387-2.446-2.387
				s-2.446,1.09-2.446,2.387c0,1.364,1.082,2.454,2.446,2.454S45.684,46.13,45.684,44.766z"/>
		</g>
		<g>
			<path fill="#FFFFFF" d="M50.004,47.758c-0.174,0-0.265-0.091-0.265-0.264v-5.371c0-0.173,0.091-0.264,0.265-0.264h0.074
				c0.174,0,0.264,0.091,0.264,0.264v5.371c0,0.173-0.091,0.264-0.264,0.264H50.004z"/>
		</g>
		<g>
			<path fill="#FFFFFF" d="M54.407,47.758c-0.173,0-0.264-0.091-0.264-0.264v-5.371c0-0.173,0.091-0.264,0.264-0.264h0.265
				c0.14,0,0.231,0.05,0.313,0.165l3.578,4.908v-4.809c0-0.173,0.091-0.264,0.264-0.264h0.074c0.173,0,0.264,0.091,0.264,0.264
				v5.371c0,0.173-0.091,0.264-0.264,0.264h-0.265c-0.14,0-0.231-0.05-0.313-0.166l-3.578-4.907v4.809
				c0,0.173-0.091,0.264-0.264,0.264H54.407z"/>
		</g>
		<g>
			<path fill="#FFFFFF" d="M71.731,47.758c-0.173,0-0.264-0.091-0.264-0.264v-5.057h-1.735c-0.174,0-0.264-0.091-0.264-0.265v-0.05
				c0-0.173,0.091-0.264,0.264-0.264h4.065c0.174,0,0.264,0.091,0.264,0.264v0.05c0,0.174-0.091,0.265-0.264,0.265h-1.727v5.057
				c0,0.173-0.091,0.264-0.264,0.264H71.731z"/>
		</g>
		<g>
			<path fill="#FFFFFF" d="M77.547,47.758c-0.174,0-0.265-0.091-0.265-0.264v-5.371c0-0.173,0.091-0.264,0.265-0.264h0.074
				c0.174,0,0.264,0.091,0.264,0.264v2.165h3.429v-2.165c0-0.173,0.091-0.264,0.264-0.264h0.05c0.173,0,0.264,0.091,0.264,0.264
				v5.371c0,0.173-0.091,0.264-0.264,0.264h-0.05c-0.174,0-0.264-0.091-0.264-0.264v-2.628h-3.429v2.628
				c0,0.173-0.091,0.264-0.264,0.264H77.547z"/>
		</g>
		<g>
			<path fill="#FFFFFF" d="M85.956,47.758c-0.173,0-0.264-0.091-0.264-0.264v-5.371c0-0.173,0.091-0.264,0.264-0.264h2.892
				c0.174,0,0.264,0.091,0.264,0.264v0.05c0,0.174-0.091,0.265-0.264,0.265h-2.553v1.652h2.396c0.174,0,0.264,0.091,0.264,0.265
				v0.05c0,0.173-0.091,0.264-0.264,0.264h-2.396v2.512h2.553c0.174,0,0.264,0.091,0.264,0.265v0.05
				c0,0.173-0.091,0.264-0.264,0.264H85.956z"/>
		</g>
		<g>
			<path fill="#FFFFFF" d="M101.842,41.859c1.124,0,1.884,0.735,1.884,1.834c0,1.099-0.752,1.833-1.884,1.833h-1.33v1.967
				c0,0.173-0.091,0.264-0.264,0.264h-0.074c-0.174,0-0.265-0.091-0.265-0.264v-5.371c0-0.173,0.091-0.264,0.265-0.264H101.842z
				 M101.842,44.948c0.752,0,1.256-0.503,1.256-1.255c0-0.753-0.496-1.256-1.256-1.256h-1.33v2.511H101.842z"/>
		</g>
		<g>
			<path fill="#FFFFFF" d="M106.287,47.758c-0.198,0-0.272-0.123-0.19-0.306l2.421-5.394c0.066-0.133,0.157-0.198,0.306-0.198h0.223
				c0.149,0,0.24,0.065,0.306,0.198l2.421,5.394c0.083,0.183,0,0.306-0.198,0.306h-0.099c-0.148,0-0.24-0.066-0.306-0.198
				l-0.967-2.148h-2.536l-0.967,2.148c-0.066,0.132-0.157,0.198-0.306,0.198H106.287z M108.939,42.586l-1.016,2.247h2.024
				L108.939,42.586z"/>
		</g>
		<g>
			<path fill="#FFFFFF" d="M115.315,47.758c-0.173,0-0.264-0.091-0.264-0.264v-5.371c0-0.173,0.091-0.264,0.264-0.264h1.669
				c1.124,0,1.884,0.735,1.884,1.834c0,0.916-0.521,1.578-1.355,1.776l1.545,1.966c0.14,0.173,0.066,0.322-0.157,0.322h-0.19
				c-0.14,0-0.231-0.05-0.322-0.157l-1.636-2.074h-1.099v1.967c0,0.173-0.091,0.264-0.264,0.264H115.315z M116.985,44.948
				c0.752,0,1.256-0.503,1.256-1.255c0-0.753-0.496-1.256-1.256-1.256h-1.33v2.511H116.985z"/>
		</g>
		<g>
			<path fill="#FFFFFF" d="M124.056,47.758c-0.173,0-0.264-0.091-0.264-0.264v-5.057h-1.735c-0.174,0-0.264-0.091-0.264-0.265v-0.05
				c0-0.173,0.091-0.264,0.264-0.264h4.065c0.174,0,0.264,0.091,0.264,0.264v0.05c0,0.174-0.091,0.265-0.264,0.265h-1.727v5.057
				c0,0.173-0.091,0.264-0.264,0.264H124.056z"/>
		</g>
		<g>
			<path fill="#FFFFFF" d="M130.639,47.758c-0.198,0-0.264-0.132-0.182-0.313l0.694-1.413l-1.892-3.859
				c-0.083-0.182-0.008-0.313,0.198-0.313h0.091c0.149,0,0.248,0.058,0.306,0.19l1.628,3.322l1.628-3.322
				c0.058-0.132,0.157-0.19,0.306-0.19h0.091c0.207,0,0.281,0.132,0.19,0.313l-2.644,5.396c-0.058,0.132-0.157,0.19-0.306,0.19
				H130.639z"/>
		</g>
	</g>
	<g>
		<g>
			<path fill="#FFFFFF" d="M10.708,17.669h14.489v2.393l-0.173-0.188c-0.306-0.334-0.654-0.617-1.034-0.846
				c-0.047-0.028-0.093-0.058-0.136-0.08c-0.046-0.027-0.088-0.05-0.136-0.072c-0.032-0.018-0.047-0.026-0.063-0.033l-0.003-0.001
				l-0.036-0.017c-0.364-0.175-0.831-0.321-1.388-0.435c-0.672-0.133-1.436-0.203-2.21-0.203h-1.21l-0.003,16.578h-0.002v0.354
				c0,0.23,0.052,0.406,0.154,0.524c0.101,0.115,0.202,0.18,0.299,0.195l0.263,0.035v0.473h-3.111V35.86h0.099
				c0.042,0,0.096-0.006,0.175-0.022c0.023-0.005,0.103-0.038,0.268-0.202c0.115-0.116,0.174-0.291,0.174-0.517v-0.355h-0.001
				V18.189l-1.188,0.022c-0.33,0.006-0.644,0.022-0.936,0.047c-0.012,0-0.031,0.001-0.068,0.005
				c-0.32,0.031-0.629,0.069-0.922,0.116c0.005,0-0.017,0.006-0.045,0.006c-0.053,0.012-0.128,0.027-0.204,0.042l-0.078,0.016
				c-0.293,0.054-0.574,0.127-0.835,0.215l-0.178,0.059c-0.024,0.007-0.045,0.016-0.066,0.023c-0.694,0.24-1.28,0.553-1.744,0.934
				l-0.164,0.134L10.708,17.669z"/>
		</g>
		<g>
			<path fill="#FFFFFF" d="M28.327,17.669h3.109v0.482h-0.099c-0.176,0-0.31,0.056-0.411,0.169c-0.106,0.119-0.166,0.243-0.18,0.364
				L30.72,18.9l0.001,16.227c0,0.229,0.052,0.404,0.154,0.519c0.103,0.117,0.202,0.183,0.296,0.194l0.265,0.035v0.471h-3.109v-0.482
				h0.099c0.045,0,0.102-0.007,0.171-0.022c0.026-0.005,0.103-0.035,0.269-0.199c0.117-0.115,0.175-0.288,0.175-0.515V18.889
				c0-0.228-0.052-0.403-0.154-0.519c-0.102-0.116-0.202-0.18-0.296-0.194l-0.265-0.035V17.669z"/>
		</g>
		<g>
			<path fill="#FFFFFF" d="M46.863,22.765c0,2.419-1.672,5.003-6.365,5.003c-1.508,0-2.842-0.263-3.494-0.393v7.747
				c0,0.23,0.052,0.405,0.155,0.522c0.101,0.118,0.199,0.183,0.292,0.194l0.266,0.035v0.472h-3.135v-0.484h0.099
				c0.053,0,0.11-0.006,0.172-0.021c0.028-0.005,0.104-0.035,0.272-0.201c0.117-0.118,0.174-0.287,0.174-0.517V18.842
				c0-0.23-0.052-0.406-0.154-0.522c-0.1-0.114-0.201-0.18-0.298-0.194l-0.263-0.035v-0.472h0.099c0.737,0,1.462,0.008,2.157,0.023
				h4.603C46.473,17.642,46.864,21.563,46.863,22.765z M37.005,18.974v7.86c0.81,0.193,2.107,0.491,3.694,0.491
				c3.899,0,4.481-2.994,4.481-4.778v-0.027c0-2.087-1.116-4.333-3.565-4.333l-3.765,0.023
				C37.256,18.21,37.059,18.423,37.005,18.974L37.005,18.974z"/>
		</g>
		<g>
			<path fill="#FFFFFF" d="M59.811,31.374c0,2.363-1.654,5.121-6.315,5.121c-0.588,0-1.322-0.05-2.069-0.138
				c-0.001,0-0.214-0.023-0.537-0.072c-0.089-0.011-0.179-0.025-0.265-0.039c-0.044-0.005-0.094-0.014-0.144-0.023
				c-0.114-0.019-0.225-0.039-0.325-0.059c-0.249-0.051-0.448-0.087-0.607-0.112c-0.023-0.004-0.031-0.005-0.04-0.007
				c-0.393-0.084-0.693-0.163-0.946-0.245l-0.068-0.022l0.014-2.456l0.179,0.244c0.244,0.33,0.607,0.659,1.08,0.976l0.03,0.02
				c0.305,0.223,0.649,0.42,1.023,0.586l0.139,0.064c0.057,0.027,0.091,0.041,0.092,0.041c0.982,0.405,2.078,0.61,3.259,0.61
				c2.004,0,4.78-1.292,4.78-3.717c0-1.961-1.502-2.778-4.38-4.169l-3.095-1.498c-1.829-0.883-3.124-1.704-3.124-4.218
				c0-2.614,2.343-4.513,5.572-4.513c0.578,0,1.229,0.046,1.882,0.134c0.001,0,0.032,0.003,0.086,0.012l0.116,0.017
				c0.266,0.037,0.532,0.084,0.788,0.139c0.038,0.008,0.075,0.016,0.114,0.023l0.082,0.016c0.049,0.013,0.09,0.022,0.13,0.032
				l0.156,0.039c0.216,0.054,0.382,0.095,0.513,0.121l0.026,0.004c0.28,0.078,0.533,0.158,0.751,0.24l0.063,0.023v1.726l-0.17-0.163
				c-0.359-0.344-0.805-0.669-1.29-0.94h-0.004l-0.023-0.014c-0.043-0.024-0.087-0.05-0.13-0.071
				c-0.116-0.065-0.229-0.122-0.348-0.176l0.007-0.101l-0.039,0.087c-0.044-0.018-0.084-0.036-0.122-0.054
				c-0.153-0.066-0.245-0.099-0.247-0.099c-0.602-0.23-1.563-0.501-2.737-0.501c-2.32,0-4.433,1.66-4.433,3.483
				c0,1.479,1.533,2.336,2.968,3.022l2.7,1.288C58.219,27.596,59.812,28.477,59.811,31.374z"/>
		</g>
		<g>
			<path fill="#FFFFFF" d="M74.466,17.668h1.573l-0.734,1.119c-0.139,0.206-0.303,0.451-0.499,0.765l-0.279,0.441
				c-0.052,0.083-0.106,0.171-0.162,0.262l-4.345,6.95l-0.024,7.238c0,0.103-0.003,0.213-0.011,0.321v0.354
				c0,0.23,0.052,0.406,0.155,0.524c0.101,0.115,0.202,0.182,0.298,0.195l0.263,0.035v0.474h-3.11V35.86h0.099
				c0.04,0,0.099-0.007,0.174-0.022c0.018-0.004,0.101-0.034,0.265-0.201c0.118-0.117,0.177-0.291,0.177-0.518v-0.998h0.006v-6.57
				l-5.859-8.896c-0.307-0.426-0.473-0.491-0.882-0.491h-0.1l-0.008-0.099v-0.396h2.315l1.06,1.593h-0.005l4.912,7.36l3.213-5.284
				c0.169-0.279,0.345-0.605,0.508-0.947v-0.017l0.033-0.057l0.023-0.053c0.119-0.246,0.226-0.503,0.32-0.768l0.01-0.032
				c0.153-0.378,0.434-1.106,0.595-1.721L74.466,17.668z"/>
		</g>
		<g>
			<path fill="#FFFFFF" d="M96.274,34.535l0.159-0.117v2.077H86.4V36.01h0.099c0.01-0.001,0.016-0.001,0.025-0.002
				c0.018-0.002,0.04-0.006,0.054-0.006c0.006,0,0.011,0,0.016-0.001c0,0,0,0,0.001,0c0,0,0.001,0,0.001,0
				c0.032-0.002,0.063-0.004,0.092-0.007c0.168-0.023,0.286-0.098,0.355-0.299c0.017-0.049,0.032-0.102,0.042-0.167l0.004-0.019
				c0.015-0.111,0.022-0.23,0.022-0.364V23.317l-0.018-4.267c0-0.228-0.052-0.405-0.156-0.526c-0.1-0.114-0.2-0.18-0.297-0.194
				l-0.264-0.036v-0.472h3.135v0.484h-0.099c-0.176,0-0.311,0.056-0.411,0.171c-0.108,0.122-0.167,0.242-0.179,0.365l-0.027,0.218
				l0.001,4.148h0.001v12.792h3.38c0.661,0,1.428-0.146,2.104-0.399l0.061-0.024c0.013-0.005,0.026-0.012,0.042-0.017l0.096-0.041
				c0.067-0.028,0.147-0.064,0.235-0.104c0.032-0.013,0.061-0.026,0.09-0.042l0.006-0.003
				C95.215,35.184,95.799,34.887,96.274,34.535z"/>
		</g>
		<g>
			<path fill="#FFFFFF" d="M113.492,36.117v0.378H109.8v-0.366c0.919-0.093,0.871-0.708,0.596-1.409l-1.792-4.726h-7.197
				l-1.593,4.523l-0.023,0.064c-0.083,0.255-0.315,1.216,0.769,1.528v0.386h-2.483v-0.503c0.422-0.045,0.588,0.078,1.089-1.09
				l5.48-15.317l-0.656-1.748h1.729l0.036,0.244l6.537,16.769C112.618,35.534,112.623,36.011,113.492,36.117z M108.445,29.576
				l-2.539-6.781l-0.016-0.039l-1.03-2.602l-3.322,9.422H108.445z"/>
		</g>
		<g>
			<path fill="#FFFFFF" d="M130.931,22.707c0.462,1.174,0.696,2.544,0.696,4.073c0,1.514-0.238,2.912-0.708,4.155
				c-0.471,1.247-1.11,2.28-1.899,3.072c-0.788,0.792-1.701,1.412-2.711,1.844c-1.012,0.432-2.082,0.651-3.18,0.651h-8.013v-0.481
				h0.099c0.045,0,0.102-0.007,0.171-0.022c0.026-0.005,0.103-0.035,0.269-0.199c0.117-0.115,0.175-0.288,0.175-0.515V19.038
				c0-0.196-0.047-0.346-0.139-0.446c-0.122-0.132-0.202-0.174-0.248-0.186c-0.075-0.022-0.153-0.033-0.229-0.033h-0.099v-0.53
				h8.013c1.129,0,2.201,0.171,3.185,0.506c0.985,0.337,1.894,0.856,2.7,1.544C129.823,20.585,130.468,21.531,130.931,22.707z
				 M128.131,20.588c-1.2-1.469-2.883-2.214-5.002-2.214h-5.593v17.648c0.262,0.001,0.915,0.005,1.956,0.012
				c1.216,0.008,2.428,0.012,3.637,0.012c2.083,0,3.756-0.863,4.973-2.567c1.225-1.715,1.845-3.969,1.845-6.698
				C129.948,24.148,129.337,22.064,128.131,20.588z"/>
		</g>
		<g>
			<path fill="#FFFFFF" d="M146.266,17.668h1.573l-0.734,1.119c-0.139,0.206-0.303,0.451-0.499,0.765l-0.279,0.441
				c-0.052,0.083-0.106,0.171-0.162,0.262l-4.345,6.95l-0.024,7.238c0,0.103-0.003,0.213-0.011,0.321v0.354
				c0,0.23,0.052,0.406,0.155,0.524c0.101,0.115,0.202,0.182,0.298,0.195l0.263,0.035v0.474h-3.11V35.86h0.099
				c0.04,0,0.099-0.007,0.174-0.022c0.018-0.004,0.101-0.034,0.265-0.201c0.118-0.117,0.177-0.291,0.177-0.518v-0.998h0.006v-6.57
				l-5.859-8.896c-0.307-0.426-0.473-0.491-0.882-0.491h-0.1l-0.008-0.099v-0.396h2.315l1.06,1.593h-0.005l4.912,7.36l3.213-5.284
				c0.169-0.279,0.345-0.605,0.508-0.947v-0.017l0.033-0.057l0.023-0.053c0.119-0.246,0.226-0.503,0.32-0.768l0.01-0.032
				c0.153-0.378,0.434-1.106,0.595-1.721L146.266,17.668z"/>
		</g>
	</g>
	<g>
		<circle fill="#FFFFFF" cx="79.144" cy="27.471" r="1.121"/>
	</g>
</g>
</svg>
