<?xml version="1.0" encoding="utf-8"?>
<!-- Generator: Adobe Illustrator 17.0.0, SVG Export Plug-In . SVG Version: 6.00 Build 0)  -->
<!DOCTYPE svg PUBLIC "-//W3C//DTD SVG 1.1//EN" "http://www.w3.org/Graphics/SVG/1.1/DTD/svg11.dtd">
<svg version="1.1" id="Слой_1" xmlns="http://www.w3.org/2000/svg" xmlns:xlink="http://www.w3.org/1999/xlink" x="0px" y="0px"
	 width="267.028px" height="269.454px" viewBox="0 0 267.028 269.454" enable-background="new 0 0 267.028 269.454"
	 xml:space="preserve">
<g>
	<g>
		<path fill="#ECB113" d="M260.491,79.229c-2.431-8.349-5.648-16.667-10.167-24.586c-2.164-3.99-4.858-7.783-7.672-11.483
			l-2.279-2.679l-1.144-1.337l-1.233-1.271l-2.484-2.531l-2.661-2.372c-0.253-0.155-0.515-0.316-0.768-0.471
			c-7.011-4.246-16.559-8.856-26.903-11.234c-10.34-2.319-21.197-2.565-30.172-0.991c-8.974,1.795-17.521,3.973-25.915,6.636
			c-4.587,1.461-9.103,3.081-13.529,4.884c-1.076,0.287-2.152,0.584-3.229,0.891c6.795-3.412,13.616-6.359,19.78-8.544
			c6.8-2.205,13.817-3.514,20.83-4.27c7.013-0.752,13.882-1.145,20.641-1.636c0.971-0.125,2.18-0.029,3.531,0.085
			c1.351,0.152,2.848,0.266,4.397,0.644c1.549,0.337,3.157,0.681,4.734,1.052c1.569,0.451,3.113,0.88,4.56,1.228
			c1.264,0.15,2.54,0.544,3.877,0.856c1.33,0.343,2.712,0.669,4.058,1.186c-1.305-0.776-2.68-1.358-4.04-2.007
			c-1.363-0.64-2.727-1.304-4.126-1.806c-0.223-0.127,0.387-0.022,1.626,0.263c1.226,0.358,3.071,0.961,5.34,1.725
			c4.475,1.71,10.542,4.586,16.052,8.502c5.577,3.834,10.353,8.636,13.645,12.225c0.828,0.902,1.58,1.722,2.237,2.437
			c0.638,0.724,1.162,1.351,1.616,1.833c0.897,0.968,1.431,1.387,1.473,1.053c0.046-0.028-0.324-0.635-1.045-1.722
			c-0.372-0.539-0.784-1.216-1.365-1.968c-0.585-0.748-1.253-1.603-1.997-2.554c-3.028-3.742-7.698-8.896-14.19-13.614
			c-6.439-4.749-14.634-8.837-23.085-11.309c-8.458-2.531-17.035-3.56-24.601-3.873c-2.91-0.735-1.635-2.292,1.032-3.691
			c1.319-0.733,3.046-1.226,4.687-1.655c1.652-0.387,3.221-0.695,4.322-0.608c0.488-0.045,1.056-0.064,1.593-0.087
			c-2.483-0.498-4.89-0.685-7.329-0.973c-2.454-0.325-4.797-0.341-7.178-0.476c-7.494,0.319-14.835,1.217-21.729,2.572
			c-11.181,2.109-21.99,5.183-32.465,8.999c2.722-1.258,5.539-2.349,8.312-3.566c1.315-0.597,2.724-1.139,4.143-1.686
			c5.691-2.192,12.149-3.822,19.106-4.939c1.751-0.258,3.502-0.529,5.315-0.738c1.848-0.156,3.714-0.314,5.596-0.473
			c1.863-0.182,3.831-0.177,5.78-0.22c1.954-0.032,3.908-0.079,5.943,0.051c8.535-0.35,17.479,0.125,26.608,2.091
			c0.252,0.044,0.471,0.082,0.712,0.123c-11.46-3.335-22.931-4.432-33.572-4.324l-3.655,0.325l-3.565,0.492
			c-2.377,0.331-4.768,0.652-7.029,1.114c-2.293,0.43-4.597,0.834-6.844,1.373c-2.257,0.517-4.533,0.986-6.749,1.601
			c-8.936,2.28-17.639,5.113-26.13,8.407c2.76-1.242,5.49-2.546,8.296-3.767c5.947-2.876,12.938-5.127,20.593-6.799
			c1.928-0.386,3.889-0.755,5.878-1.107c2.005-0.315,4.058-0.568,6.121-0.832c1.02-0.142,2.088-0.237,3.174-0.313
			c1.079-0.08,2.163-0.16,3.251-0.24c1.092-0.069,2.171-0.165,3.284-0.202c1.122-0.017,2.248-0.034,3.376-0.051
			c9.267-0.811,19.038-0.764,29.147,0.92c10.075,1.661,20.5,5.103,30.032,10.532c-6.205-4.083-13.357-7.528-20.571-9.89
			c-7.239-2.456-14.41-3.582-20.9-4.173c-13.03-0.861-24.979,0.508-35.806,2.589c-10.88,2.102-21.095,5.124-30.903,8.664
			c-19.578,7.148-37.512,16.489-54.213,27.971c-3.654,3.411-7.25,6.77-11.088,9.793c-8.716,7.158-18.881,15.66-26.544,24.265
			c1.93-0.795-1.991,3.401-1.658,3.705c-3.311,4.724-6.884,9.821-10.597,15.117c-3.616,5.407-7.255,11.172-10.26,17.398
			c-0.854,1.766-1.199,1.612-2.359,3.342c-1.915,9.471-4.231,20.225-4.793,31.916c-0.024,1.46-0.048,2.93-0.073,4.409
			c-0.014,0.738-0.028,1.479-0.042,2.222c0.024,0.71,0.049,1.421,0.073,2.135c0.048,1.423,0.095,2.853,0.143,4.289
			c0.076,1.436,0.213,2.878,0.315,4.324c0.155,2.895,0.612,5.793,0.946,8.701c0.213,1.45,0.492,2.894,0.738,4.341l0.384,2.168
			c0.145,0.72,0.323,1.433,0.483,2.149c0.376,1.441,0.752,2.885,1.13,4.333c0.436,1.434,0.874,2.871,1.313,4.314
			c0.404,1.453,0.934,2.873,1.427,4.312c0.513,1.432,0.946,2.9,1.538,4.32c-2.231-5.484-4.163-11.303-5.408-17.279
			c-0.463-1.64-0.804-3.296-1.158-4.947c-0.351-1.651-0.756-3.293-1.007-4.95c-0.287-1.656-0.574-3.307-0.86-4.956
			c-0.217-1.657-0.434-3.311-0.651-4.963c-0.256-1.655-0.335-3.308-0.498-4.964c-0.139-1.662-0.33-3.28-0.334-5.07l-0.124-5.272
			l0.256-5.269l-0.248,3.214c-0.082,1.068-0.176,2.132-0.15,3.205c0.003,2.131-0.028,4.291,0.029,6.365
			c0.131,2.004,0.261,4.002,0.392,5.996c0.189,1.991,0.443,3.976,0.664,5.953c1.057,7.903,2.812,15.669,5.294,23.183
			c4.948,15.032,12.859,29.021,23.343,41.034c10.041,11.454,22.132,20.211,34.92,26.34c12.798,6.156,26.242,9.913,39.739,11.595
			c11.009,1.492,21.91,2.36,33.002,2.281c-0.933,0.289-1.848,0.589-2.729,0.908c6.947,0.101,13.791-0.551,20.545-1.824
			c6.748-1.287,13.447-3.128,20.016-5.815c1.205-0.436,2.356-1.002,3.542-1.511c6.67-2.977,12.855-6.331,18.623-10.073
			c5.755-3.763,11.117-7.862,16.169-12.317c1.239-1.141,2.531-2.224,3.73-3.412c1.202-1.183,2.407-2.368,3.615-3.557
			c1.154-1.24,2.311-2.485,3.474-3.734c1.167-1.244,2.231-2.591,3.361-3.891c4.403-5.296,8.514-11.033,12.253-17.333
			c3.684-6.194,6.426-12.876,8.925-19.589c0.77-2.584-0.309-2.009-1.136-1.843c-0.856,0.16-1.552-0.112-0.363-4.308
			c-0.263,0.409-0.552,0.798-0.834,1.123c-0.197,0.808-0.39,1.604-0.579,2.382c-0.197,0.777-0.434,1.521-0.641,2.251
			c-0.432,1.453-0.816,2.824-1.24,4.02c-0.901,2.368-1.731,4.126-2.529,4.774c-1.312,0.709-0.872-1.907,0.037-5.622
			c0.397-1.866,0.861-4.044,1.329-6.243c0.337-2.224,0.702-4.437,0.816-6.412c-0.079-0.092-0.15-0.21-0.224-0.32
			c4.749-12.603,6.625-26.284,4.823-40.546c-4.505-35.642-10.261-71.991-31.347-92.6c1.422,1.119,2.806,2.288,4.117,3.541
			c3.9,3.298,7.233,7.242,10.05,11.539c2.828,4.295,5.169,8.931,7.154,13.754c3.886,9.703,6.37,20.082,8.258,30.919
			c0.556,2.494,0.991,5.009,1.373,7.324c0.428,2.309,0.802,4.416,1.371,6.089c1.327,2.325,2.541,4.695,3.797,6.819
			c-0.481-6.826-1.606-13.811-2.905-19.701c0.259,0.756,0.601,0.621,0.848,0.597c-0.307-2.338-0.711-4.496-1.14-6.567
			c-0.389-2.077-0.918-4.052-1.394-6.041c-0.466-1.991-1.083-3.961-1.614-6.046c-0.615-2.066-1.207-4.24-1.919-6.574
			c3.101,6.302,5.325,13.822,6.824,21.82c1.506,8.008,2.294,16.498,2.811,24.974c0.555,0.855,1.109,1.627,1.663,2.298
			c-0.394-17.653-2.392-35.795-8.429-53.094c-0.346-1.085-0.784-2.147-1.2-3.214c-0.427-1.063-0.821-2.134-1.279-3.186
			c-0.968-2.087-1.841-4.2-2.963-6.219c-2.062-4.105-4.609-7.988-7.384-11.658c-2.794-3.672-6.063-6.963-9.519-9.961
			c-1.831-1.389-3.571-2.867-5.531-4.041c-0.969-0.596-1.877-1.279-2.891-1.791l-2.989-1.592
			c-5.948-2.725-12.299-4.479-18.745-5.377c3.109,0.789,6.159,1.864,9.129,3.154c0,0-0.151-0.061-0.414-0.167
			c-0.261-0.115-0.641-0.256-1.11-0.391c-0.929-0.293-2.169-0.683-3.408-1.073c-1.231-0.42-2.519-0.627-3.46-0.876
			c-0.948-0.222-1.58-0.37-1.58-0.37c-0.801-0.212-1.615-0.332-2.43-0.464c-0.815-0.136-1.632-0.272-2.458-0.409
			c-1.344-0.151-2.706-0.15-4.066-0.176c-0.915-0.001-1.829-0.045-2.745-0.052c-0.827-0.118-1.668-0.222-2.517-0.316
			c1.455-0.051,2.914-0.08,4.383-0.062c-2.429-0.324-4.89-0.334-7.358-0.469c-1.823-0.066-3.651-0.02-5.485,0.011
			c-3.887-0.062-7.989,0.104-12.311,0.51c4.648-0.654,9.33-1.124,14.055-1.179c1.528-0.048,3.057-0.087,4.59,0.006
			c1.532,0.069,3.067,0.1,4.601,0.215c1.53,0.171,3.062,0.342,4.597,0.513c1.534,0.168,3.048,0.534,4.572,0.803
			c7.481,0.775,15.104,2.61,22.16,6.169c5.553,2.519,10.787,5.902,15.451,10.007c5.491,4.985,10.094,11.332,13.741,18.25
			c3.655,6.933,6.368,14.448,8.404,22.107c4.033,15.361,5.531,31.224,6.564,46.287c1.299,0.85,2.597,0.924,3.895-0.222
			C267.142,112.874,265.321,95.962,260.491,79.229z M64.987,61.581c7.283-7.114,16.041-13.674,25.58-19.439
			c9.547-5.759,19.846-10.793,30.355-14.918c1.815-0.843,3.621-1.683,5.396-2.507c1.98-0.796,3.861-1.455,5.678-2.019
			c1.815-0.572,3.605-0.944,5.35-1.326c0.519-0.168,1.029-0.332,1.539-0.497c-0.283,0.117-0.588,0.242-0.872,0.359
			c2.611-0.575,5.256-0.851,7.975-1.275c2.743-0.352,5.609-0.709,8.771-1.16l1.718-0.726l0.217,1.277
			c-7.777,2.851-16.375,5.103-25.112,7.796c-8.721,2.678-17.57,5.802-25.423,10.011c-10.166,5.509-20.469,11.585-30.041,18.705
			c-6.222,4.648-12.173,9.68-17.524,15.115c-3.542,2.96-6.915,6.04-10.099,9.225c1.407-1.877,2.827-3.722,4.316-5.508
			C56.446,70.159,60.403,65.868,64.987,61.581z M49.404,235.019c-1.445-0.705-3.251-1.737-5.215-3.105
			c-1.908-1.424-4.101-3.057-6.19-5.061c-8.754-7.683-16.683-20.195-19.522-27.148c-3.589-8.631-6.631-18.329-8.646-28.406
			c-0.416-2.525-0.938-5.06-1.28-7.609c-0.311-2.55-0.74-5.106-0.916-7.657c-0.119-1.278-0.237-2.553-0.355-3.824
			c-0.098-1.29-0.106-2.651-0.164-3.972c-0.032-1.328-0.124-2.661-0.107-3.979c0.043-1.321,0.086-2.634,0.129-3.939
			c1.433-1.544,2.328-1.142,2.831,0.639c0.252,0.893,0.407,2.135,0.483,3.673c0.133,1.544,0.3,3.394,0.377,5.49
			c0.019,0.523,0.039,1.063,0.059,1.619c0.047,0.538,0.095,1.09,0.145,1.658c0.085,1.132,0.174,2.321,0.267,3.561
			c0.056,1.239,0.23,2.527,0.364,3.86c0.149,1.332,0.259,2.712,0.438,4.125c0.741,5.652,1.869,11.895,3.601,18.249
			c3.466,12.707,9.881,25.632,17.445,34.881c7.5,9.324,15.606,15.01,20.384,16.016C54.031,236.2,52.391,236.327,49.404,235.019z
			 M213.212,33.843c4.282,1.618,8.339,3.894,12.186,6.562c-3.604-2.306-7.331-4.408-11.357-5.876l-1.484-0.594
			c-0.496-0.194-1.02-0.327-1.528-0.494c-1.018-0.318-2.039-0.637-3.064-0.957c-0.79-0.208-1.591-0.385-2.389-0.567
			c-0.709-0.32-1.429-0.629-2.16-0.925C206.725,31.659,209.988,32.659,213.212,33.843z"/>
		<g>
			<path fill="#E79109" d="M254.096,140.813c0.011,0.58,0.02,1.125,0.031,1.701C254.503,140.982,254.363,140.824,254.096,140.813z"
				/>
			<path fill="#E79109" d="M197.918,6.431l4.665,0.849l4.701,1.161c1.561,0.352,3.128,0.873,4.689,1.378l2.337,0.758l1.165,0.384
				l1.157,0.459c5.061,1.24,9.105,2.794,12.251,4.194c3.119,1.49,5.418,2.698,6.949,3.783c1.684,0.493,3.977,1.127,6.856,2.436
				c-0.496-0.419-1.025-0.865-1.516-1.28c-9.476-6.656-20.43-11.144-31.153-13.481c-2.228-0.314-4.388-0.496-6.434-0.66
				C201.543,6.269,199.654,6.367,197.918,6.431z"/>
			<path fill="#E79109" d="M231.463,18.981c0.145,0.207,0.622,0.492,1.269,0.814c0.627,0.354,1.425,0.747,2.243,1.117
				c1.633,0.738,3.364,1.383,3.926,1.347c0.565-0.036-0.01-0.834-3.069-2.862c-1.804-0.516-2.956-0.722-3.65-0.726
				C231.502,18.65,231.318,18.775,231.463,18.981z"/>
			<path fill="#E79109" d="M80.551,49.564c5.964-3.757,11.98-7.486,18.083-10.845c-6.377,3.284-12.548,7.024-18.293,10.846
				c-5.736,3.844-10.93,7.973-15.354,12.016c1.438-1.04,3.142-1.738,4.579-2.775C71.969,56.064,75.95,52.357,80.551,49.564z"/>
			<path fill="#E79109" d="M196.808,26.868c-1.215-0.109-2.428-0.218-3.638-0.326c-1.213-0.047-2.423-0.059-3.623-0.084
				c1.664,0.194,3.316,0.281,4.945,0.606c1.925,0.19,3.849,0.246,5.732,0.597l-1.7-0.459
				C197.949,27.089,197.376,26.978,196.808,26.868z"/>
			<path fill="#E79109" d="M119.202,28.99c6.728-2.841,13.114-5.46,18.811-7.756c-0.218,0.045-0.44,0.091-0.667,0.138
				c-1.367,0.44-2.74,0.882-4.119,1.326c-1.362,0.481-2.73,0.964-4.103,1.449c-2.756,0.932-5.465,2.031-8.202,3.077
				c-7.334,3.473-14.821,7.316-22.287,11.494C105.5,35.139,112.487,31.863,119.202,28.99z"/>
			<path fill="#E79109" d="M86.583,30.326c-1.663,0.907-5.016,2.632-6.657,3.61c-0.869,0.802-1.727,1.594-2.595,2.396
				c1.545-0.86,3.1-1.745,4.672-2.579L86.583,30.326z"/>
			<path fill="#E79109" d="M11.441,113.106c3.143-8.28,7.182-15.948,11.732-23.037c4.539-7.115,9.693-13.539,15.09-19.568
				c5.416-6.011,11.128-11.595,17.119-16.699c5.986-5.11,12.143-9.947,18.564-14.317c1.11-1.079,2.253-2.108,3.386-3.153
				c-9.089,5.142-17.77,11.097-25.63,17.848c-7.856,6.745-14.889,14.3-20.579,22.456c-2.293,3.186-5.012,8.514-7.291,11.676
				c-5.341,7.561-9.689,15.741-12.852,24.346c-3.165,8.599-5.122,17.626-5.741,26.712c0.826-8.657,2.866-17.259,5.938-25.574
				C11.266,113.563,11.352,113.339,11.441,113.106z"/>
			<g>
				<path fill="#E79109" d="M13.485,169.923c-0.397-1.159-0.802-2.309-1.162-3.47c0.039,0.278,0.081,0.56,0.122,0.84
					c0.792,2.364,1.657,4.687,2.577,6.95C14.432,172.823,13.998,171.355,13.485,169.923z"/>
				<path fill="#E79109" d="M248.382,153.394c0.074,0.11,0.145,0.228,0.224,0.32c-0.114,1.975-0.48,4.188-0.816,6.412
					c-0.468,2.198-0.932,4.377-1.329,6.243c-0.909,3.715-1.349,6.331-0.037,5.622c0.798-0.649,1.628-2.406,2.529-4.774
					c0.423-1.196,0.808-2.567,1.24-4.02c0.207-0.73,0.443-1.474,0.641-2.251c0.189-0.778,0.383-1.574,0.579-2.382
					c0.282-0.325,0.571-0.714,0.834-1.123c-1.105,3.899-0.581,4.409,0.185,4.333c0.816-4.334,1.296-8.764,1.414-13.27
					C250.607,151.014,248.628,152.741,248.382,153.394z"/>
				<path fill="#E79109" d="M7.011,144.258c0.041-1.257,0.082-2.507,0.123-3.75c-0.022-0.301-0.053-0.603-0.069-0.904
					c-0.002-0.035-0.006-0.07-0.008-0.105c-0.113,1.209-0.205,2.431-0.284,3.663c0.081,0.468,0.163,0.938,0.244,1.407
					C7.016,144.465,7.009,144.361,7.011,144.258z"/>
				<path fill="#E79109" d="M252.61,184.546c-0.856,0.16-1.552-0.112-0.363-4.308c-0.263,0.409-0.552,0.798-0.834,1.123
					c-0.197,0.808-0.39,1.604-0.579,2.382c-0.197,0.777-0.434,1.521-0.641,2.251c-0.432,1.453-0.816,2.824-1.24,4.02
					c-0.901,2.368-1.731,4.126-2.529,4.774c-1.312,0.709-0.872-1.907,0.037-5.622c0.397-1.866,0.861-4.044,1.329-6.243
					c0.337-2.224,0.702-4.437,0.816-6.412c-0.049-0.057-0.094-0.13-0.14-0.2c-1.116,2.338-2.318,4.636-3.646,6.868
					c-3.74,6.3-7.85,12.037-12.253,17.333c-1.129,1.299-2.194,2.646-3.361,3.891c-1.162,1.25-2.32,2.494-3.474,3.734
					c-1.208,1.189-2.413,2.374-3.615,3.557c-1.199,1.188-2.491,2.271-3.73,3.412c-5.052,4.456-10.414,8.554-16.169,12.317
					c-5.768,3.742-11.953,7.096-18.623,10.073c-1.185,0.509-2.336,1.075-3.542,1.511c-6.569,2.687-13.267,4.528-20.016,5.815
					c-6.754,1.272-13.598,1.924-20.545,1.824c0.881-0.318,1.797-0.618,2.729-0.908c-11.092,0.079-21.993-0.789-33.002-2.281
					c-13.497-1.682-26.941-5.439-39.739-11.595c-12.788-6.129-24.879-14.886-34.92-26.34c-9.552-10.945-16.96-23.535-21.945-37.055
					c0.723,4.681,1.708,9.66,3.088,14.726c3.466,12.707,9.881,25.632,17.445,34.881c7.5,9.324,15.606,15.01,20.384,16.016
					c0.497,2.11-1.143,2.238-4.129,0.929c-1.445-0.705-3.251-1.737-5.215-3.105c-1.908-1.424-4.101-3.057-6.19-5.061
					c-8.754-7.683-16.683-20.195-19.522-27.148c-3.589-8.631-6.631-18.329-8.646-28.406c-0.416-2.525-0.938-5.06-1.28-7.609
					c-0.311-2.55-0.74-5.106-0.916-7.657c-0.119-1.278-0.237-2.553-0.355-3.824c-0.087-1.148-0.106-2.348-0.149-3.53
					c-0.176-0.918-0.342-1.838-0.499-2.761c-0.019,1.166-0.039,2.334-0.058,3.513c-0.014,0.738-0.028,1.479-0.042,2.222
					c0.024,0.71,0.049,1.421,0.073,2.135c0.048,1.423,0.095,2.853,0.143,4.289c0.076,1.436,0.213,2.878,0.315,4.324
					c0.155,2.895,0.612,5.793,0.946,8.701c0.213,1.45,0.492,2.894,0.738,4.341l0.384,2.168c0.145,0.72,0.323,1.433,0.483,2.149
					c0.376,1.441,0.752,2.885,1.13,4.333c0.436,1.434,0.874,2.871,1.313,4.314c0.404,1.453,0.934,2.873,1.427,4.312
					c0.513,1.432,0.946,2.9,1.538,4.32c-2.231-5.484-4.163-11.303-5.408-17.279c-0.463-1.64-0.804-3.296-1.158-4.947
					c-0.351-1.651-0.756-3.293-1.007-4.95c-0.287-1.656-0.574-3.307-0.86-4.956c-0.217-1.657-0.434-3.311-0.651-4.963
					c-0.256-1.655-0.335-3.308-0.498-4.964c-0.139-1.662-0.33-3.28-0.334-5.07l-0.124-5.272l0.256-5.269l-0.248,3.214
					c-0.082,1.068-0.176,2.132-0.15,3.205c0.003,2.131-0.028,4.291,0.029,6.365c0.131,2.004,0.261,4.002,0.392,5.996
					c0.189,1.991,0.443,3.976,0.664,5.953c1.057,7.903,2.812,15.669,5.294,23.183c4.948,15.032,12.859,29.021,23.343,41.034
					c10.041,11.454,22.132,20.211,34.92,26.34c12.798,6.156,26.242,9.913,39.739,11.595c11.009,1.492,21.91,2.36,33.002,2.281
					c-0.933,0.289-1.848,0.589-2.729,0.908c6.947,0.101,13.791-0.551,20.545-1.824c6.748-1.287,13.447-3.128,20.016-5.815
					c1.205-0.436,2.356-1.002,3.542-1.511c6.67-2.977,12.855-6.331,18.623-10.073c5.755-3.763,11.117-7.862,16.169-12.317
					c1.239-1.141,2.531-2.224,3.73-3.412c1.202-1.183,2.407-2.368,3.615-3.557c1.154-1.24,2.311-2.485,3.474-3.734
					c1.167-1.244,2.231-2.591,3.361-3.891c4.403-5.296,8.514-11.033,12.253-17.333c3.684-6.194,6.426-12.876,8.925-19.589
					C254.516,183.805,253.437,184.379,252.61,184.546z"/>
				<path fill="#E79109" d="M38,204.056c2.088,2.003,4.282,3.637,6.19,5.061c1.963,1.368,3.77,2.399,5.215,3.105
					c2.986,1.308,4.626,1.181,4.129-0.929c-4.778-1.005-12.884-6.691-20.384-16.016c-7.564-9.249-13.979-22.174-17.445-34.881
					c-1.731-6.355-2.86-12.598-3.601-18.249c-0.178-1.413-0.289-2.792-0.438-4.125c-0.134-1.333-0.308-2.621-0.364-3.861
					c-0.093-1.24-0.182-2.429-0.267-3.561c-0.05-0.567-0.098-1.12-0.145-1.658c-0.02-0.556-0.04-1.095-0.059-1.619
					c-0.077-2.096-0.244-3.947-0.377-5.49c-0.049-0.991-0.135-1.843-0.254-2.574c-0.921,4.63-1.819,9.519-2.504,14.634
					c0.157,1.845,0.418,3.693,0.666,5.538c0.744-0.232,1.269,0.322,1.609,1.526c0.252,0.893,0.407,2.135,0.483,3.673
					c0.133,1.544,0.3,3.394,0.377,5.49c0.019,0.523,0.039,1.063,0.059,1.619c0.047,0.538,0.095,1.09,0.145,1.658
					c0.019,0.25,0.038,0.512,0.057,0.767c1.935,8.036,4.475,15.743,7.385,22.743C21.317,183.861,29.246,196.373,38,204.056z"/>
			</g>
		</g>
		<g opacity="0.3">
			<path fill="#FFFFFF" d="M192.689,210.1c-1.094,0-2.164-0.541-2.795-1.532c-0.981-1.542-0.527-3.587,1.014-4.569
				c7.372-4.694,14.287-10.417,20.554-17.01c1.258-1.324,3.353-1.378,4.678-0.118c1.324,1.259,1.378,3.353,0.118,4.678
				c-6.637,6.983-13.971,13.051-21.797,18.034C193.912,209.932,193.297,210.1,192.689,210.1z"/>
		</g>
		<g opacity="0.3">
			<path fill="#FFFFFF" d="M129.401,227.639c-28.129,0-50.988-8.286-57.212-11.661c-1.607-0.872-2.203-2.88-1.331-4.487
				c0.872-1.607,2.881-2.203,4.487-1.331c7.456,4.045,54.717,20.706,99.322,2.278c1.687-0.698,3.624,0.106,4.322,1.795
				c0.698,1.689-0.106,3.624-1.795,4.322C160.919,225.279,144.408,227.639,129.401,227.639z"/>
		</g>
	</g>
	<path fill="#720034" d="M257.068,85.939l1.777-3.93l-2.177-3.723c-2.41-4.121-6.705-6.681-11.21-6.681
		c-0.427,0-0.858,0.023-1.283,0.068c-3.449,0.366-6.853,2.154-10.731,5.928c-0.642-0.636-1.38-1.194-2.203-1.654
		c-1.971-1.104-4.308-1.618-7.35-1.618c-0.75,0-1.573,0.031-2.446,0.093l-7.759,0.55v6.133c-1.47-3.571-4.98-5.966-9.292-5.966
		c-0.49,0-0.987,0.027-1.519,0.084c-6.445,0.684-12.417,4.293-17.359,9.452c-0.015-0.03-0.026-0.063-0.041-0.093
		c4.167-3.762,7.186-9.656,7.186-13.536c0-4.382-2.628-8.171-6.858-9.887c-1.815-0.736-3.943-1.109-6.325-1.109
		c-0.999,0-1.836,0.067-2.364,0.122l-6.835,0.769l-0.603,6.844c-0.004,0.035-0.332,3.607-1.982,8.94l-0.716,2.313
		c-1.749-2.109-4.805-3.911-10.145-3.911c-0.749,0-1.572,0.032-2.443,0.093l-7.759,0.55v7.407c-0.088,0.454-0.29,1.197-0.535,2.037
		l-1.568,0.036c-2.238-1.387-4.808-2.156-7.333-2.156c-0.433,0-0.868,0.023-1.288,0.067c-2.129,0.225-4.007,0.999-5.545,2.255
		c-1.864-0.628-3.808-0.948-5.803-0.948c-0.647,0-1.304,0.035-1.952,0.104c-2.842,0.302-5.398,1.273-7.697,2.74
		c-2.028-1.777-5.363-3.408-8.901-3.408c-0.398,0-0.796,0.021-1.185,0.062c-3.076,0.327-5.632,1.712-7.651,4.136
		c-4.774,0.533-9.513,3.183-13.682,7.18l-1.805-1.613c-2.624-2.345-6.046-3.69-9.389-3.69c-0.433,0-0.868,0.023-1.293,0.068
		c-2.127,0.226-4.003,1-5.54,2.255c-1.865-0.628-3.809-0.948-5.803-0.948c-0.647,0-1.304,0.035-1.952,0.104
		c-0.489,0.052-0.967,0.13-1.439,0.221c0.775-2.286,0.947-3.737,0.947-5.263c0-5.254-3.694-10.908-11.804-10.908
		c-0.715,0-1.449,0.041-2.246,0.125l-5.267,0.558l-1.739,5.003c-1.759,5.06-5.22,13.325-9.219,22.15
		c-0.043-6.208-0.148-9.812-0.333-12.019c-0.462-5.807-3.81-12.012-11.823-12.012c-0.547,0-1.12,0.032-1.702,0.093
		c-4.805,0.51-7.863,2.74-8.954,3.676L0,86.614l1.557,5.202c0.525,1.754,1.062,5.143,1.062,16.985v33.573
		c0,2.147,0,5.391,1.644,8.415c1.225,2.255,4.302,6.037,11.144,6.037c0.758,0,1.575-0.046,2.426-0.136
		c2.048-0.217,3.588-0.586,3.876-0.657l5.449-1.355l0.8-5.558c0.233-1.619,1.085-3.845,2.831-7.328c0,0,0,0.002,0,0.003
		c0,5.137,2.652,7.941,4.233,9.155c1.056,0.812,2.254,1.408,3.575,1.797l-0.268,1.014c-0.123,0.466-0.525,2.144-0.525,4.151
		c0,2.406,0.566,4.525,1.683,6.299c0.264,0.419,0.553,0.813,0.866,1.18c-12.025,42.465-12.024,45.137-12.024,47.294
		c0,5.669,4.021,12.289,15.353,12.289c1.151,0,2.362-0.067,3.599-0.198c8.595-0.912,16.881-5.441,24.09-12.989
		c0.645,3.031,2.417,4.858,3.564,5.756c1.974,1.545,4.412,2.296,7.452,2.296c0.836,0,1.748-0.053,2.787-0.164l5.117-0.543
		l1.816-4.815c2.557-6.782,5.278-12.972,8.056-18.363c0.684,0.262,1.423,0.467,2.219,0.608c-0.482,2.634-0.76,4.925-0.76,6.767
		c0,3.394,0.865,6.28,2.571,8.576c2.232,3.005,5.621,4.66,9.542,4.66c0.498,0,1.01-0.028,1.521-0.082
		c2.859-0.303,5.36-1.642,7.544-3.633c2.462,1.229,4.918,1.237,5.886,1.237c0.003,0,0.005,0,0.008,0
		c0.885,0,1.844-0.056,2.932-0.172l4.913-0.521l1.908-4.557c0.557-1.331,1.124-2.645,1.699-3.938
		c1.682,4.652,5.873,7.787,11.036,7.787c0.432,0,0.871-0.023,1.304-0.069c2.759-0.293,5.083-1.534,7.022-3.154
		c1.646,0.989,3.602,1.5,5.861,1.5c0.795,0,1.638-0.054,2.821-0.179l5.163-0.548l1.792-4.872c0.901-2.447,1.883-4.848,2.919-7.178
		c0.01,0.022,0.02,0.043,0.03,0.065c2.933,6.394,8.099,10.061,14.173,10.061c0.529,0,1.067-0.029,1.601-0.086
		c2.531-0.268,4.733-1.257,6.65-2.692c1.907,0.651,4.132,1.029,6.707,1.029c1.02,0,2.089-0.058,3.177-0.174
		c13.212-1.402,23.176-11.582,23.176-23.681c0-2.972-0.828-5.549-2.072-7.787l0.938-2.679c1.716-4.899,6.457-13.863,8.057-16.191
		l3.866-5.62l-4.735-4.909c-1.917-1.986-5.606-3.991-9.529-3.991c-0.398,0-0.795,0.021-1.184,0.062
		c-1.695,0.18-4.154,0.844-6.458,2.953c-0.276,0.013-0.56,0.035-0.854,0.067c-4.754,0.504-9.972,3.204-14.17,7.178
		c-2.288-3.147-5.887-5.111-10.097-5.111c-0.467,0-0.939,0.025-1.409,0.075c-1.55,0.164-3.041,0.582-4.503,1.245
		c1.213-4.32,1.517-5.813,1.517-7.352c0-1.054-0.136-2.141-0.417-3.21c4.655-0.813,8.969-3.326,12.714-6.899
		c0.292,0.342,0.587,0.655,0.872,0.913c3.04,2.752,6.855,2.761,8.126,2.761c0.004,0,0.008,0,0.012,0
		c0.885,0,1.845-0.056,2.931-0.172l4.913-0.521l1.908-4.557c0.557-1.332,1.124-2.644,1.699-3.937
		c1.682,4.651,5.873,7.785,11.035,7.785c0.432,0,0.871-0.023,1.304-0.069c8.183-0.868,12.632-10,14.094-13
		c2.191-4.498,3.572-8.874,3.629-9.059l2.322-7.408l-6.224-2.46C253.473,95.189,255.377,89.68,257.068,85.939z M75.072,144.725
		c0.204-0.249,0.405-0.503,0.603-0.761c0.504,0.473,1.034,0.912,1.589,1.315C76.554,145.06,75.826,144.872,75.072,144.725z
		 M54.134,146.63c-0.102,0.017-0.205,0.035-0.307,0.051c0.06-0.073,0.12-0.142,0.179-0.216
		C54.046,146.523,54.094,146.573,54.134,146.63z M57.277,193.902l7.657-27.73c0.029,0.385,0.046,0.825,0.046,1.325
		C64.981,176.82,61.315,186.717,57.277,193.902z M99.416,161.43c-1.849-1.293-4.512-2.211-8.345-2.211
		c-0.33,0-0.679,0.009-1.035,0.02c-1.219-4.934-3.832-8.849-7.539-11.435c1.615,0.458,3.336,0.694,5.133,0.694
		c0.001,0,0.002,0,0.002,0c0.76,0,1.545-0.043,2.329-0.126c4.234-0.449,7.569-2.015,10.209-4.133
		c1.974,1.429,4.402,2.161,7.231,2.161c1.015,0,1.963-0.086,2.837-0.178l3.173-0.337l2.139-2.366
		c0.599-0.662,1.199-1.353,1.799-2.061l-0.238,2.7c-0.004,0.036-0.332,3.607-1.983,8.942l-0.795,2.568l-2.985,0.212v1.307
		c-0.819-0.107-1.697-0.17-2.656-0.17c-0.756,0-1.586,0.032-2.466,0.094l-5.28,0.376L99.416,161.43z M147.894,157.471
		c-1.819-1.82-4.771-3.268-9.557-3.268c-0.083,0-0.176,0.005-0.262,0.005c1.268-2.421,2.018-4.854,2.018-6.788
		c0-2.485-0.85-4.973-2.619-6.957c0.572-0.512,1.123-1.062,1.651-1.646c2.203,2.155,5.177,3.337,8.6,3.337
		c0.561,0,1.143-0.032,1.732-0.094c3.411-0.362,6.367-2.22,8.889-4.807c2.122,1.902,4.868,2.941,7.954,2.941
		c0.498,0,1.01-0.028,1.521-0.082c0.322-0.034,0.639-0.084,0.952-0.144c-0.066,0.249-0.128,0.482-0.178,0.671l-0.212,0.799
		c-0.041,0.152-1.257,4.773-2.95,11.37c-1.718-0.857-3.604-1.329-5.531-1.329c-0.427,0-0.858,0.023-1.283,0.068
		C155.173,151.913,151.769,153.7,147.894,157.471z"/>
	<g>
		<path fill="#FFFFFF" d="M13.241,144.677c-5.735,0.608-5.983-1.941-5.983-6.013V105.09c0-13.213-0.665-16.882-1.413-19.379
			c0.665-0.569,2.244-1.484,4.404-1.714c3.159-0.335,4.072,1.147,4.322,4.278c0.249,2.965,0.332,9.106,0.332,19.826
			c0,6.814,0,15.374-0.083,26.103l0.416,0.122c8.393-14.519,21.108-42.628,25.097-54.103c2.743-0.291,4.82,0.153,4.82,2.48
			c0,3.324-4.239,11.668-23.767,48.228c-3.159,5.903-4.903,9.828-5.402,13.288C15.983,144.22,14.819,144.51,13.241,144.677z"/>
		<path fill="#FFFFFF" d="M68.17,94.639c1.413-0.15,3.074,0.505,4.238,1.545c-3.489,12.005-9.224,32.641-9.224,38.292
			c0,0,3.324-3.51,7.646-12.861l0.831,0.327c0,0-5.236,16.511-11.635,17.19c-2.41,0.256-3.574-1.116-3.574-4.524
			c0-3.823,1.579-13.381,4.654-22.35l-0.249-0.057c0,0-10.471,18.23-20.111,28.892c-2.743,0.291-5.319,0.398-5.319-3.009
			c0-8.227,6.067-40.616,19.446-42.036c4.654-0.494,7.895,2.321,9.556,4.139c0.665-1.317,1.248-2.626,1.829-4.017
			C66.757,95.038,67.339,94.727,68.17,94.639z M42.325,134.195l0.249,0.056c9.307-10.295,15.457-20.587,20.859-31.88
			c-0.998-0.725-2.992-2.841-6.565-2.462C46.896,100.968,42.325,134.195,42.325,134.195z"/>
		<path fill="#FFFFFF" d="M105.813,89.98c-1.911,2.779-7.064,12.467-9.059,18.164l-1.08-0.384c0.415-4.282,0.831-8.149,1.496-11.212
			c-0.25-0.139-0.582-0.271-1.163-0.209c-7.148,0.758-14.793,16.611-14.793,29.658c0,3.075,0.332,7.61,3.573,7.266
			c3.574-0.379,9.64-5.344,12.466-12.625l0.83,0.328c-1.828,7.091-4.902,14.564-12.714,15.393
			c-7.313,0.776-11.137-4.22-11.137-12.364c0-15.042,11.219-30.359,20.194-31.311c1.496-0.159,2.161,0.436,2.743,2.202l0.415-0.044
			c0.998-3.762,2.327-6.064,4.405-6.284C103.402,88.408,105.231,89.377,105.813,89.98z"/>
		<path fill="#FFFFFF" d="M133.069,87.753c1.413-0.15,3.074,0.505,4.238,1.545c-3.489,12.005-9.224,32.641-9.224,38.292
			c0,0,3.324-3.51,7.646-12.861l0.831,0.327c0,0-5.236,16.511-11.635,17.19c-2.41,0.256-3.574-1.116-3.574-4.524
			c0-3.823,1.579-13.381,4.654-22.35l-0.249-0.057c0,0-10.471,18.23-20.111,28.892c-2.743,0.291-5.319,0.398-5.319-3.009
			c0-8.227,6.067-40.616,19.446-42.036c4.654-0.494,7.895,2.321,9.556,4.139c0.665-1.317,1.248-2.626,1.829-4.017
			C131.656,88.153,132.238,87.841,133.069,87.753z M107.225,127.31l0.249,0.056c9.307-10.295,15.457-20.587,20.859-31.88
			c-0.998-0.725-2.992-2.841-6.565-2.462C111.795,94.082,107.225,127.31,107.225,127.31z"/>
		<path fill="#FFFFFF" d="M155.837,87.997c2.243-0.487,4.238-0.865,5.817-1.032c0.997-0.106,1.413,0.265,1.413,1.18
			c0,0.582-0.166,1.762-0.166,1.762c-1.994,0.378-4.986,1.111-8.061,1.936c-2.243,8.465-7.978,26.941-7.978,32.093
			c0,0.831,0.25,1.303,0.665,1.592c3.407-3.021,7.978-12.065,7.978-12.065l0.831,0.327c0,0-5.568,15.632-11.468,16.258
			c-3.739,0.397-4.902-1.723-4.902-5.131c0-4.487,3.739-17.931,7.562-31.301c-0.748,0.163-1.413,0.233-1.828,0.277
			c-2.244,0.238-2.909-0.855-2.909-2.101c0-1.33,0.416-1.955,0.416-1.955c0.997-0.022,1.994-0.128,2.991-0.234l2.493-0.264
			c1.081-3.439,2.577-7.919,2.577-9.498c4.736-0.336,5.983,0.529,5.983,1.942C157.25,82.445,156.667,84.751,155.837,87.997z"/>
		<path fill="#FFFFFF" d="M173.204,110.67l0.831,0.327c0,0-4.987,16.485-10.804,17.102c-2.991,0.317-4.404-1.527-4.404-4.851
			c0-6.731,5.734-25.04,8.476-34.306c0.748-2.655,1.246-4.703,1.246-5.368c4.737-0.337,5.983,0.528,5.983,1.941
			c0,3.075-8.31,27.64-8.975,38.016C165.559,123.53,168.883,120.02,173.204,110.67z M180.6,67.337c0,2.16-4.322,8.519-6.731,8.775
			c-0.582,0.062-1.08-0.051-1.911-0.628c1.994-6.444,2.326-10.718,2.326-10.718C176.029,64.58,180.6,64.511,180.6,67.337z"/>
		<path fill="#FFFFFF" d="M202.371,81.231c0,0.997-0.332,2.196-0.332,2.196c-10.389,1.102-18.448,18.993-18.448,31.708
			c0,4.155,0.665,7.658,3.489,7.358c4.987-0.529,12.715-14.563,12.715-25.781c0-5.9-1.745-9.704-1.745-9.704
			s1.578-0.999,4.072-1.263c4.819-0.511,4.986,4.873,4.986,8.197c0,14.793-10.471,30.612-20.443,31.67
			c-6.648,0.705-10.056-4.75-10.056-12.479c0-14.875,11.967-32.101,23.435-33.317C201.541,79.658,202.371,79.985,202.371,81.231z"/>
		<path fill="#FFFFFF" d="M236.691,82.493c-7.812,7.644-16.455,21.275-24.1,39.538c-4.654,0.494-5.07-0.543-5.07-1.955
			c0-3.822,6.15-24.087,9.557-35.667c0.748-2.656,1.246-4.703,1.246-5.368c4.737-0.336,5.983,0.529,5.983,1.942
			c0,1.994-1.745,6.916-6.482,23.457l0.25,0.057c10.554-17.491,18.365-27.711,23.269-28.231c1.828-0.194,3.489,0.959,4.404,2.524
			c-3.906,8.642-9.64,28.031-9.64,37.255c3.242-3.502,7.148-11.894,7.148-11.894l0.83,0.328c0,0-4.902,15.644-10.637,16.253
			c-2.243,0.238-3.906-1.414-3.906-4.073c0-6.316,2.909-22.248,7.396-34.109L236.691,82.493z"/>
		<path fill="#FFFFFF" d="M42.693,212.765c-4.57,0.485-9.723-0.049-9.723-3.789c0-1.33,0.498-5.537,12.465-47.693
			c0.915-3.255,0.998-3.347,3.241-4.915l-0.165-0.481c-1.246,0.465-2.411,0.837-3.491,0.952c-2.161,0.229-2.576-1.14-2.576-2.635
			c0-1.08,0.249-2.021,0.249-2.021s0.25,0.139,2.992-0.152c6.15-0.652,14.293-2.514,18.781-2.99
			c8.559-0.908,14.293,3.221,14.293,13.193C78.76,180.267,63.469,210.56,42.693,212.765z M61.558,152.757
			c-3.158,0.335-6.648,1.204-6.648,1.204l-11.135,40.323c-2.493,8.99-3.076,13.456-3.076,13.456
			c0.583,0.769,2.161,1.433,4.903,1.142c10.637-1.129,24.017-26.232,24.017-45.097C69.619,156.223,66.71,152.211,61.558,152.757z"/>
		<path fill="#FFFFFF" d="M100.115,171.27c-6.398,7.41-13.296,19.86-19.529,36.393c-3.822,0.406-4.819-0.237-4.819-1.982
			c0-4.321,5.65-24.865,8.643-36.402c0.665-2.647,1.08-4.353,1.08-5.35c4.737-0.337,6.067,0.519,6.067,1.932
			c0,2.161-1.496,6.724-5.485,22.438l0.498,0.114c10.97-20.028,14.959-22.612,16.537-26.685c4.737-0.337,6.067,0.52,6.067,1.932
			c0,2.659-3.573,10.351-6.731,20.991c-2.991,0.317-4.238-0.464-4.238-2.21c0-2.493,1.163-7.27,2.243-10.958L100.115,171.27z"/>
		<path fill="#FFFFFF" d="M120.639,187.043l0.83,0.328c0,0-4.986,16.485-10.802,17.102c-2.992,0.317-4.405-1.527-4.405-4.851
			c0-6.731,5.735-25.041,8.476-34.307c0.748-2.655,1.248-4.703,1.248-5.368c4.736-0.336,5.983,0.529,5.983,1.941
			c0,3.075-8.311,27.641-8.976,38.016C112.993,199.904,116.317,196.393,120.639,187.043z M128.034,143.71
			c0,2.161-4.321,8.52-6.73,8.775c-0.583,0.062-1.081-0.052-1.912-0.628c1.994-6.444,2.327-10.718,2.327-10.718
			C123.463,140.954,128.034,140.885,128.034,143.71z"/>
		<path fill="#FFFFFF" d="M151.136,162.367c-7.811,7.643-16.454,21.275-24.1,39.537c-4.654,0.494-5.069-0.542-5.069-1.955
			c0-3.823,6.15-24.088,9.557-35.668c0.747-2.655,1.246-4.703,1.246-5.368c4.737-0.337,5.983,0.528,5.983,1.941
			c0,1.994-1.746,6.917-6.483,23.458l0.25,0.056c10.554-17.49,18.365-27.71,23.269-28.23c1.828-0.194,3.491,0.959,4.404,2.524
			c-3.906,8.641-9.639,28.031-9.639,37.255c3.241-3.502,7.147-11.894,7.147-11.894l0.831,0.327c0,0-4.903,15.645-10.637,16.253
			c-2.244,0.238-3.906-1.414-3.906-4.073c0-6.316,2.908-22.248,7.396-34.109L151.136,162.367z"/>
		<path fill="#FFFFFF" d="M180.884,136.939c0,2.16-5.319,17.932-11.552,42.61l0.25,0.057c9.557-15.308,17.369-27.605,23.518-28.257
			c2.659-0.282,4.902,1.558,4.902,5.131c0,6.482-6.897,14.028-12.963,18.661c2.743,16.828,7.063,16.121,7.063,16.121
			s2.909-2.054,6.648-11.592l0.831,0.327c0,0-3.822,15.53-10.305,16.218c-5.567,0.591-9.972-5.507-9.972-22.626l1.081-0.696
			l1.828,0.803c5.485-4.322,8.892-12.163,8.892-15.902c0-1.08-0.25-1.636-0.831-1.574c-3.491,0.37-18.532,20.415-26.676,42.553
			c-3.407,0.362-4.321,0.126-4.321-2.533c0-3.324,8.393-37.372,13.462-56.359c0.333-1.282,1.164-4.195,1.413-6.05
			C179.223,133.293,180.884,134.363,180.884,136.939z"/>
		<path fill="#FFFFFF" d="M209.053,161.707c0,5.402,12.465,9.647,12.465,17.292c0,7.313-6.233,14.373-15.707,15.379
			c-5.484,0.582-9.473-0.823-9.473-4.314c0-2.244,1.828-4.349,4.238-4.605c0.748,3.66,3.657,6.26,7.646,5.837
			c3.407-0.362,6.815-3.548,6.815-7.704c0-6.149-11.137-11.118-11.137-18.513c0-7.645,8.892-15.237,14.876-15.872
			c1.496-0.159,2.244,0.177,2.493,2.312l0.748-0.079c0.915-3.089,2.244-5.058,4.072-5.252c1.413-0.15,3.241,0.82,3.822,1.423
			c-1.911,2.779-7.063,12.467-9.058,18.163l-1.081-0.384c0.416-4.033,0.831-7.651,1.413-10.621c-0.165-0.066-0.582-0.104-1.33-0.025
			C215.701,155.184,209.053,157.385,209.053,161.707z"/>
	</g>
</g>
</svg>
