<?xml version="1.0" encoding="utf-8"?>
<!-- Generator: Adobe Illustrator 17.0.0, SVG Export Plug-In . SVG Version: 6.00 Build 0)  -->
<!DOCTYPE svg PUBLIC "-//W3C//DTD SVG 1.1//EN" "http://www.w3.org/Graphics/SVG/1.1/DTD/svg11.dtd">
<svg version="1.1" xmlns="http://www.w3.org/2000/svg" xmlns:xlink="http://www.w3.org/1999/xlink" x="0px" y="0px"
	 width="409.717px" height="430.47px" viewBox="0 0 409.717 430.47" enable-background="new 0 0 409.717 430.47"
	 xml:space="preserve">
<g id="Слой_1">
	<g>
		<path fill="#B94300" d="M116.711,430.47c-20.306,0-38.184-4.713-53.137-14.009c-16.386-10.186-29.878-26.243-40.102-47.728
			C-0.702,317.93-6.706,243.347,7.805,174.089c15.702-74.941,52.132-130.972,99.95-153.726C136.151,6.851,166.372,0,197.579,0
			c39.031,0,77.244,10.88,110.506,31.463c34.151,21.134,61.367,51.564,78.705,88c25.173,52.901,29.566,98.393,13.43,139.076
			c-16.253,40.978-53.352,77.143-113.415,110.561C232.262,399.448,169.401,430.47,116.711,430.47z M197.579,1
			c-31.058,0-61.134,6.818-89.394,20.266C60.652,43.885,24.422,99.661,8.784,174.294c-14.469,69.054-8.495,143.395,15.591,194.01
			c19.585,41.158,49.788,61.166,92.335,61.166c52.461,0,115.178-30.959,169.607-61.243c59.854-33.302,96.808-69.302,112.972-110.057
			c16.028-40.411,11.645-85.641-13.402-138.277c-17.256-36.263-44.341-66.547-78.329-87.58C274.455,11.828,236.425,1,197.579,1z"/>
	</g>
</g>
<g id="Подвал">
</g>
<g id="Слой_5">
</g>
<g id="Зеленый">
</g>
<g id="Слой_3">
</g>
<g id="Слой_2">
</g>
</svg>
