<?xml version="1.0" encoding="utf-8"?>
<!-- Generator: Adobe Illustrator 17.0.0, SVG Export Plug-In . SVG Version: 6.00 Build 0)  -->
<!DOCTYPE svg PUBLIC "-//W3C//DTD SVG 1.1//EN" "http://www.w3.org/Graphics/SVG/1.1/DTD/svg11.dtd">
<svg version="1.1" id="Слой_1" xmlns="http://www.w3.org/2000/svg" xmlns:xlink="http://www.w3.org/1999/xlink" x="0px" y="0px"
	 width="539.34px" height="532.741px" viewBox="0 0 539.34 532.741" enable-background="new 0 0 539.34 532.741"
	 xml:space="preserve">
<g>
	<defs>
		<path id="SVGID_1_" d="M356.775,515.606c-140.513,47.555-236.167-2.744-302.867-165.042C-2.48,213.357-46.727,62.76,93.786,15.205
			s383.752,19.361,431.306,159.874S497.288,468.051,356.775,515.606z"/>
	</defs>
	<clipPath id="SVGID_2_">
		<use xlink:href="#SVGID_1_"  overflow="visible"/>
	</clipPath>
	
		<radialGradient id="SVGID_3_" cx="487.2117" cy="-1303.5002" r="762.0782" gradientTransform="matrix(1 0 0 1.0333 0 1603.9485)" gradientUnits="userSpaceOnUse">
		<stop  offset="0" style="stop-color:#EDC12D"/>
		<stop  offset="0.3954" style="stop-color:#EDBC28"/>
		<stop  offset="0.8649" style="stop-color:#EBAE1A"/>
		<stop  offset="1" style="stop-color:#EBA914"/>
	</radialGradient>
	<polygon clip-path="url(#SVGID_2_)" fill="url(#SVGID_3_)" points="896.938,462.267 -332.242,611.949 -332.242,-41.38 
		896.938,-41.38 	"/>
	<g opacity="0.2" clip-path="url(#SVGID_2_)">
		<path fill="#FFFFFF" d="M375.849,116.243c-22.479,3.492-61.48,3.264-55.525-3.938l-4.875-3.813
			C334.725,107.784,415.052,102.141,375.849,116.243z"/>
		<path fill="#FFFFFF" d="M383.437,145.905c-19.724-0.926-4.893-3.819-1.674-6.577l26.94-1.332
			C417.114,140.674,394.652,144.169,383.437,145.905z"/>
		<path fill="#FFFFFF" d="M376.613,210.388l8.062,1.035c-8.062-1.035-19.724-0.934-27.321-0.32
			c-0.894-3.301,13.538-7.825,29.217-7.399C383.4,206.474,368.153,207.699,376.613,210.388z"/>
		<path fill="#FFFFFF" d="M-19.419,169.117c-5.095,10.509,21.575,23.502,54.65,30.922l-11.003,17.713
			c-25.031-6.395-73.59,1.729-111.745,4.801c-14.418,4.524,35.831,3.005-1.481,9.368c-4.427-2.162-1.655-6.593-9.717-7.628
			c-33.296,6.894-14.654,18.85-88.195,20.564l-25.014-6.389c-126.078,9.322-256.41,32.44-376.996,32.898
			c-20.757,10.087-82.681,11.708-119.548,19.732l-1.241-4.955c-20.791,10.083-57.879,2.139-84.373,5.121l-24.151-3.101
			c-9.704-7.633,67.832-8.829,45.593-19.653c-51.492-3.415-85.025,17.781-129.269,12.094c-42.581,0.91-37.291,6.371-63.372,10.997
			c-6.372,5.566,8.891,4.332,6.564,10.404c-94.759,10.16-101.534-16.202-185.028-7.8c-2.755,4.43-68.851,19.853-6.144,21.531
			l29.23-7.403l20.57,4.228c-22.894,1.843-65.064,4.402-59.774,9.861c-31.548-16.803-156.027,29.397-94.522-4.155
			c39.432,1.869,50.696,0.11,75.482-9.451c-88.403,4.602-166.771,2.507-239.499,7.528l-20.754,10.078
			c-2.137-8.234-37.968-11.236-72.889-10.948c-14.831,2.892-34.142,3.59-29.233,7.407c-6.389,5.565,126.925-6.018,65.657,13.212
			c-81.157,2.334-167.22,0.85-219.953-7.513c37.74-4.722,65.064-4.399,104.284-18.502c134.775-20.949,282.254-22.739,412.632-45.863
			c5.29,5.462,40.278,5.162,30.274,11.861c12.505,3.196,45.818-3.692,55.522,3.941c101.115-15.715,220.82-19.481,312.824-25.22
			c-26.703-12.98,54.899-13.667,80.1-21.59c24.6,4.747,65.924-1.106,96.435-3.56c3.169-2.784,22.048-5.137,17.156-8.952
			c-22.463,3.491-30.922,0.809-54.231,1.003c8.697-11.631,49.8-3.173,84.341-5.108l-17.588,7.3
			c57.434-3.786,127.137,9.947,178.033-4.252l-44.719-7.331c63.786-9.354,143.857-0.659,190.314-17.016
			c-43.05-0.746-113.624,12.519-113.387-1.797c1.895-7.726,51.695-10.898,75.452-9.449
			C-185.183,190.894-108.829,154.46-19.419,169.117z"/>
		<path fill="#FFFFFF" d="M-159.492,154.336c-83.926,6.761-40.701,23.465-121.457,27.449c9.559-8.337-30.254-11.862-57.194-10.54
			c-25.648,6.279-57.018,5.446-79.878,7.297c-15.71-0.431-14.232-9.799,16.325-12.265
			C-325.189,176.098-231.966,145.037-159.492,154.336z"/>
		<path fill="#FFFFFF" d="M-83.84,191.133c-41.789,4.207-27.121-14.636-68.014-7.139c16.742-10.594,22.861-1.837,61.015-4.917
			l-21.632,6.804L-83.84,191.133z"/>
		<path fill="#FFFFFF" d="M-426.321,191.814c-26.512,2.98-88.77,2.949-91.322-6.934c-4.013-0.524,2.343-6.083-12.506-3.201
			C-506.396,183.123-437.332,179.245-426.321,191.814z"/>
		<path fill="#FFFFFF" d="M-305.349,223.287c-14.829,2.874-30.093,4.1-52.953,5.948C-343.47,226.357-325.485,220.7-305.349,223.287z
			"/>
		<path fill="#FFFFFF" d="M-459.82,213.017c5.735,7.109-22.48,3.489-30.079,4.103l-16.14-2.062
			C-491.173,212.189-472.296,209.812-459.82,213.017z"/>
		<path fill="#FFFFFF" d="M-690.987,207.252c-39-0.221,39.635-12.44-6.581-10.41l26.492-2.964l10.596,10.916L-690.987,207.252z"/>
		<path fill="#FFFFFF" d="M-750.956,201.157c-10.85,3.397-22.082,5.139-41.789,4.2l10.422-5.045
			C-775.158,198.057-766.216,202.383-750.956,201.157z"/>
		<path fill="#FFFFFF" d="M-698.426,223.843c-18.481,4.007-16.123-2.066-28.214-3.617
			C-719.822,216.314-679.595,221.476-698.426,223.843z"/>
		<path fill="#FFFFFF" d="M-879.488,307.397c16.741-10.598,52.559-7.595,86.269-12.836
			C-826.929,299.802-840.902,305.973-879.488,307.397z"/>
		<path fill="#FFFFFF" d="M652.843,88.034c16.09,2.065,34.54-1.936,45.34-5.333l-8.51-2.685L652.843,88.034z"/>
		<path fill="#FFFFFF" d="M422.252,99.89c-16.31,12.245,12.923,4.838,45.568,10.628c42.585-0.91,86.248-12.849,128.452-15.404
			l25.217-7.92C570.827,87.078,482.025,90.023,422.252,99.89z"/>
		<path fill="#FFFFFF" d="M394.034,156.839c31.765,2.489,71.864-8.321,94.725-10.158c-38.57,1.413-88.373,4.589-115.279,5.922
			C370.277,155.386,385.972,155.794,394.034,156.839z"/>
		<path fill="#FFFFFF" d="M1060.363,52.673c-53.385,4.3-128.183,1.075-185.853,19.18c27.355,0.324,28.201,3.614,70.768,2.705
			c-30.727,16.78-65.479,2.753-103.633,5.833c31.386,0.825-9.078,9.978-35.606,12.963c-50.629-0.122-130.54,7.152-199.221,12.688
			c-29.213,7.402-126.925,6.025-111.882,19.102c-41.788,4.218-48.339-6.19-79.69-7.033c-91.347,23.343-168.224-18.41-266.388,8.853
			c5.526-8.86-43.829-4.048-63.139-3.325c-42.153,2.558-141.758,8.896-118.685,23.024c29.458,8.561,86.236-12.834,130.953-5.513
			c76.922,11.467-78.602,12.224-78.839,26.54c10.817-3.384,17.799,8.668,51.061,1.77c-71.005,11.621,30.703,13.523-5.314,24.837
			c82.428,2.608,74.814,3.22,117.607,18.272c48.958-6.466,34.345-17.906,47.92-25.734c51.693-10.891,94.024,2.526,139.033-4.472
			c-32.656,24.501,76.918,11.467,130.306,7.171c69.076-3.885,21.853-21.107,94.962-24.477c37.074,7.939-72.914,19.33-24.197,27.179
			l33.266-6.881c20.804-10.09,37.117-22.34,62.351-30.258c15.26-1.234,38.154-3.08,38.983,0.218
			c-29.698,5.762-19.944,13.384,11.888,15.864c14.402-4.514,17.985-5.654,24.773-9.564c-63.333-19.286,64.664-6.035,107.006-22.919
			c125.072-28.574,68.238,23.093,191.799,3.895c-39.607-17.837,81.407-16.654,121.457-27.455
			c34.539-1.947,47.477,2.909,72.043,7.658c9.321-2.938,35.876-6.019,39.628-10.304c-21.243-26.189-103.082-46.413-208.307-61.807
			C1062.638,51.41,1060.24,52.088,1060.363,52.673z"/>
	</g>
	<g clip-path="url(#SVGID_2_)">
		<path fill="#B36500" d="M1487.621,249.667c5.11-0.111,9.947-0.216,9.947-0.216c0.018-0.697-0.074-1.385-0.109-2.097
			C1493.867,248.129,1490.647,248.895,1487.621,249.667z"/>
		<path fill="#B36500" d="M1477.238,275.439c1.03-0.022,2.088-0.045,3.132-0.068c-0.343-0.573-0.382-1.129-0.561-1.71
			C1478.997,274.264,1478.2,274.871,1477.238,275.439z"/>
		<path fill="#B36500" d="M1497.46,247.286c-0.557-7.783-4.494-15.477,0.763-23.391c5.496-0.119,16.476-0.357,22.011-0.477
			c5.608-4.378,0.218-8.511,0.328-12.781c5.498-0.119,10.994-0.238,11.049-2.365c3.742-5.666-2.111-9.247-12.739-10.34
			C1494.571,222.328,1434.005,232.147,1497.46,247.286z"/>
		<path fill="#B36500" d="M1453.136,265.318c9.646-0.209,19.29-0.418,28.95-0.627c3.133-4.956,7.342-9.93,4.538-14.752
			C1471.542,253.851,1462.286,258.165,1453.136,265.318z"/>
		<path fill="#B36500" d="M-791.149,323.176c-0.048,1.308-0.558,2.005-5.484,0.198
			C-794.708,323.333-792.947,323.236-791.149,323.176c0.102-1.219-0.171-2.988,2.336-3.818c-19.242,2.835-41.711,5.612-63.491,6.758
			c-2.889,2.326-5.683,4.672-8.229,7.017c53.88-2.438,107.742-3.605,152.111-15.926
			C-739.597,317.882-761.13,322.085-791.149,323.176z"/>
		<path fill="#B36500" d="M-865.051,346.062c-1.869,0.062-3.629,0.169-5.484,0.209
			C-865.651,348.079-865.127,347.382-865.051,346.062z"/>
		<path fill="#B36500" d="M96.109,277.148c33.297-2.559,62.644-10.56,92.311-18.334c-62.754,7.412-127.037,11.828-175.007,20.998
			C40.866,278.685,68.409,277.749,96.109,277.148z"/>
		<path fill="#B36500" d="M335.828,227.543c-41.049-3.084-75.11,2.973-107.667,10.9c32.984-2.644,65.759-5.15,98.367-7.52
			C329.606,229.805,332.858,228.75,335.828,227.543z"/>
		<path fill="#B36500" d="M289.828,241.835c-37.656,0.71-69.708,8.695-101.408,16.98
			C223.915,254.639,258.681,249.407,289.828,241.835z"/>
		<path fill="#B36500" d="M-460.744,453.671c-24.918,6.693-40.005,9.719-48.555,10.6c-3.855,3.054-8.949,6.82-15.84,11.538
			c1.444-0.031,2.98-0.064,4.41-0.096c25.655-4.397,51.671-8.425,77.983-12.231c10.787-2.923,21.085-6.047,29.749-9.752
			C-428.921,453.512-444.917,453.387-460.744,453.671z"/>
		<path fill="#B36500" d="M-509.298,464.271C-476.398,438.113-542.698,467.678-509.298,464.271L-509.298,464.271z"/>
		<path fill="#B36500" d="M-345.743,327.053c1.25-0.032,2.527-0.06,3.791-0.099c3.654-0.568,7.416-1.106,11.057-1.69
			C-335.95,325.868-340.758,326.466-345.743,327.053z"/>
		<path fill="#B36500" d="M-40.752,380.713c-21.759,1.317-43.575,3.314-65.034,5.825c44.189-3.215,88.751-6.392,125.776-13.528
			c-5.482,0.119-10.965-1.898-16.46-1.779C-7.585,375.727-24.181,380.354-40.752,380.713z"/>
		<path fill="#B36500" d="M-517.946,350.608c59.988-6.704,118.901-14.792,175.995-23.654
			c115.546-3.285,227.067-10.792,327.565-30.366c88.511-18.963,242.509-18.034,331.47-54.01c-9.445-0.71-18.516-0.922-27.255-0.744
			c12.99-3.182,25.263-6.79,36.7-10.912c145.611-10.552,288.446-18.211,437.002-21.43c22.039-0.477,38.718-7.236,60.743-7.714
			c22.309-0.808,44.249-1.708,66.108-2.633c0.094-0.481-0.17-0.947-0.76-1.397c90.751-4.655,180.072-10.794,274.164-19.825
			c44.093-3.081,88.13-1.91,132.123-2.863c16.518-0.358,16.3,8.159,27.264,10.057c43.748,9.69,76.56,17.502,125.97,20.681
			c0,0-0.109,4.264-0.164,6.39c7.616-0.893,14.43-0.971,19.99-0.406c-24.286,24.405-84.835,34.223-21.382,49.362
			c0,0.016-0.001,0.037-0.002,0.07c-3.563,0.762-6.766,1.527-9.824,2.311c-0.383,0.008-0.712,0.016-1.069,0.023
			c0.037,0.079,0.035,0.165,0.062,0.233c-15.096,3.914-24.296,8.231-33.476,15.385c9.632-0.209,19.278-0.418,28.95-0.627
			c-1.903,3.022-3.161,6.041-2.247,9.001c-0.853,0.582-1.639,1.184-2.587,1.751c-4.286,0.093-7.885,0.171-7.885,0.171
			c-1.443,1.673-2.518,3.337-3.261,4.99c-25.487,9.703-65.415,15.333-57.988,24.009c5.765,4.413,24.331,0.083,45.356-3.104
			c1.243,0.776,2.679,1.483,4.15,2.031c-27.578,2.723-0.382,14.907-16.94,17.385c-22.011,0.477-44.062,3.107-66.073,3.584
			c-89.627,1.942-165.224,5.695-253.433,13.987c-3.896,0.366-7.749,0.673-11.615,1.002c-42.758,3.577-83.068,4.908-124.824,4.15
			c2.705-1.52,5.529-2.947,8.418-4.317c-33.586-0.632-67.262-0.38-101.023,3.597c-82.782,10.311-165.55,20.618-253.664,24.652
			c-92.321,3.706-181.291,10.092-275.153,19.256c38.403-5.577,76.749-10.717,116.055-13.03c17.624-0.159,35.18-0.433,52.243-1.238
			c-17.665-0.308-35.022,0.217-52.243,1.238c-67.811,0.614-137.435-0.438-190.214,20.678c-5.616-1.648-5.562-3.774-11.043-3.655
			c-38.554,0.835-77.011-0.462-110.248,8.781c-0.054,2.126-16.598,2.485-11.197,6.624c-33.085,2.848-71.638,3.683-104.752,8.652
			c-14.339,1.692-28.69,6.089-43.108,11.407c-118.458,13.969-235.568,28-363.187,41.567c-31.681,2.723-68.177,3.593-100.191,4.297
			c47.296-8.13,95.99-15.077,145.426-21.441c47.774,0.532,93.569-0.481,131.553-12.229c8.832-2.221,17.604-4.324,26.429-6.301
			c-53.236,5.855-106.069,11.857-157.982,18.529c-28.215-0.297-57.099-1.133-85.455-0.603c0.581-0.162,1.108-0.332,1.714-0.483
			c22.317-3.226,44.819-6.296,67.485-9.204c42.489,0.465,83.375-0.293,118.636-8.725c4.395-1.056,8.763-2.198,12.942-3.51
			c8.792-2.221,17.62-4.315,26.418-6.29c-32.828,3.602-65.51,7.296-97.895,11.138c-20.096,2.386-40.166,4.824-60.101,7.387
			c-12.481-0.139-25.122-0.37-37.736-0.548c1.344-0.556,2.773-1.112,3.998-1.723c11.116-2.355,42.576-28.048,26.239-34.086
			c-84.75,2.367-203.94,15.067-203.886,12.935c-5.252-8.403,140.254-22.73,134.824-24.748c-8.108-0.781-16.236-1.408-24.337-1.928
			c7.766-1.901,15.367-3.84,22.372-6.011c16.555-2.484,38.526-0.835,49.668-5.332c38.842-13.616,82.782-10.312,127.024-19.767
			c27.727-6.998,60.933-16.225,94.17-25.478c0.109-4.249,16.609-2.481,11.194-6.629c31.069-0.674,67.011-1.452,80.643-14.176
			c0.76-0.139,1.517-0.246,2.263-0.384c2.186-0.048,5.322-0.822,8.673-1.867c51.633,1.065,88.002-11.535,135.078-20.738
			c16.146-1.439,32.556-2.506,49.428-2.872c-11.019,0.239-27.466-1.531-38.554,0.836c-3.67,0.653-7.299,1.338-10.874,2.036
			c-41.854,3.724-81.777,10.258-121.617,15.738c-3.277,1.33-8.548,3.464-13.462,4.999c-2.87-0.045-5.726-0.121-8.619-0.265
			c-0.709,0.893-1.487,1.728-2.317,2.516c-38.159,6.932-81.195,10.059-113.742,17.033c-61.26,8.591-126.294,6.43-188.561,6.558
			c31.09-4.234,61.759-8.761,91.872-13.516c-37.685,4.456-73.229,8.898-107.737,13.62c-5.328,0.052-10.55,0.122-15.812,0.236
			l-33.058,0.716c10.267,0.719,20.443,1.21,30.568,1.617c-20.605,2.902-40.965,5.904-61.027,9.16
			c-110.629,12.355-224.679,19.997-336.313,19.126c2.25-2.642,4.832-5.275,7.686-7.897c53.891-2.438,107.725-3.604,152.08-15.926
			c-31.091,0.674-52.677,4.877-82.682,5.963c0.057-1.223-0.185-2.977,2.337-3.813c-19.245,2.835-41.714,5.612-63.508,6.754
			c7.109-5.665,15.066-11.293,23.009-16.934c11.143-4.498,27.646-4.855,44.23-7.34c71.54-5.233,138.839-5.602,209.347-12.283
			c62.632-0.55,125.199-1.104,186.654-2.812C-406.917,334.376-463.175,341.711-517.946,350.608z M1330.553,254.914
			c-5.67,1.005-11.536,2.174-17.39,3.432c0.894,0.454,1.748,0.918,2.573,1.432C1321.066,259.663,1326.393,257.555,1330.553,254.914z
			 M1201.837,255.648c37.703,2.849,87.581-3.114,135.757-7.474c0.288-0.59,0.468-1.158,0.481-1.647
			C1297.784,245.439,1248.035,251.718,1201.837,255.648z M1051.995,214.682c0.284,0.233,0.593,0.45,0.888,0.677
			c-0.017-0.329-0.065-0.653-0.057-0.971C1052.562,214.494,1052.287,214.59,1051.995,214.682z M379.513,297.091
			c44.308-11.593,99.38-12.786,154.53-18.248c16.515-0.358,33.209-9.231,55.248-9.709c27.589-2.712,44.199-7.339,66.292-9.943
			l-16.434-3.9c38.502,1.28,60.854-11.968,99.257-8.533c0.055-2.137,5.66-6.52,11.169-6.64c27.564-2.722,55.017,0.939,77.137-3.797
			c27.575-2.728,55.07-3.324,77.218-8.054c5.524-0.12,16.665-6.753,27.753-9.13c13.444-1.146,26.912-1.98,40.349-2.861
			c-0.59-0.561-1.124-1.118-1.605-1.666c-10.933,0.152-22.042,0.61-33.166,2.281c-33.167,4.98-71.791,10.084-104.862,12.926
			c-82.715,6.043-159.999,16.235-237.257,26.427c-16.555,2.473-33.208,7.101-49.752,9.579c-49.778,9.596-110.29,8.782-143.66,24.399
			C396.151,292.479,385.146,292.717,379.513,297.091z M315.605,390.775c58.27-10.322,122.691-15.836,177.441-15.247
			c44.078-0.955,170.965-16.474,149.592-41.557C586.929,381.564,278.604,342.783,315.605,390.775z M-144.588,439.87
			c23.143-3.843,45.518-7.347,71.722-7.915C-96.776,434.647-120.667,437.263-144.588,439.87z M92.135,348.025
			C20.209,364.477-56.898,368.3-128.674,378.351c-55.232,7.579-115.499-1.753-165.415,14.234c-0.055,2.126-0.109,4.258-0.164,6.39
			l5.539-2.251c19.3,0.835,34.779,3.911,50.933,5.336c-0.925,0.222-1.92,0.403-2.845,0.624c1.624-0.162,3.248-0.299,4.9-0.451
			c10.786,0.867,21.989,0.921,34.961-1.023c5.95-1.155,12.005-2.28,18.088-3.362c68.909-5.261,140-10.095,202.667-24.838
			c38.692-7.214,71.981-18.589,110.685-25.82C119.698,347.428,103.209,345.66,92.135,348.025z"/>
		<path fill="#B36500" d="M-416.483,353.398c-23.85,3.121-47.874,6.102-72.099,8.815c-18.713,3.041-37.306,6.25-55.892,9.724
			c-88.656,13.318-191.798,11.711-286.846,18.899c-2.963,6.324-3.456,12.716-0.204,19.245
			c102.899,4.709,206.255-8.939,309.185-7.614c0.802-0.251,1.632-0.461,2.435-0.733c44.394-13.731,115.84-11.033,171.157-22.87
			c55.368-13.968,110.535-19.419,165.823-31.27C-262.465,349.317-338.193,355.548-416.483,353.398z"/>
		<path fill="#B36500" d="M228.161,238.443c-21.59,1.732-43.291,3.493-65.173,5.338c-60.913,6.363-115.034,13.917-170.41,22.805
			c40.518-1.983,81.248-3.562,122.275-4.451C155.995,258.98,191.073,247.493,228.161,238.443z"/>
		<path fill="#B36500" d="M-52.34,273.999c15.186-2.592,30.067-5.04,44.918-7.413c-60.06,2.938-119.689,6.792-179.199,10.855
			c-97.939,10.793-195.906,20.456-293.913,33.791c-11.13,1.389-22.174,2.569-33.146,3.592
			c181.801-1.538,363.038-3.053,518.068-33.261c2.842-0.619,6.015-1.166,9.025-1.752c-73.492,3.038-146.228,7.712-218.764,12.652
			C-154.342,286.831-103.34,280.928-52.34,273.999z"/>
		<path fill="#B36500" d="M-393.389,350.38c-5.33,0.014-10.59,0.049-15.864,0.104c-6.172,0.836-12.238,1.699-18.301,2.569
			c3.704,0.122,7.41,0.243,11.072,0.345C-408.751,352.386-401.037,351.427-393.389,350.38z"/>
		<path fill="#B36500" d="M-237.78,402.06c0.671,0.065,1.355,0.13,2.054,0.173c17.427-1.6,35.164-3.015,53.05-4.386
			c24.721-4.399,50.541-8.241,76.891-11.31C-153.485,389.994-200.677,393.519-237.78,402.06z"/>
		<path fill="#B36500" d="M-86.509,449.817c5.51-0.12,16.49-0.358,22.027-0.477c3.385-1.369,6.73-2.723,10.114-4.066
			c-5.15,0.005-10.355-0.021-15.542-0.072L-86.509,449.817z"/>
		<path fill="#B36500" d="M239.296,408.337c-97.78,10.413-189.471,21.098-280.349,31.809c-4.438,1.637-8.889,3.359-13.316,5.129
			c60.807-0.016,121.387-4.049,177.473-17.028c11.049-2.37,27.755-9.114,38.747-9.353c52.166-3.149,101.955-10.992,151.604-18.206
			c-23.706,2.316-47.648,4.758-72.12,7.446C240.647,408.191,239.984,408.268,239.296,408.337z"/>
	</g>
</g>
</svg>
