<?xml version="1.0" encoding="utf-8"?>
<!-- Generator: Adobe Illustrator 17.0.0, SVG Export Plug-In . SVG Version: 6.00 Build 0)  -->
<!DOCTYPE svg PUBLIC "-//W3C//DTD SVG 1.1//EN" "http://www.w3.org/Graphics/SVG/1.1/DTD/svg11.dtd">
<svg version="1.1" id="Слой_1" xmlns="http://www.w3.org/2000/svg" xmlns:xlink="http://www.w3.org/1999/xlink" x="0px" y="0px"
	 width="118.738px" height="120.143px" viewBox="0 0 118.738 120.143" enable-background="new 0 0 118.738 120.143"
	 xml:space="preserve">
<g>
	<g>
		<path fill="#E16300" d="M115.823,35.326c-1.084-3.722-2.518-7.431-4.533-10.963c-0.965-1.779-2.166-3.47-3.421-5.12l-1.016-1.194
			l-0.51-0.596l-0.55-0.567l-1.108-1.129l-1.187-1.057c-0.113-0.069-0.229-0.141-0.342-0.21c-3.126-1.893-7.383-3.949-11.995-5.009
			c-4.61-1.034-9.451-1.144-13.453-0.442c-4.001,0.8-7.812,1.772-11.555,2.959c-2.045,0.652-4.059,1.374-6.032,2.178
			c-0.48,0.128-0.96,0.26-1.44,0.397c3.03-1.521,6.071-2.836,8.819-3.809c3.032-0.983,6.161-1.567,9.288-1.904
			c3.127-0.335,6.19-0.511,9.203-0.729c0.433-0.056,0.972-0.013,1.575,0.038c0.603,0.068,1.27,0.119,1.96,0.287
			c0.691,0.15,1.408,0.304,2.111,0.469c0.7,0.201,1.388,0.392,2.033,0.548c0.564,0.067,1.132,0.243,1.729,0.381
			c0.593,0.153,1.209,0.298,1.809,0.529c-0.582-0.346-1.195-0.606-1.801-0.895c-0.608-0.285-1.216-0.581-1.84-0.805
			c-0.099-0.057,0.172-0.01,0.725,0.117c0.547,0.16,1.369,0.428,2.381,0.769c1.995,0.762,4.7,2.045,7.157,3.791
			c2.487,1.71,4.616,3.851,6.084,5.451c0.369,0.402,0.705,0.768,0.997,1.087c0.285,0.323,0.518,0.602,0.72,0.817
			c0.4,0.432,0.638,0.619,0.657,0.469c0.02-0.013-0.144-0.283-0.466-0.768c-0.166-0.24-0.35-0.542-0.609-0.877
			c-0.261-0.333-0.559-0.715-0.89-1.139c-1.35-1.668-3.433-3.966-6.327-6.07c-2.871-2.117-6.525-3.94-10.293-5.042
			C89.934,6.16,86.11,5.701,82.736,5.561c-1.298-0.328-0.729-1.022,0.46-1.646c0.588-0.327,1.358-0.547,2.09-0.738
			c0.737-0.173,1.436-0.31,1.927-0.271c0.218-0.02,0.471-0.028,0.71-0.039c-1.107-0.222-2.18-0.305-3.268-0.434
			c-1.094-0.145-2.139-0.152-3.201-0.212c-3.341,0.142-6.615,0.542-9.688,1.147c-4.985,0.94-9.805,2.311-14.476,4.012
			c1.214-0.561,2.47-1.047,3.706-1.59c0.586-0.266,1.215-0.508,1.847-0.752c2.537-0.977,5.417-1.704,8.519-2.202
			c0.781-0.115,1.561-0.236,2.37-0.329c0.824-0.07,1.656-0.14,2.495-0.211c0.831-0.081,1.708-0.079,2.577-0.098
			c0.871-0.014,1.742-0.035,2.65,0.023c3.806-0.156,7.794,0.056,11.864,0.932c0.112,0.019,0.21,0.036,0.317,0.055
			c-5.11-1.487-10.224-1.976-14.969-1.928l-1.63,0.145l-1.59,0.219c-1.06,0.148-2.126,0.291-3.134,0.497
			c-1.022,0.192-2.05,0.372-3.051,0.612c-1.006,0.23-2.021,0.44-3.009,0.714c-3.984,1.017-7.865,2.28-11.651,3.749
			c1.231-0.554,2.448-1.135,3.699-1.679c2.652-1.282,5.769-2.286,9.182-3.032c0.86-0.172,1.734-0.336,2.621-0.494
			c0.894-0.14,1.809-0.253,2.729-0.371c0.455-0.064,0.931-0.106,1.415-0.14c0.481-0.036,0.964-0.071,1.449-0.107
			c0.487-0.031,0.968-0.073,1.464-0.09c0.5-0.008,1.002-0.015,1.505-0.023c4.132-0.362,8.489-0.341,12.996,0.41
			c4.492,0.741,9.14,2.275,13.391,4.696c-2.767-1.82-5.956-3.356-9.172-4.41c-3.228-1.095-6.425-1.597-9.319-1.861
			c-5.81-0.384-11.137,0.226-15.965,1.154c-4.851,0.937-9.406,2.284-13.779,3.863c-8.729,3.187-16.726,7.352-24.172,12.472
			c-1.629,1.521-3.233,3.019-4.944,4.367c-3.886,3.192-8.419,6.982-11.835,10.819c0.861-0.354-0.888,1.516-0.739,1.652
			c-1.476,2.106-3.07,4.379-4.725,6.74c-1.612,2.411-3.235,4.981-4.574,7.757c-0.381,0.787-0.535,0.719-1.052,1.49
			c-0.854,4.223-1.887,9.018-2.137,14.231c-0.011,0.651-0.022,1.306-0.032,1.966c-0.006,0.329-0.013,0.66-0.019,0.991
			c0.011,0.316,0.022,0.634,0.033,0.952c0.021,0.634,0.043,1.272,0.064,1.912c0.034,0.64,0.095,1.283,0.14,1.928
			c0.069,1.291,0.273,2.583,0.422,3.88c0.095,0.646,0.219,1.29,0.329,1.936l0.171,0.967c0.065,0.321,0.144,0.639,0.216,0.958
			c0.168,0.643,0.336,1.286,0.504,1.932c0.195,0.639,0.39,1.28,0.586,1.923c0.18,0.648,0.416,1.281,0.636,1.923
			c0.229,0.638,0.422,1.293,0.686,1.926c-0.995-2.445-1.856-5.04-2.411-7.704c-0.206-0.731-0.358-1.469-0.516-2.206
			c-0.156-0.736-0.337-1.468-0.449-2.207C2.87,75,2.742,74.263,2.615,73.528c-0.097-0.739-0.194-1.476-0.29-2.213
			c-0.114-0.738-0.149-1.475-0.222-2.214c-0.062-0.741-0.147-1.462-0.149-2.261l-0.055-2.351l0.114-2.349l-0.111,1.433
			c-0.037,0.476-0.078,0.95-0.067,1.429c0.001,0.95-0.013,1.913,0.013,2.838c0.058,0.893,0.117,1.784,0.175,2.673
			c0.084,0.888,0.198,1.773,0.296,2.654c0.471,3.524,1.254,6.987,2.36,10.337c2.206,6.702,5.733,12.94,10.408,18.296
			c4.477,5.107,9.868,9.012,15.57,11.744c5.706,2.745,11.701,4.42,17.719,5.17c4.909,0.665,9.769,1.052,14.715,1.017
			c-0.416,0.129-0.824,0.263-1.217,0.405c3.097,0.045,6.149-0.246,9.16-0.813c3.009-0.574,5.996-1.395,8.925-2.593
			c0.537-0.194,1.051-0.447,1.579-0.674c2.974-1.327,5.732-2.823,8.304-4.491c2.566-1.678,4.957-3.505,7.21-5.492
			c0.553-0.509,1.129-0.992,1.663-1.521c0.536-0.527,1.073-1.056,1.612-1.586c0.514-0.553,1.031-1.108,1.549-1.665
			c0.52-0.555,0.995-1.155,1.498-1.735c1.963-2.361,3.796-4.919,5.463-7.728c1.642-2.762,2.865-5.741,3.98-8.734
			c0.343-1.152-0.138-0.896-0.506-0.822c-0.382,0.071-0.692-0.05-0.162-1.921c-0.117,0.182-0.246,0.356-0.372,0.501
			c-0.088,0.36-0.174,0.715-0.258,1.062c-0.088,0.346-0.193,0.678-0.286,1.004c-0.192,0.648-0.364,1.259-0.553,1.792
			c-0.402,1.056-0.772,1.839-1.128,2.129c-0.585,0.316-0.389-0.85,0.017-2.507c0.177-0.832,0.384-1.803,0.592-2.783
			c0.15-0.992,0.313-1.978,0.364-2.859c-0.035-0.041-0.067-0.094-0.1-0.143c2.117-5.619,2.954-11.719,2.15-18.078
			C110.566,44.59,108,28.382,98.598,19.193c0.634,0.499,1.251,1.02,1.836,1.579c1.739,1.47,3.225,3.229,4.481,5.145
			c1.261,1.915,2.305,3.982,3.19,6.133c1.733,4.326,2.84,8.954,3.682,13.786c0.248,1.112,0.442,2.234,0.612,3.266
			c0.191,1.029,0.358,1.969,0.611,2.715c0.591,1.037,1.133,2.094,1.693,3.041c-0.215-3.044-0.716-6.158-1.295-8.784
			c0.116,0.337,0.268,0.277,0.378,0.266c-0.137-1.043-0.317-2.005-0.508-2.928c-0.174-0.926-0.409-1.807-0.622-2.693
			c-0.208-0.888-0.483-1.766-0.72-2.696c-0.274-0.921-0.538-1.89-0.856-2.931c1.383,2.81,2.374,6.163,3.043,9.729
			c0.671,3.57,1.023,7.356,1.254,11.135c0.247,0.381,0.494,0.726,0.741,1.025c-0.176-7.871-1.067-15.96-3.758-23.673
			c-0.154-0.484-0.35-0.957-0.535-1.433c-0.19-0.474-0.366-0.952-0.57-1.42c-0.432-0.93-0.821-1.873-1.321-2.773
			c-0.919-1.83-2.055-3.562-3.292-5.198c-1.246-1.637-2.704-3.105-4.244-4.441c-0.816-0.619-1.592-1.278-2.466-1.802
			c-0.432-0.266-0.837-0.57-1.289-0.799l-1.333-0.71c-2.652-1.215-5.484-1.997-8.358-2.398c1.386,0.352,2.746,0.831,4.07,1.406
			c0,0-0.067-0.027-0.185-0.074c-0.116-0.051-0.286-0.114-0.495-0.175c-0.414-0.13-0.967-0.304-1.52-0.478
			c-0.549-0.187-1.123-0.279-1.543-0.391c-0.423-0.099-0.705-0.165-0.705-0.165c-0.357-0.094-0.72-0.148-1.084-0.207
			c-0.363-0.061-0.728-0.121-1.096-0.182c-0.599-0.067-1.206-0.067-1.813-0.078c-0.408-0.001-0.815-0.02-1.224-0.023
			c-0.369-0.053-0.744-0.099-1.122-0.141c0.649-0.023,1.299-0.036,1.954-0.028c-1.083-0.145-2.18-0.149-3.281-0.209
			c-0.813-0.03-1.628-0.009-2.446,0.005c-1.733-0.028-3.562,0.047-5.489,0.227c2.072-0.292,4.16-0.501,6.267-0.526
			c0.681-0.021,1.363-0.039,2.047,0.003c0.683,0.031,1.368,0.045,2.051,0.096c0.682,0.076,1.365,0.153,2.049,0.229
			c0.684,0.075,1.359,0.238,2.039,0.358c3.336,0.346,6.734,1.164,9.881,2.751c2.476,1.123,4.81,2.631,6.889,4.462
			c2.448,2.223,4.501,5.053,6.127,8.137c1.63,3.091,2.839,6.442,3.747,9.857c1.798,6.849,2.466,13.922,2.927,20.638
			c0.579,0.379,1.158,0.412,1.737-0.099C118.789,50.328,117.977,42.787,115.823,35.326z M28.653,27.458
			c3.247-3.172,7.152-6.097,11.405-8.667c4.257-2.568,8.849-4.812,13.534-6.652c0.809-0.376,1.615-0.75,2.406-1.118
			c0.883-0.355,1.722-0.649,2.532-0.9c0.809-0.255,1.607-0.421,2.385-0.591c0.231-0.075,0.459-0.148,0.686-0.222
			c-0.126,0.052-0.262,0.108-0.389,0.16c1.164-0.256,2.344-0.379,3.556-0.568c1.223-0.157,2.501-0.316,3.911-0.517l0.766-0.324
			l0.097,0.569c-3.467,1.271-7.301,2.275-11.197,3.476c-3.889,1.194-7.834,2.587-11.336,4.464c-4.533,2.456-9.127,5.166-13.394,8.34
			c-2.774,2.072-5.428,4.316-7.813,6.739c-1.579,1.32-3.083,2.693-4.503,4.113c0.627-0.837,1.26-1.66,1.924-2.456
			C24.845,31.282,26.609,29.369,28.653,27.458z M21.705,104.789c-0.644-0.314-1.45-0.774-2.325-1.384
			c-0.851-0.635-1.829-1.363-2.76-2.257c-3.903-3.426-7.438-9.004-8.704-12.105c-1.6-3.848-2.956-8.173-3.855-12.665
			c-0.185-1.126-0.418-2.256-0.571-3.393c-0.139-1.137-0.33-2.277-0.408-3.414c-0.053-0.57-0.106-1.138-0.158-1.705
			c-0.044-0.575-0.047-1.182-0.073-1.771c-0.014-0.592-0.055-1.186-0.048-1.774c0.019-0.589,0.038-1.174,0.057-1.756
			c0.639-0.688,1.038-0.509,1.262,0.285c0.112,0.398,0.181,0.952,0.215,1.638c0.059,0.688,0.134,1.513,0.168,2.448
			c0.009,0.233,0.017,0.474,0.026,0.722c0.021,0.24,0.043,0.486,0.065,0.739c0.038,0.505,0.077,1.035,0.119,1.588
			c0.025,0.553,0.103,1.127,0.162,1.721c0.067,0.594,0.116,1.209,0.195,1.839c0.33,2.52,0.833,5.303,1.605,8.137
			c1.545,5.666,4.406,11.429,7.778,15.553c3.344,4.157,6.958,6.693,9.089,7.141C23.768,105.316,23.036,105.373,21.705,104.789z
			 M94.743,15.09c1.909,0.721,3.718,1.736,5.433,2.926c-1.607-1.028-3.269-1.965-5.064-2.62l-0.662-0.265
			c-0.221-0.086-0.455-0.146-0.681-0.22c-0.454-0.142-0.909-0.284-1.366-0.427c-0.352-0.093-0.709-0.172-1.065-0.253
			c-0.316-0.143-0.637-0.28-0.963-0.412C91.85,14.116,93.305,14.562,94.743,15.09z"/>
		<g>
			<path fill="#D24800" d="M112.972,62.785c0.005,0.258,0.009,0.502,0.014,0.758C113.153,62.861,113.091,62.79,112.972,62.785z"/>
			<path fill="#D24800" d="M87.924,2.867l2.08,0.379L92.1,3.763c0.696,0.157,1.395,0.389,2.091,0.614l1.042,0.338l0.519,0.171
				l0.516,0.205c2.257,0.553,4.06,1.246,5.462,1.87c1.391,0.664,2.416,1.203,3.098,1.687c0.751,0.22,1.773,0.503,3.057,1.086
				c-0.221-0.187-0.457-0.386-0.676-0.571c-4.225-2.968-9.109-4.969-13.89-6.011c-0.993-0.14-1.957-0.221-2.869-0.294
				C89.54,2.795,88.698,2.839,87.924,2.867z"/>
			<path fill="#D24800" d="M102.88,8.463c0.065,0.092,0.277,0.22,0.566,0.363c0.28,0.158,0.635,0.333,1,0.498
				c0.728,0.329,1.5,0.617,1.751,0.601c0.252-0.016-0.005-0.372-1.368-1.276c-0.804-0.23-1.318-0.322-1.627-0.324
				C102.898,8.316,102.816,8.371,102.88,8.463z"/>
			<path fill="#D24800" d="M35.592,22.099c2.659-1.675,5.342-3.338,8.063-4.836c-2.843,1.464-5.595,3.132-8.156,4.836
				c-2.557,1.714-4.874,3.555-6.846,5.358c0.641-0.464,1.401-0.775,2.042-1.237C31.766,24.998,33.541,23.345,35.592,22.099z"/>
			<path fill="#D24800" d="M87.428,11.98c-0.542-0.049-1.083-0.097-1.622-0.146c-0.541-0.021-1.08-0.026-1.615-0.037
				c0.742,0.086,1.479,0.125,2.205,0.27c0.858,0.085,1.716,0.11,2.556,0.266l-0.758-0.204C87.937,12.079,87.682,12.029,87.428,11.98
				z"/>
			<path fill="#D24800" d="M52.826,12.926c3-1.267,5.847-2.435,8.387-3.458c-0.097,0.02-0.196,0.041-0.297,0.062
				c-0.61,0.196-1.222,0.393-1.837,0.591c-0.607,0.215-1.217,0.43-1.829,0.646c-1.229,0.415-2.437,0.906-3.657,1.372
				c-3.27,1.549-6.608,3.262-9.937,5.125C46.717,15.668,49.832,14.207,52.826,12.926z"/>
			<path fill="#D24800" d="M38.282,13.521c-0.742,0.405-2.237,1.174-2.968,1.61c-0.387,0.358-0.77,0.711-1.157,1.068
				c0.689-0.383,1.382-0.778,2.083-1.15L38.282,13.521z"/>
			<path fill="#D24800" d="M4.778,50.431c1.401-3.692,3.202-7.111,5.231-10.272c2.024-3.172,4.322-6.037,6.728-8.725
				c2.415-2.68,4.962-5.17,7.633-7.446c2.669-2.278,5.414-4.435,8.277-6.383c0.495-0.481,1.005-0.94,1.51-1.406
				c-4.053,2.293-7.923,4.948-11.428,7.958c-3.503,3.007-6.639,6.376-9.176,10.012c-1.022,1.421-2.235,3.796-3.251,5.206
				c-2.382,3.371-4.32,7.019-5.73,10.855c-1.411,3.834-2.284,7.859-2.56,11.91c0.368-3.86,1.278-7.695,2.648-11.403
				C4.7,50.635,4.738,50.535,4.778,50.431z"/>
			<g>
				<path fill="#D24800" d="M5.689,75.764c-0.177-0.517-0.358-1.03-0.518-1.547c0.017,0.124,0.036,0.249,0.055,0.375
					c0.353,1.054,0.739,2.09,1.149,3.099C6.111,77.057,5.918,76.403,5.689,75.764z"/>
				<path fill="#D24800" d="M110.424,68.395c0.033,0.049,0.065,0.102,0.1,0.143c-0.051,0.881-0.214,1.867-0.364,2.859
					c-0.209,0.98-0.415,1.952-0.592,2.783c-0.405,1.656-0.602,2.823-0.017,2.507c0.356-0.289,0.726-1.073,1.128-2.129
					c0.189-0.533,0.36-1.145,0.553-1.792c0.092-0.325,0.198-0.657,0.286-1.004c0.084-0.347,0.171-0.702,0.258-1.062
					c0.126-0.145,0.255-0.318,0.372-0.501c-0.493,1.739-0.259,1.966,0.083,1.932c0.364-1.933,0.578-3.907,0.631-5.917
					C111.416,67.334,110.534,68.104,110.424,68.395z"/>
				<path fill="#D24800" d="M2.802,64.321c0.018-0.561,0.037-1.118,0.055-1.672c-0.01-0.134-0.024-0.269-0.031-0.403
					c-0.001-0.016-0.002-0.031-0.004-0.047c-0.051,0.539-0.091,1.084-0.127,1.633c0.036,0.209,0.073,0.418,0.109,0.627
					C2.805,64.413,2.802,64.367,2.802,64.321z"/>
				<path fill="#D24800" d="M112.31,82.284c-0.382,0.071-0.692-0.05-0.162-1.921c-0.117,0.182-0.246,0.356-0.372,0.501
					c-0.088,0.36-0.174,0.715-0.258,1.062c-0.088,0.346-0.193,0.678-0.286,1.004c-0.192,0.648-0.364,1.259-0.553,1.792
					c-0.402,1.056-0.772,1.839-1.128,2.129c-0.585,0.316-0.389-0.85,0.017-2.507c0.177-0.832,0.384-1.803,0.592-2.783
					c0.15-0.992,0.313-1.978,0.364-2.859c-0.022-0.026-0.042-0.058-0.063-0.089c-0.498,1.043-1.034,2.067-1.626,3.062
					c-1.667,2.809-3.5,5.367-5.463,7.728c-0.504,0.579-0.978,1.18-1.498,1.735c-0.518,0.557-1.034,1.112-1.549,1.665
					c-0.539,0.53-1.076,1.058-1.612,1.586c-0.535,0.53-1.111,1.013-1.663,1.521c-2.253,1.987-4.643,3.814-7.21,5.492
					c-2.572,1.669-5.33,3.164-8.304,4.491c-0.528,0.227-1.042,0.479-1.579,0.674c-2.929,1.198-5.916,2.019-8.925,2.593
					c-3.011,0.567-6.063,0.858-9.16,0.813c0.393-0.142,0.801-0.276,1.217-0.405c-4.946,0.035-9.806-0.352-14.715-1.017
					c-6.018-0.75-12.012-2.425-17.719-5.17c-5.702-2.733-11.093-6.637-15.57-11.744c-4.259-4.88-7.562-10.494-9.785-16.522
					c0.322,2.087,0.761,4.307,1.377,6.566c1.545,5.666,4.406,11.429,7.778,15.553c3.344,4.157,6.958,6.693,9.089,7.141
					c0.222,0.941-0.51,0.998-1.841,0.414c-0.644-0.314-1.45-0.774-2.325-1.384c-0.851-0.635-1.829-1.363-2.76-2.257
					c-3.903-3.426-7.438-9.004-8.704-12.105c-1.6-3.848-2.956-8.173-3.855-12.665c-0.185-1.126-0.418-2.256-0.571-3.393
					c-0.139-1.137-0.33-2.277-0.408-3.414c-0.053-0.57-0.106-1.138-0.158-1.705c-0.039-0.512-0.047-1.047-0.066-1.574
					c-0.079-0.409-0.153-0.82-0.222-1.231c-0.009,0.52-0.017,1.041-0.026,1.566c-0.006,0.329-0.013,0.66-0.019,0.991
					c0.011,0.316,0.022,0.634,0.033,0.952c0.021,0.634,0.043,1.272,0.064,1.912c0.034,0.64,0.095,1.283,0.14,1.928
					c0.069,1.291,0.273,2.583,0.422,3.88c0.095,0.646,0.219,1.29,0.329,1.936l0.171,0.967c0.065,0.321,0.144,0.639,0.216,0.958
					c0.168,0.643,0.336,1.286,0.504,1.932c0.195,0.639,0.39,1.28,0.586,1.923c0.18,0.648,0.416,1.281,0.636,1.923
					c0.229,0.638,0.422,1.293,0.686,1.926c-0.995-2.445-1.856-5.04-2.411-7.704c-0.206-0.731-0.358-1.469-0.516-2.206
					c-0.156-0.736-0.337-1.468-0.449-2.207C2.87,75,2.742,74.263,2.615,73.528c-0.097-0.739-0.194-1.476-0.29-2.213
					c-0.114-0.738-0.149-1.475-0.222-2.214c-0.062-0.741-0.147-1.462-0.149-2.261l-0.055-2.351l0.114-2.349l-0.111,1.433
					c-0.037,0.476-0.078,0.95-0.067,1.429c0.001,0.95-0.013,1.913,0.013,2.838c0.058,0.893,0.117,1.784,0.175,2.673
					c0.084,0.888,0.198,1.773,0.296,2.654c0.471,3.524,1.254,6.987,2.36,10.337c2.206,6.702,5.733,12.94,10.408,18.296
					c4.477,5.107,9.868,9.012,15.57,11.744c5.706,2.745,11.701,4.42,17.719,5.17c4.909,0.665,9.769,1.052,14.715,1.017
					c-0.416,0.129-0.824,0.263-1.217,0.405c3.097,0.045,6.149-0.246,9.16-0.813c3.009-0.574,5.996-1.395,8.925-2.593
					c0.537-0.194,1.051-0.447,1.579-0.674c2.974-1.327,5.732-2.823,8.304-4.491c2.566-1.678,4.957-3.505,7.21-5.492
					c0.553-0.509,1.129-0.992,1.663-1.521c0.536-0.527,1.073-1.056,1.612-1.586c0.514-0.553,1.031-1.108,1.549-1.665
					c0.52-0.555,0.995-1.155,1.498-1.735c1.963-2.361,3.796-4.919,5.463-7.728c1.642-2.762,2.865-5.741,3.98-8.734
					C113.159,81.954,112.678,82.21,112.31,82.284z"/>
				<path fill="#D24800" d="M16.62,90.984c0.931,0.893,1.909,1.622,2.76,2.257c0.875,0.61,1.681,1.07,2.325,1.384
					c1.331,0.583,2.063,0.527,1.841-0.414c-2.13-0.448-5.745-2.984-9.089-7.141c-3.372-4.124-6.233-9.887-7.778-15.553
					C5.907,68.683,5.404,65.9,5.074,63.38c-0.08-0.63-0.129-1.245-0.195-1.839c-0.06-0.594-0.137-1.169-0.162-1.721
					c-0.041-0.553-0.081-1.083-0.119-1.588c-0.022-0.253-0.044-0.499-0.065-0.739c-0.009-0.248-0.018-0.488-0.026-0.722
					c-0.034-0.934-0.109-1.76-0.168-2.448c-0.022-0.442-0.06-0.822-0.113-1.148c-0.411,2.064-0.811,4.244-1.116,6.525
					c0.07,0.823,0.186,1.646,0.297,2.469c0.332-0.103,0.566,0.143,0.717,0.68c0.112,0.398,0.181,0.952,0.215,1.638
					c0.059,0.688,0.134,1.513,0.168,2.448c0.009,0.233,0.017,0.474,0.026,0.722c0.021,0.24,0.043,0.486,0.065,0.739
					c0.008,0.111,0.017,0.228,0.026,0.342c0.863,3.583,1.995,7.019,3.293,10.14C9.182,81.979,12.717,87.558,16.62,90.984z"/>
			</g>
		</g>
		<g opacity="0.3">
			<path fill="#FFFFFF" d="M85.592,93.679c-0.488,0-0.965-0.241-1.246-0.683c-0.438-0.687-0.235-1.599,0.452-2.037
				c3.287-2.093,6.37-4.645,9.165-7.584c0.561-0.59,1.495-0.614,2.086-0.053c0.591,0.561,0.614,1.495,0.053,2.086
				c-2.959,3.114-6.229,5.819-9.719,8.041C86.137,93.604,85.863,93.679,85.592,93.679z"/>
		</g>
		<g opacity="0.3">
			<path fill="#FFFFFF" d="M57.373,101.499c-12.542,0-22.734-3.694-25.509-5.199c-0.716-0.389-0.982-1.284-0.594-2.001
				c0.389-0.716,1.284-0.982,2.001-0.594c3.325,1.803,24.397,9.232,44.285,1.016c0.752-0.311,1.616,0.047,1.927,0.8
				c0.311,0.753-0.047,1.616-0.8,1.927C71.427,100.446,64.065,101.499,57.373,101.499z"/>
		</g>
	</g>
	<path fill="#943500" d="M113.842,41.303c-1.104-0.5-2.477-1.122-4.118-0.947c-2.93,0.312-4.242,3.075-5.211,5.117
		c-0.878,1.884-1.697,3.645-2.517,5.326c0.936-3.018,1.136-3.819,1.136-4.571c0-1.106-0.507-4.678-7.028-4.211l-3.259,0.233v1.506
		c-0.293-0.059-0.597-0.097-0.923-0.088c0.012-0.139,0.018-0.267,0.018-0.392c0-3.732-3.68-4.252-6.768-4.032l-3.1,0.221
		c0.471-1.025,0.749-1.979,0.749-2.678c0-3.14-2.782-4.873-7.087-4.414l-2.894,0.318l-0.244,2.909
		c-0.002,0.024-0.212,2.412-1.311,5.964l-0.661,2.135l0.665,0.461l-2.278,0.163v3.028l-2.202-0.977
		c-1.154-0.521-2.59-1.169-4.235-0.994c-2.93,0.312-4.242,3.075-5.211,5.117c-0.877,1.884-1.697,3.645-2.516,5.326
		c0.936-3.018,1.136-3.819,1.136-4.571c0-1.417-0.685-4.665-7.028-4.211l-3.259,0.233v1.138c-1.354-0.723-3.228-0.827-4.927-0.706
		l-2.204,0.158l-0.826,2.133c-0.184,0.474-0.551,1.019-1.258,2.01c-0.672-2.731-3.921-3.12-6.695-2.922l-3.258,0.204v3.261
		c-0.021,0.364-0.354,1.69-0.568,2.542c-0.18,0.693-0.376,1.443-0.582,2.226c-0.701-1.072-2.024-1.799-4.045-1.584
		c-0.798,0.085-2.453,0.398-4.179,0.749l1.194-4.282c0.299-1.067,0.649-2.314,0.946-3.369l0.951-0.101
		c3.692-0.394,4.628-0.189,4.714-0.167l1.795,0.543l1.464-1.429c0.38-0.371,2.274-2.359,2.274-5.105
		c0-2.474-1.955-4.132-4.548-3.856c-1.03,0.11-2.652,0.396-4.706,0.759c-2.98,0.526-6.689,1.181-9.904,1.524
		c-0.331,0.035-0.582,0.058-0.771,0.072L7.58,39.401L6.431,43.74c-0.045,0.168-0.266,1.057-0.266,2.099
		c0,1.957,0.778,3.214,1.887,3.885C0,78.106,0,79.682,0,80.949c0,2.861,2.105,4.634,5.118,4.313c2.156-0.23,3.758-1.168,4.521-1.707
		l1.529-1.08v-1.783c0-1.266,0.151-3.16,1.953-9.659l1.451-5.271c2.954-0.431,6.306-0.882,7.694-1.03l1.203-0.128
		c-1.814,7.006-3.003,12.027-3.003,14.009c0,2.146,1.068,4.59,6.154,4.047l2.146-0.229l0.785-2.082
		c1.885-5.001,3.92-9.507,5.991-13.304c0.815,0.873,2.234,1.525,4.703,1.262l0.596-0.064c-0.903,3.742-1.309,6.17-1.309,7.663
		c0,4.678,4.05,4.945,6.465,4.688l1.281-0.137l0.917-0.992c1.479-1.599,2.952-3.441,4.348-5.336
		c0.152,4.265,2.845,5.516,5.369,5.247c1.144-0.122,3.352-0.796,5.712-3.833c0.932,1.893,2.782,2.876,5.221,2.616
		c1.494-0.159,3.894-1.136,6.311-5.091c0.64,2.327,2.412,4.161,5.916,3.787c2.309-0.246,4.282-1.975,5.879-4.142
		c0.934,2.904,4.147,3.074,6.194,2.856l1.281-0.137l0.917-0.992c0.862-0.932,1.722-1.947,2.566-3.006
		c-1.556,4.65-3.374,8.568-5.23,8.766c-1.152,0.123-3.129-0.907-4.094-1.636l-2.073-1.589l-4.733,4.645l1.844,2.152
		c0.736,0.858,4.679,5.109,10.092,4.532c11.434-1.219,14.676-14.34,18.781-30.952c0.985-3.985,2.003-8.106,3.207-12.423l0.695-2.491
		L113.842,41.303z M77.198,55.85c0.273-0.969,0.508-1.809,0.712-2.548c0.245,0.22,0.518,0.412,0.822,0.566
		c-0.79,2.804-1.465,5.264-2.02,7.402l-0.918-0.361C76.27,59.148,76.758,57.413,77.198,55.85z M81.171,45.417
		c-0.304,0.028-0.597,0.049-0.873,0.055l-1.784,0.041l-0.179,0.27c-0.232-0.308-0.511-0.57-0.831-0.784
		c1.809-1.109,3.443-3.241,4.409-5.191v2.869C81.858,43.134,81.51,44.322,81.171,45.417z M88.95,55.33
		c0.292-1.029,0.57-2.009,0.821-2.904c0.433-0.108,0.832-0.204,1.211-0.293c-0.897,3.122-1.644,5.817-2.244,8.117l-1.054-0.415
		C88.13,58.218,88.576,56.647,88.95,55.33z"/>
	<g>
		<path fill="#FFFFFF" d="M9.605,48.509c0.57-2.03,0.622-2.087,2.021-3.065l-0.104-0.3c-0.777,0.29-1.503,0.523-2.176,0.595
			c-1.347,0.144-1.606-0.71-1.606-1.642c0-0.673,0.155-1.26,0.155-1.26s0.156,0.087,1.865-0.095
			c5.492-0.585,12.279-2.034,14.61-2.282c0.984-0.105,1.399,0.421,1.399,1.043c0,1.451-1.192,2.614-1.192,2.614
			c-1.14-0.345-3.679-0.178-5.906,0.059l-3.316,0.353c0,0-0.933,3.311-1.606,5.715l-2.487,8.917
			c3.212-0.705,7.305-1.556,8.496-1.683c1.036-0.11,1.503,0.203,1.503,0.876c0,0.777-0.57,1.822-0.57,1.822
			c-1.865,0.199-6.839,0.885-10.102,1.388l-2.072,7.526c-1.865,6.727-2.073,8.925-2.073,10.531
			c-0.518,0.366-1.554,0.942-2.901,1.086c-1.14,0.122-1.969-0.256-1.969-1.5C1.574,78.118,2.144,74.794,9.605,48.509z"/>
		<path fill="#FFFFFF" d="M37.22,55.41c-3.989,4.621-8.289,12.385-12.175,22.694c-2.383,0.254-3.005-0.146-3.005-1.234
			c0-2.694,3.523-15.503,5.388-22.696c0.414-1.65,0.673-2.714,0.673-3.336c2.953-0.211,3.782,0.322,3.782,1.203
			c0,1.347-0.933,4.192-3.419,13.99l0.311,0.071C35.614,53.612,38.101,52,39.085,49.46c2.953-0.211,3.782,0.322,3.782,1.203
			c0,1.658-2.228,6.454-4.196,13.088c-1.865,0.199-2.642-0.288-2.642-1.376c0-1.554,0.725-4.533,1.399-6.832L37.22,55.41z"/>
		<path fill="#FFFFFF" d="M64.057,48.042c-2.176,7.485-5.751,20.352-5.751,23.875c0,0,2.072-2.19,4.766-8.02l0.518,0.204
			c0,0-3.264,10.295-7.253,10.72c-1.502,0.16-2.228-0.695-2.228-2.82c0-2.435,1.036-8.607,3.005-14.256l-0.155-0.035
			c0,0-6.321,11.605-12.537,18.329c-1.71,0.182-3.316,0.25-3.316-1.874c0-3.471,3.264-14.802,5.388-22.022
			c0.466-1.656,0.777-2.932,0.777-3.347c2.953-0.211,3.989,0.507,3.989,1.388c0,1.243-4.818,14.45-5.854,21.554l0.155,0.035
			c6.372-7.259,9.274-13.474,13.056-21.596c0.984-2.074,1.554-2.964,2.383-3.052C61.933,47.025,63.021,47.583,64.057,48.042z"/>
		<path fill="#FFFFFF" d="M73.488,62.735l0.518,0.204c0,0-3.109,10.278-6.735,10.665c-1.865,0.199-2.746-0.951-2.746-3.023
			c0-4.196,3.575-15.613,5.285-21.39c0.466-1.656,0.777-2.932,0.777-3.347c2.953-0.211,3.73,0.327,3.73,1.208
			c0,1.917-5.181,17.234-5.595,23.702C68.721,70.755,70.794,68.565,73.488,62.735z M78.099,35.718c0,1.347-2.694,5.313-4.197,5.473
			c-0.362,0.039-0.673-0.032-1.192-0.391c1.243-4.018,1.451-6.683,1.451-6.683C75.249,34.001,78.099,33.956,78.099,35.718z"/>
		<path fill="#FFFFFF" d="M86.337,46.082c1.399-0.304,2.642-0.54,3.626-0.645c0.622-0.066,0.881,0.165,0.881,0.735
			c0,0.363-0.104,1.099-0.104,1.099c-1.243,0.236-3.109,0.694-5.025,1.209c-1.399,5.278-4.974,16.798-4.974,20.01
			c0,0.518,0.156,0.813,0.414,0.992c2.124-1.884,4.974-7.524,4.974-7.524l0.518,0.204c0,0-3.471,9.747-7.15,10.139
			c-2.331,0.248-3.057-1.073-3.057-3.197c0-2.798,2.331-11.18,4.714-19.516c-0.466,0.102-0.881,0.146-1.14,0.173
			c-1.399,0.149-1.813-0.532-1.813-1.309c0-0.829,0.259-1.219,0.259-1.219c0.622-0.014,1.243-0.081,1.865-0.147l1.554-0.166
			c0.673-2.144,1.606-4.938,1.606-5.922c2.953-0.211,3.73,0.328,3.73,1.208C87.218,42.621,86.855,44.058,86.337,46.082z"/>
		<path fill="#FFFFFF" d="M92.141,83.749c-3.885,0.414-7.046-2.928-7.615-3.592l0.414-0.407c0,0,3.264,2.502,6.165,2.192
			c7.098-0.756,10.05-18.22,13.159-29.223l-0.155-0.035c0,0-6.32,11.605-12.537,18.329c-1.71,0.182-3.316,0.25-3.316-1.874
			c0-3.471,3.264-14.802,5.388-22.022c0.466-1.656,0.777-2.932,0.777-3.347c2.953-0.211,3.989,0.507,3.989,1.388
			c0,1.243-4.818,14.45-5.854,21.554l0.155,0.035c6.372-7.259,9.274-13.474,13.056-21.596c0.984-2.074,1.554-2.964,2.383-3.052
			c0.933-0.099,1.917,0.418,2.953,0.877C105.041,64.708,103.383,82.551,92.141,83.749z"/>
	</g>
</g>
</svg>
